<mxfile host="app.diagrams.net" agent="Mozilla/5.0 (Windows NT 10.0; Win64; x64) AppleWebKit/537.36 (KHTML, like Gecko) Chrome/132.0.0.0 Safari/537.36 Edg/132.0.0.0" version="26.0.11">
  <diagram id="C5RBs43oDa-KdzZeNtuy" name="Page-1">
    <mxGraphModel dx="1554" dy="819" grid="1" gridSize="10" guides="1" tooltips="1" connect="1" arrows="1" fold="1" page="1" pageScale="1" pageWidth="827" pageHeight="1169" math="0" shadow="0">
      <root>
        <mxCell id="WIyWlLk6GJQsqaUBKTNV-0" />
        <mxCell id="WIyWlLk6GJQsqaUBKTNV-1" parent="WIyWlLk6GJQsqaUBKTNV-0" />
        <mxCell id="PzGdb6fwfJ1blYIkL1jN-1" style="edgeStyle=orthogonalEdgeStyle;rounded=0;orthogonalLoop=1;jettySize=auto;html=1;exitX=1;exitY=0.5;exitDx=0;exitDy=0;" edge="1" parent="WIyWlLk6GJQsqaUBKTNV-1">
          <mxGeometry relative="1" as="geometry">
            <mxPoint x="301" y="94.77" as="targetPoint" />
            <mxPoint x="170" y="94.5" as="sourcePoint" />
          </mxGeometry>
        </mxCell>
        <mxCell id="WIyWlLk6GJQsqaUBKTNV-3" value="Step 1&lt;div&gt;Incident Detected&lt;div&gt;(e.g. Service Failure)&lt;/div&gt;&lt;div style=&quot;text-align: left;&quot;&gt;&lt;ul&gt;&lt;li&gt;Developers&lt;/li&gt;&lt;li&gt;DevOps Eng&lt;/li&gt;&lt;li&gt;SREs&lt;/li&gt;&lt;/ul&gt;&lt;/div&gt;&lt;/div&gt;" style="rounded=1;whiteSpace=wrap;html=1;fontSize=12;glass=0;strokeWidth=1;shadow=0;" parent="WIyWlLk6GJQsqaUBKTNV-1" vertex="1">
          <mxGeometry x="50" y="40" width="120" height="110" as="geometry" />
        </mxCell>
        <mxCell id="PzGdb6fwfJ1blYIkL1jN-2" value="alert sent" style="text;html=1;align=center;verticalAlign=middle;whiteSpace=wrap;rounded=0;" vertex="1" parent="WIyWlLk6GJQsqaUBKTNV-1">
          <mxGeometry x="480" y="68.24" width="70" height="30" as="geometry" />
        </mxCell>
        <mxCell id="PzGdb6fwfJ1blYIkL1jN-4" value="IDP (Port)" style="swimlane;whiteSpace=wrap;html=1;" vertex="1" parent="WIyWlLk6GJQsqaUBKTNV-1">
          <mxGeometry x="580" y="40" width="240" height="750" as="geometry" />
        </mxCell>
        <mxCell id="PzGdb6fwfJ1blYIkL1jN-38" value="Trigger Esalation Workflow" style="rounded=1;whiteSpace=wrap;html=1;" vertex="1" parent="PzGdb6fwfJ1blYIkL1jN-4">
          <mxGeometry x="60" y="240" width="120" height="60" as="geometry" />
        </mxCell>
        <mxCell id="PzGdb6fwfJ1blYIkL1jN-39" value="" style="endArrow=classic;html=1;rounded=0;exitX=0.5;exitY=1;exitDx=0;exitDy=0;" edge="1" parent="PzGdb6fwfJ1blYIkL1jN-4" source="PzGdb6fwfJ1blYIkL1jN-38">
          <mxGeometry width="50" height="50" relative="1" as="geometry">
            <mxPoint x="110" y="440" as="sourcePoint" />
            <mxPoint x="120" y="360" as="targetPoint" />
          </mxGeometry>
        </mxCell>
        <mxCell id="PzGdb6fwfJ1blYIkL1jN-40" value="Map incident to correct service owner" style="rounded=1;whiteSpace=wrap;html=1;" vertex="1" parent="PzGdb6fwfJ1blYIkL1jN-4">
          <mxGeometry x="60" y="360" width="120" height="60" as="geometry" />
        </mxCell>
        <mxCell id="PzGdb6fwfJ1blYIkL1jN-8" value="" style="endArrow=classic;html=1;rounded=0;" edge="1" parent="WIyWlLk6GJQsqaUBKTNV-1">
          <mxGeometry width="50" height="50" relative="1" as="geometry">
            <mxPoint x="450" y="95" as="sourcePoint" />
            <mxPoint x="580" y="94.5" as="targetPoint" />
          </mxGeometry>
        </mxCell>
        <mxCell id="PzGdb6fwfJ1blYIkL1jN-16" value="Datadog" style="swimlane;whiteSpace=wrap;html=1;startSize=40;" vertex="1" parent="WIyWlLk6GJQsqaUBKTNV-1">
          <mxGeometry x="300" y="30" width="150" height="110" as="geometry">
            <mxRectangle x="240" y="130" width="90" height="40" as="alternateBounds" />
          </mxGeometry>
        </mxCell>
        <mxCell id="PzGdb6fwfJ1blYIkL1jN-20" value="" style="shape=image;verticalLabelPosition=bottom;labelBackgroundColor=default;verticalAlign=top;aspect=fixed;imageAspect=0;image=data:image/png,iVBORw0KGgoAAAANSUhEUgAABkAAAAaxCAYAAAD/wkQbAAAACXBIWXMAAAsSAAALEgHS3X78AAAgAElEQVR4nOzdTVIcV9YG4FRHz6VegfACKoRXILQC4WGOhCJqbrwC4xUYzTPCMKphoxUYVmARuYAWK/jMCvji2hc7TRVQP/l38z5PhMLdVdgqMqEq8773nPPi7u6uAAAAAAAAmJJ/OZsAAAAAANMwny1eOZXwJxUgAAAAAACJmM8W+0VRhJDj/p978U/432/id/FtVZdfnFNy9+/cDwAAAAAAwBjMZ4tmmNEMOoK3G7xEVSBkrxCAAAAAAAD0Yz5bHMS/6P6fzSqO1y2+CAEI2SsEIAAAAAAAu2u0ptp78KfZmqov4bVcOK3kTgACAAAAAPCEOFj8YUuqZhXHy8f/bWAoAhAAAAAAIGuN1lSrBoy32ZqqL3u5n1MoBCAAAAAAwJQ1Bos/HDBebDhYPCUCELJXCEAAAAAAgFQ1WlMVjZZUWlMBfxCAAAAAAACj1Bgs/nDA+BCDxVMy1coW2IgABAAAAADoXaM11aoB4xbwgZ29uLu7cxQBAAAAgFY1Bos/HDCe6mDx1HxT1eXX3A8CeVMBAgAAAABspNGaatWAca2pxiGcDwEIWROAAAAAAAB/aQwWXzVg3GBxIBkCEAAAAADISKM11aoB41pTTUc4r5e5HwTyJgABAAAAgIloDBZ/OGC8MFg8O69yPwAgAAEAAACABDRaUxWNllRaU/EYAQjZE4AAAAAAwAg0Bos/HDBusDjb2HfUyJ0ABAAAAAA61mhNtWrAuNZUAB0QgAAAAADAjhqDxR8OGDdYnKGoACF7AhAAAAAAeEKjNdWqAeNaUzFWZsKQPQEIAAAAANlqDBZfNWDcYHGAhL24u7tz/gAAAACYpEZrqlUDxrWmYureVXV56SyTKxUgAAAAACSpMVj84YDxwmBxAAQgAAAAAIxOozVV0WhJpTUVbGbP8SJnAhAAAAAAetcYLP5wwLjB4tAeAQhZE4AAAAAA0KpGa6pVA8a1pgKgFwIQAAAAADbSGCz+cMC4weIwLgfOBzkTgAAAAADwl0ZrqlUDxrWmAiAZAhAAAACATDQGi68aMG6wOEzPK+eUnAlAAAAAACai0Zpq1YBxrakgP6q2yJoABAAAACABjcHiDweMFwaLA8CyF3d3d0sPAgAAANCfRmuqYsVgca2pgF18W9XlF0eQHKkAAQAAAOhYY7D4wwHjBosDXTMHhGwJQAAAAAB20GhNtaqKQ2sqYGgCELIlAAEAAAB4QmOw+MPWVAaLAykI71kXzhQ5EoAAAAAA2Wq0pnpYxaE1FQAkTgACAAAATFJjsPiq1lQGiwO52HOmyZUABAAAAEhSozXVwyoOrakA/iYAIVsCEAAAAGB0GoPFVw0YN1gcAHiWAAQAAADoVaM1VbFisLjWVADtEhqTLQEIAAAA0KrGYPFVA8YNFgcAevHi7u7OkQYAAADW0mhNtaqKwy5jgHH6pqrLr84NuVEBAgAAAPylMVh81YBxg8UB0hTewwUgZEcAAgAAAJlotKZ6WMWhNRUAMDkCEAAAAJiAxmDxVa2pDBYHyFv4HLjM/SCQHwEIAAAAJKDRmuphFYfWVAA859Uzz8MkCUAAAABgYI3B4qsGjBssDsCuBCBkSQACAAAAHWq0pipWDBbXmgqAPuw7yuRIAAIAAAA7aAwWXzVg3GBxAICBCEAAAADgEY3WVKuqOLSmAiAVKkDIkgAEAACAbDUGi68aMG6wOABTod0iWRKAAAAAMEmN1lQPqzi0pgIAyMCLu7s75xkAAICkNAaLr2pNZbA4ACx7V9Xl5dKjMGEqQAAAABidRmuqh1UcWlMBALAWAQgAAAC9agwWXzVg3GBxAOjGnuNKbgQgAAAAtKbRmqpYMVhcayoAGI4AhOwIQAAAAFhbY7D4qgHjBosDADAaAhAAAAD+0GhNtaqKQ2sqAEjbgfNHbgQgAAAAmWgMFl81YNxgcQAAJkUAAgAAMAGN1lQPqzi0pgIAinhNAFkRgAAAAIxcY7D4qtZUBosDAOuwIYLsCEAAAAAG1mhN9bCKQ2sqAADY0ou7uzvHDgAAoCONweKrBowbLA4A9Onbqi6/OOLkQgUIAADAlhqtqYoVg8W1pgIAxsYcELIiAAEAAHhEY7D4qgHj+mgDAKkRgJAVAQgAAJClRmuqVVUcWlMBAFMUrnkunFlyIQABAAAmqTFYfNWAcYPFAQBg4gQgAABAchqtqR5WcWhNBQDwuL1Hn4EJEoAAAACj0hgsvqo1lcHiAADbE4CQFQEIAADQq0ZrqodVHFpTAQAArRGAAAAArWkMFl81YNxgcQCAYbkeIysCEAAAYC2N1lTFisHiWlMBAACj8uLu7s4ZAQAAmoPFVw0YN1gcAGAavqnq8qtzSQ5UgAAAQAYaralWVXFohQAAkI9wTSgAIQsCEAAAmIDGYPFVA8YNFgcAALIjAAEAgJFrtKZ6WMWhNRUAAJsK15GXjho5EIAAAMCAGoPFV7WmMlgcAIC2vXJEyYUABAAAOtRoTfWwikNrKgAAhiAAIRsCEAAA2FJjsPiqAeMGiwMAMEb7zgq5EIAAAMAKjdZUxYrB4lpTAQAAjJwABACALDUGi68aMG6wOAAAU6UChGwIQAAAmJxGa6pVVRxaUwEAkDOVzGRDAAIAQHIag8VXDRg3WBwAAIDixd3dnaMAAMBoNFpTPazi0JoKAADa8a6qy0vHkqlTAQIAQG8ag8VXtaYyWBwAAIDWCEAAAGhNozXVwyoOrakAAGA89pwLciAAAQBgLSsGizerOAwWBwCAdAhAyIIABACAZmuqYsVgca2pAAAASI4ABAAgAysGizerOQwWBwCAvBw43+RAAAIAkLgVramKxg2N1lQAAABkSQACADByKwaLN6s5DBYHAAA29coRIwcCEACAAa1oTdUMOLSmAgAAuuBegywIQAAAOvLIYPFmNYfB4gAAANCRF3d3d44tAMAWVrSmag4X15oKAAAYs2+ruvziDDFlKkAAAFZYMVi8Wc1hsDgAAJA6c0CYPAEIAJCdR1pTNUMOrakAAICpE4AweQIQAGByVgwWb1ZzGPYHAADw5+avC8eBKROAAABJWdGaqmhUcWhNBQAAAPxBAAIAjMqKweLNag6DxQEAANqx5zgydQIQAKA3K1pTNQMOrakAAAD6IwBh8gQgAEArHhks3qzmMFgcAAAA6I0ABABYy4rWVM3h4lpTAQAApMUMRSZPAAIArBos3qzmcFEMAAAAJOfF3d2dswYAE/ZIa6pmyKE1FQAAQJ6+qeryq3PPVKkAAYDErRgs3qzmMFgcAACAx4R7RwEIkyUAAYARW9GaqmhUcWhNBQAAAPAIAQgADGjFYPFmNYfB4gAAAHQp3INeOsJMlQAEADqyojVVM+DQmgoAAIChvXIGmDIBCABs4ZHB4s1qDoPFAQAAGDsBCJMmAAGAFVa0pmoOF9eaCgAAgCnYdxaZMgEIANlZMVi8Wc1hsDgAAADABAhAAJiUR1pTNUMOrakAAADgTypAmDQBCABJWTFYvFnNYbA4AAAArM8mQSZNAALAaKxoTVU0qji0pgIAAABgbS/u7u4cLQB6sWKweLOaw2BxAAAA6N+7qi4vHXemSAUIAK1Y0ZqqGXBoTQUAAABArwQgADzrkcHizWoOPUMBAAAgTXvOG1MlAAFgVWuq5nBxrakAAABgugQgTJYABGDiVgwWb1ZzGCwOAAAAwCQJQAAS9khrqmbIoTUVAAAA8JSDJ56DpAlAAEZsxWDxZjWHweIAAAAA8AgBCMBAVrSmKhq7LrSmAgAAAPrwylFmqgQgAB1ZMVi8Wc1hsDgAAAAwBjpMMFkCEIAtrGhN1Qw4XDgAAAAAwMBe3N3dOQcADY8MFm9WcxgsDgDAFFwXRfH7M9+H61+APHxb1eUX55qpUQECZGdFa6rmcHGtqQAAmIrboijCYtZlDDrC//5a1eXXTb+/xvy6vXgdvS8cAZgUc0CYJAEIMCkrBos3qzkMFgcAYMquYtgRgo4v2wQdj4n/raX/XmwNG/4cxqppgQhAmgQgTJIWWEAyHmlN1Qw53GwBAJCT6xh4XFR1eTmG7zsGIkcxEFFdDZCOn6q6PHG+mBoBCDAaKwaLN6s5DBYHACB3t/eBRww9npvfMShhCEBSBCBMkgAE6MWK1lRFo4pDayoAAFjtthF4XKz8igTMZ4vDGIa8d54BRum8qssjp4apEYAArVgxWLxZzWG3FwAArC+EHmdjam3Vlrgx6jiGIVrYAozHVVWXB84HUyMAAZ61ojVVM+DQmgoAAHY3iUqPdcX5fsfxjyAEYHgCECZJAAKZe2SweLOaw80IAAB05zyX0GMVQQjAeFR1+cLpYGoEIDBxK1pTNYeLa00FAAD9+5zKIPO+CEIAhicAYYoEIJCwFYPFm9UcBosDAMB4XDfmenx1XlZrBCE/rvwCALr0jc8opkYAAiP1SGuqZshhVxQAAIzbTaz0OLWgtJm42eu0KIr3Kb1ugMS9q+ry0klkSv7tbMIwVgwWb1ZzGCwOAADpuoqhR5ZzPdoQA6PD2NL3TPteAGAbAhDowIrWVEWjikNrKgAAmKbQ5urY7tn2xGO5N58tTswHAehcWMPyGcakCEBgCysGizerOexMAgCAvNwWRXFS1eWp896Nqi5P5rPFWawGsakMoBuvHFemRgACD6xoTdUMOLSmAgAAmkK7qyMzProXj/HBfLY4jEGIahCAdglAmBxD0MnKI4PFm9UcLqABAIB1farq8tjR6l+8tzszJB2gVVdVXR44pEyJChAmpVG9sWrAuNZUAABAG27jrI8zR3MYVV3+HoekqwYBAB6lAoRkrBgs3qzm0AMWAADoQwg/Dqq6/OJoj4NqEIDW3FZ1qQ0WkyIAYTQag8VXDRi3mwcAABia8GPE5rNFaEd24v4RYHtVXb5w+JgSAQi9WDFYvFnNYbA4AAAwdteh5ZJh5+MW7z3P3GcCbEcAwtQIQNhZY7D4qgHjWlMBAACpC5Ufe3HuBAmYzxanRVF871wBbOxdVZeXDhtTYQg6z2q0plo1YNxgcQAAYMru214JPxJS1eXxfLa4NCAdAPImAMlcY7D4qgHjSoYBAICcmfmRsKouL2JLrAv3twBr23OomBIByIQ1WlMVjZZUzWoOu2AAAAAeN4nwI258+z3HKpY4s2VfSyyAtQlAmBQBSMIag8VXDRjXmgoAAGB7HydU+RGCj1ANcZxrNUtsiRW+91ObAQEgH4agj1SjNdWqAeMGiwMAAHTnp6ouT6Z0fOezRZiFcZh7S6+4kfBMSyyAR11VdXnw2JOQGgHIQBqDxVcNGLcbBQAAYBjnVV0eTe3Yx012/4tzTQ6rurxc+qJMxHbRIQR5n+sxAHiCAIRJEYB0oNGaatWAcbtMAAAAxuk6VkhMclbGfLa4bHQUCC2+zpa+KCPz2SJU+fyY8zEAWOG6qsv95YchTQKQDTUGi68aMK41FQAAQJpCZcR+HJo9SfPZIlS2/NL43oQgfx4Tc0EAGqq6fOF4MBUCkAcaralWDRg3WBwAAGCavqvq8mLq53Y+W/z+YLFfCPJnF4cL9/wAfxKAMCVZBSCNweKrBoxrTQUAAJCnyQ09f8x8tgjVDt8/ePpdzjNBir+7PVxaGwD4w7dVXX5xKJiCyQQgjdZURaMlVbOaQzkrAAAAD2U17DVWO/z24OHbOPsk+8Wu+WwRqmE+LD0BkJfsg3GmI5kApDFYfNWAcWWqAAAAbCos/O9Ndej5Y+azxZcVlQ5CkGg+WxwXRfHz0hMA+ciiLSR5+PcYvstGa6pVA8YNFgcAAKALh7mFH9HZigX+0DXhMtyfZ3pM/lLV5WmclWI4OpCr+9lIkLxeApDGYPFVA8ZdTAAAANC3Txm391gVgBSNEORACFKexUqZS+sWAJCunVtgNVpTrRowbngYAAAAY3Nd1eV+zmdlPluEnb3vl5740+eqLg+XHs1Q7FhxYX0DyMx5VZdHTjpT8GQFSGOw+KoB41pTAQAAkJow68Li/p9VII8FIO/ns8VpVZfHS89kpqrLr7GrxaUQBMjInpPNVPxRARIHfD0cMG6wOAAAAFPzMbQ3clb/2PT4+zPtnRyrhvlsEY7Fh6UnAKbnqqrLA+eVKfhX/B5C788f4+6Pt8IPAAAAJuizBf1/eG7A7Wlse82f1SChHcy5YwFkQOcfJuNfTiUAAAAZCK2v9DP/p+cCkFAdchHbY/N3CPLRsQCANNwHIFfOFwAAABN2WNXl707w36q6vIjB0FNex3khRLGKSAgCTNp8tjAHhElQAQIAAMDUfarq8tJZXum5KpAiDkXPfiB6UwxBvl0jQAJIlQCESbgPQFwIAgAAMEXXRVGcOLOPWicACX42D+Sfqrr8UhTFgRAEAMZLBQgAAABTdqT11ePWbIN1TyusBxohyPXSkwBpE3ozCSpAAAAAmKqf4gI1T1u3CuTNfLY4XXo0c0IQYKJeObFMgQoQAAAApui6qkutr9azbgASfD+fLQ6WHs1crDISggBTIgBhEv4IQAyDAwAAYEJCS6cjJ3Q9sQ3WJs7ms4WFsQcaIcjV0pMA6dECi0lQAQIAAMDUnGh9tbHPG/wLr4uiOF56lD9CkKouQwhy7mgAwPCaAYgdCgAAAKTuqqpLcyo2t2kVyI/z2cLu4EdUdXkkBAES5z2eSVABAgAAwFRofbW9bVpjC5qeIAQBEvfSCWQKmgGIOSAAAACk7Liqy6/O4Obicdt0gPfb+WwhcHpCDEF+evwrAIAuqQABAABgCj5XdXnmTO5k0zZYwamB6E+r6vKkKIqPT34RwAjNZ4sD54XUqQABAAAgdVpftWObdYHQIuVk6VH+IYZzQhAA6JkKEAAAAFJ3VNXl787ibqq6vIxh0qa+n88We4l+270RggAJ8t5O8poByBenEwAAgMR8qupym9ZNrLZtdwgD0dcgBAESIwAheX8FIHbLAAAAkJgb7Zdat20A8l6v+PUIQQCgPw9bYF079gAAACTi0Ga+1u1STSOMWpMQBEiEYJvkPQxAXDgCAACQgp+qutTKuWVVXX6NlTXbeKsKZH0xBPl2y7krAMAaHgYgLh4BAAAYu+uqLlUbdGfbNliFKpDNxBDvQAgCjNQrJ4bUqQABAAAgJWGh+NAZ69QuAYgqkA0JQYARe+PkkDoVIAAAAKTkOLZpoju7rg0cLz3Ck4QgANANFSAAAACk4nOcm0CH4mL8Lgvx7+ezxd7SozxJCAKM0Xy22HdiSJkKEAAAAFIQBnMfOVO92aUNVmEWyHaEIMAImQNC0v4RgFR1qQIEAACAMTp0z9qrXTdIHs5nC4tmWxCCACPjvZykPawACa6XHgEAAIDh/BAXhenPrhUgL1XsbC/+vBv2D4yBFlgkbVUAYkcNAAAAY3FV1eWps9Gvqi53DUAKw9B3E8/Bx5S/BwAY2qoAxK4aAAAAxuDWLvhB7doh4vV8tjhYepS1xaH/QhBgSHuOPilbFYCoAAEAAGAMzP0YVhsbJLXB2pEQBBiYAISkrQpAVIAAAAAwtB9aasPE9tpYHzAMvQVCEADYzqoAxO4aAAAAhvTZ3I9RaCMAeamNWTtiCHI+he8FSMpbp4uUrQpAVIAAAAAwlBttk0ajrfUBAUhLqro8EoIAwPpe3N3dLX3xfLZYfhCAKQkLC1/j9/O18b/XcT/IMrQyeOOnAgBoURh6flDVpY15IzGfLX6PVRy7+o95Lu2ZzxYXRVG8n8r3A4zeN1VdbrJuAKPx70deSFgYe730KAApuQ85LmN7w7CQ8LXti5bY03k//tmL/1QiCwBs41j4MTpfWrq2C1UgZ0uPsq2jeJ1vQxLQh70NN07CaDwWgHwVgAAk5TbeAH25/2dfO+zi33MZ//xlPlscxDDkwO40AGANn+KMA8ZFADJC4Ro8Xm8LQQDgCU8FIHbvAozXbSN0uBzjTsmqLu9f3x8DTOezxWEMQw6F7ADAA1dVXR4vPcoYtLXj14aYlsUQ5DCGVG20KQN4zP7DTY+QiqcCEADG5booitDr9yLF1hBVXV7E138cb9Tu/7hZA4C8XRuSPWqtXXeGa8B4TUhLQnvbRiWI62qgK68cWVIlAAEYt+vYKuBiSgPH7sOQOD8kLHicqAoBgCyFqtYjw7FHrc1r0IO4IYYWhc1R89kizAT5r+MKdEQAQrJe3N3dLb32uHvg16UnAOjDJEOP58SqkGMtGAEgK+9i20xGbD5bLC8cbOe6qst957obMQT5ZYrfGzC40KrywGkgRf965DWrAAHoV9j9+Kkoim/CTWFVl6c5hR9FrAqJF1TvwsXV0hcAAFPzUfiRjJuWXuibWAFMB6q6DJuozh1bAPjbygAkt0U3gAGFhf7vqrp8FQZ/ev/9c3h6DEI+tnizDQCMy3lcrCUNbbfBoiNVXYYqkM+OL9Ay1Xska2UAEll0AuhGs9rjwCDI1eKiSLjI+mnlFwAAqTqPi7SkQwCSlqPYVhegLS8dSVL1VACS/S5kgJZdx6qGPdUe6wkDUau6DAPSv9EWCwAm4TrO/CItbV632kXcsXANXRTFYdx4BQBZE4AAdO88DvgMsz3O4g0JGwhhUWyLpRoEANIVwo8D10LZe5v7AehD3Gyl2gZozXy28J5CkgQgAN24iYv1/wktHgz4bEesBvlWm0YASM6t8CNpX9p88RbR+lHV5ZdYgQ4A2RKAALTrfqh5aHN14ia/ffFGbt9wR6AHt7GK77uiKH5wwGFrwo/0tX3u9pYeoRNxrt4nRxdogfdukiQAAdjd/QKZoeY9ibNBDt3MAR34K/So6vJVY1Dzzw42bOU+/Gi1goDkmQPSozB/0Dw9oAUCEJL07ydetAAE4GmhDdNpURTmegwk3MzNZ4uwoPJLlgcAaNNVfD8/a/4357NFWKQ7c6RhK8KP6Wj7WlcA0r+weSi05X2T2zcOQN5e3N3dPXoA5rPF408C5Cu0Xjo112M85rPFUQyjXuZ+LICNhMXZULV3EofF/sN8ttiLfe+9t8DmhB8T0/b6QFWXL5YepFMx1L/0uQZs6Sp0vXDwSM1TLbCKeNEKwJ/vh59im6tD4ce4xB3bBz63gDWF94qfQhl/aHH1SPjxKoYjQywSXcUqQ0iV8INnxcV4ehR/J48dcwBy8lQLrCLueHu79ChAPq5jZcGFNlfjFm7o5rPFgV1twBNuYrXHOi2tTgdoExIWjU/i/zZzhFQJP1jXflxzoEfhMzCGT9877sCGXjlgpOi5AMRiH5Cr89gLXqVHQhohyG+5HwvgHzYJPsKu5LA79sPSE90K7RWP4nBJ72GkSvjBJg7MWBpGnKO3b8MrsCEzhEjScy2wXLgCOblvifJNbIki/EhQXHT5mPtxAP4Q3tc/VnW5t0H4sd9z9UUIZ96F9orx/1sMJFXCDzalBdawDrWPBSAHzwUgKkCAHFzHBbJXVV2uHIRLWuJCpxAE8tWc8bF2oNCY+9GXMFtqvxG4n9hZR6JuhB9swfvdgGJ7X8OMgY2Y30SKVIAAOTuPu273N1kgIw3xnJ47XZCd8xgqnGwxuykEEK+XHm1fCN6/DS1I7l9jbN+XUj/2czuHia7j75x7RzYW3/sYSPy9/cHxBzZgDgjJUQEC5Eabq4yEcxwXZoDpu4qh9tE2lXw9BhA/xeD9r8XiWHmSQhB/Ez9D/xPvE14ufQW5uY6VH+4b2ZYAZGBVXZ7GOVQA6xCAkJwnh6DHYbJLjwMkKNygn6r0yFK4sf5qoQ4mKwTbx7u8v/cUQFzF17lql3xflSfbuoqfoX+0B5vPFkeJVavQjfO40QB2IQAZh/C7fKktGbCG/Z5bxsLOngxAoluLRkDCQouOM5Ue+Qq7UuezRRjy+GvuxwIm6DyGCrvuPu8ygAjX0idxh+2Skbe+Oo+v/a+Kmtj3eeX3QlZCJdOJU04L9JIfgXi9fB+CWP8BYFKea4FVmAMCJEibK/4h/gz85KjAZNw02l3tFH7EBf2uAoirOBthZWAw0tZX95+h/3nYTqzxei2O5Sv8fHwn/KBFLw3UHYdYoeh3G3jO3jPPw+isUwGinyuQCm2ueFRYrImVIEr7IW2fYlVCW9eoK8OJHT1Z9dEwptZXN/E1P/UZeuY9NGvhOuvokTZusIsDGy/HIXxuxcrE97kfC+BRAhCSs04A8sWHHzBy2lyxLqX9kK6buPja2nt9DEXfLj2xm6v4Op8cxN5x5ckmrmLw8eRxnc8Wx+4JsvY5/lzbHJe3645C0AOt9UblKK4DjXk2FQCsTQUIkKrbuBP19LlFJrgXdq3OZ4uw4/pnBwWS0nbVx702F9zWrfq491SlRR+W5ns8JoY13jfz9cMGP9dMW1drAwahj0hjft5vuR8LYKW2Nw9B58wAAVITdgB/DGWXVV0eCz/YVFzEuXLgIAn38wbaGHT+D3HYa1u7W5+c9bHi7z4eqJXUbQyTvnk43+Mxce7HxSNPM23hmutb4Qc9MAdkZGKrux9yPw4ATIMKECAVn2O1x5MtOmBNYVfbV62wYNRCqHDYYcudtga9/rTJQOgYKPQ9ZPY2VrucbnE8z7RByVKoEGo9eIQnmAMyMnEeSBetIoHEzWeLPZtRScmzAUhsF7L0OEAPtLmiE43S/l8dYRilTlvutFT9se1A6NMew9eb+PedbbOQbe5Hlm7jz7WqH/pmDsg42TQErLIX3xsgCetUgBTxQtgHHtCXnRZsYB2hmmg+W3wayRBi4E83seqj613Au1ZgbFT1cS+2ePmw9ET7buJ8j63njJj7kSWDzhmSsHWE4qahsGngv7kfCwDStc4MkEIpKtCTq9jrPZRTbtOmAzYS5grEXdzA8D7HORqdXnfuWP0RgoV324QfUde7m/+YkxU/R3cJP8z9yMtNvP7qsuUcPGs+WxiGPkKxIuxT7scB+Adzm0jKuhUgAF06jztVlVAyhMMY9Kt0hOFsVVGxpaMt/72dZiJ03Ed954qPB8z9yCfN4aEAACAASURBVMen+LMj+GAdlx3PgziMfwfjcxLblL1xboCiKF45CKRk3QCk6wsdID83jfkebroZTAjelPbDYHqdNxAGNm5xTdvWa+yi+uMqLl63tmBo7kc2rmKgp9KfMVEBMlKNVli/5X4sgD8IQEiKChCgb1dxtkdbu1RhZ2Fhcz5b/FQUxY+OJvRm2yHiuzje8N+9iq9xpwrF+Wxx0nJFxXVcvG51p7S5H1m4iT87WpwxRm9CUK0qfJzC57XrZSDSAoukbFIB4kMO2MV5DD6UtTNKof1O7D2t4hG6N9Sw5U3aX7XSlivO09g0eHlM262uHr5Oi+LT1dnPDrTsIFaJM0LxevlQKywAUqICBOjSbWz5cWYnF4m4nwei9z1051NVl20FAmuLCzbrzPoJC8WHLVamHLcwY6iPxWtzP6bpNrYb7WvGDtPWx/X8oQBk9MzPA1SAkJR/rfNi7dgGNhQWaj4WRRFK2A03JxlxN/phXDAC2vdxiPAjOlx6ZFmoTNlvK/xoofrjJh6zvS7DD3M/Jun+Z+eV8IMW9XFNbw7IyMV7O+8rkDcBKElRAQK0qfVhrExT3Ikd2t+ssyDZq9jfOCwG/uLHD1oTQsWDgQcuP/V+cxvnIrQdMpxseYN4Gz9Puxic/g9x7oeFrOkwa43UvQzXiebUjFv4fIrX81rHAjB6a1WARFdLjwD8uUgT5nt8U9XlgfCD58xni7Cg99+w2zgMunzmywcRF45+cjKhFTdDhx9xvs9jQcR1fH2tLhjH97fvl5542m1879nrKfx4FVvNPHZsSEe4Fvs2XosJP0jdU4E143GkahryFa+vIQkqQIBt3cRFk9MBhtiStmb7hJMNhxL3Jg553NcWBnZyHy4M/Tnx2GLaeaz86OL1bVpV8SlWffR5rE4Msk3adbwWO3MtRk/6CrItqiUgtMKazxbhc+Tn3I8FAOO2SQByqbwRiDfbp3YXsoNmldCHcOM04jkxR/H1WiCEzX2Ore7GsDD7cDGtq5ZXf4jVHx+Wnljtc3wtvb4PxtYlm1aoMLywAeUiXouZsUavwvv5fLbo4698HTahDNw2kTVohQVZG2U3B1hFBQiwrvO4w1CLK3YSZ2yEBZzX8b8z5iqQ32Np71ctYmAj51VdjuL3OrZ5aoaY1zGY6XJhbZ3qj8HmZsWAxkaGdFzH0OPCgjAZCZ8hx054Eo5idZBrZciLAIRkbDIDxKIn5Oc2tuQI8z2OhB+0qDnY8kNcoByluHv9QI9jWNtowo+oWf1x3vU8kvh+9ljLrSLu4P848Nwscz/G7X6+2sd4DRZ2wp8IPxiJm55exlPvo4xIrEbbtO0jAPRGBQiwyk28iL3QU5qOXDxovXI85hunWLUSbsR/XXoSaPqhj+HdG9qPX97La4uVY19XtM4Li9qnQ8/OitUfly1vbnrVOM7r2BfA/MN13D0dzskXQQcj97VRxdslbbASohUWZMm8JpLx4u7ubu3XOp8t1v9iIEVXcWHmwtmja/PZ4vfGAlhYGNwbe+A2ny3CrvZflp4AiljVMLq2SvPZ4iK2muptES0s2hVF8VvjofP4GsxsWEOsonksUHnsuVWPP2x/NrTbGHR8iYvIX1TXkpr5bNHnbNBPVV1qg5WIGLBrhQX5uAoVzc43KRCAAEVcmDm1w4o+zWeLswdDgn8KLT7GfhKEILDSKMOPIc1ni5PYwuXYIvd4xLlO9x6GJvvxsWKLBd6bGGoEv8dFwOK+0sbPAFMxny1OH1Txdummqks95hMyny1CYPVz7scBMnEd2nQ62aRg0wCkz90eQLfuW3Gc2ZHKEGKZ/H8bf3UyN7lxYfPHpScgT8IPgEwMcA30rU1aaZnPFl9GVn0HdKSqyxeOLSnYZAg6MA33w1dfxYGawg+G8nA37OtYXTF6sVLl3E8OCD8A6FQS14b8g3MGwKhsGoAo3YZ0hfke78IOe4tVjEGc9/H5wUsZfQuse1VdHglByJzwAyA/fa8JHC49wqjFip2fnCWYvjj3DkZPBQhMX1ig/SYMp9J/mhF6OHA/mSqQQghC3oQfAPThdWybSlpOY+cBYNpeOb+kYNMARO9NSMNt3HXzn7BAq80VI7YqlEuqbF4IQoaEHwD5GmJNQACSmFjprRUWTJ8AhCRsGoD8vvQIMCYP53v4nWXUYjh3/eA1vp3PFgcpnTkhCBkRfgBkbKD7i8P5bGGRLTGx+8DDdrfAtGiBRRJUgMA0mO9Byh62wSpSmgVyTwhCBoQfABQDtDZ6qQokWUexOwEADGajAMRuchgd8z2YglUBSKgC2Vt6dORiCPLJTyUTJPwA4N4Q7XW1U0pQXENKbmMTsLbk7tnJ0zZD0B+2KgH6Zb4Hk1LV5ZdHdhImebNU1eVxWCxeegLSJfwAoGmIjZFJbo7hj2vjU+tIMFnel0nCNgGIKhAYhvkeTNmqKpAPqd7oxsViIQhTcC78AOCBoVpjHy89QipU8AAwmH9v8ReHi523S48CXbqNpeZH89miefEYFodf93Tkr58JQH9v3AydCmjYUGjh9v2Kf+Uk1RumsGg8ny2+xnDn5dIXwPidx7ZuANA01HX+kRAkTaHiez5bfHrkeh9Il/VhkqACBNLwMn6wPPzTV/gRvFnx9zf/7MWQRvjBxqq6vHhkQOLhfLZ4tfRoIuJsnoNHvjcYs0/CDwAeMVQFyMsHm8FIy4lrYgCGsE0AMtTFDjA+t3EQ+7dVXe6HHe/CD3awqg3Wy9R3+sUZJ3t6HzNyN/H9/Ls4Y8oOWwAeM+QMQgFIouJ9ousLmBjzmUjBi7u7u41e5ny2CDtZf116AshJWMgNw+wuBB60Je7o+2XFf+42zL5ZejQxsZIl/N588EPDSHyO7efCe/mQi1kAJGY+W2y2kNCub3xupWs+W3yJ3QWAaXgXOx/AaG07AwTIz23coX8ad7RD2y4eCUD+aHeQ+iDmGBYexZu+n5e+ALp3E3/PLmPbOQDY1k3P7XibjlUSJO3YploA+rRxBUgx/G4PoF83cde69lZ0bj5bXD4ySO2mqsvJlNbGakrD0elDqNg7i6GH8BqAVjxxzdaHsDFrz71JuuazxZmqaJiMH6q6PHU6GbNtKkCKeDOtZBGm7XOs9lDKSJ8uHrmZfj2FKpB74fdqPlvsx+/X5ylt+xx/trQpBKArXx65ZutD2EByGAN+0nQcz6HNQJC+5NtVM33bBiBupmGabhvVHvrqMoSLJ9pDHU3pRjf+ju3PZ4vwO/f90hfA+m4bgYfWVgD0Yeh7hRMBSLrCBo14Dfxj7scCJkAAwuj9a8sXqIUCTEtoc/UxlpKfCD8YSvzZu37kr38bW0dNSlWXYQfcd3ERG9YVfl7Ow89OVZevqro8En4A0KOh1wReT/G6MCfhvjPehwJp23f+GDsVIJA3ba4Yo8sn2kIdx+cnJSxcz2eLvSdagEGh0gOAERnDhqlJXhdmJpzD/+Z+EADo1rZD0A99SEGy7hfQVHowSnE2xm9PvLZvpvyzO58tjmNbBz2RKYQeAIzVfLbYfDGhfZO+LszBwAP1gd3dhop0x5Ex27YFlgoQSE9YRPsptrk6cqPAWFV1+eWZdlAnS49MSFWXp7GM+MoPadZChd5H7a0AGLExXKtM+rowE84hpM3GPUZv2wDEwimk46axiBaqPgSYpOCpxd4P89li0jtMQkBZ1WXoa/3DM2EQ03Idz/l/qro8rOrScFcAxmwM6wKTvy6cutiO+Tz34wBAd7YKQOwchyRcxeG4exbRSNBTAUgR+wVPXqMa5LMf4skKAden2MJjP5xzQTUAiRjLukAW14UTd2LTD6RrPlscOH2M2bYVIEXcVQ6MT1gofRd2j2uZQsKeG2h5nMtuv1gNEmZvvfPZOymfY0gdqvOObS4BIEFjGUCezXXhVMXroNPcjwMA3dglAHGjDuNyHncQH8YyYkhW3AH/VNVD6DN6uPTohIXf61DRFWf52CGXppt4/u7fq4XUAKTsy0he+0tVIJNw6hoXkrXn1DFmAhBI220j+DDYnKl5LsjLcmBimOUT22LplZyOZkvCE+/VAExB3LAylgVrVSCJiz9PBqJDmgQgjJoABNJ0G3cR7wk+mLDndse/ns8WR0uPZiC2xTqKbbGu/BKMUjOg1pIQgKkaUxVIVtXBUxTn32n5CkCrBCCQlmbwcWJQLlMWg73rZ77FLAOQe7Et1oH5IKMSzsMPAmoAMjGm1ruqB6bBeYT0GILOqAlAIA2CD3L13E312/lskf3FVmM+yEdByGCaba5OvU8DkImxVIAUOVcHT0lVl2drbIICgLX9e4dDJQCB7t3EHTAXFtPIVLgB+v6Zb/14ZLsPBxNvGM/izX9473id6aHoU2hzFQKPMS0AAUBfxvb5dxKvH0lbuL7/1TmEZJjBxKi9uLu72/r1zWeL7f9l4Cl/BB9xMROyNp8tvq6xkP+NVkPLBCGduY2LK6d+7gDI3Xy2+D3O4BiLj+6j0jefLcIGp7e5HwdIRVWXL5wsxmqXFliFNhvQupt4wb7noh3+sk51h17BK4T3kdgay7D0dtw02hEeCz8A4A9jqwI5nc8WdiOnz/U9AK3YNQBx4w/tEHzA4y4efeZvh250H9cYlv5tbNnEZprv0eYwAcA/ja0V6cvYQomEhetXG3ggHfPZYt/pYqwEIDCs0EblB8EHPK6qy3UCEDe6awhzKqq6DG2xvomVDLejf9HDuhJOA8CzxjgH69jmmElQBQLp8J7LaAlAYBi3jTYqp84BPOvzGl9ztPQIK4XWTbGSIVykfrS7bkk4Hu9C1YzgAwCeNbYKkMLmmGmIVSDr3AcAwxOAMFoCEOhXM/jQRgXWt86N9es49JsNxDkhB7Eq5FPmVSHnjeBjjIs5ADA68Z5mjPNBQxXI3tKjpEaQBWnQAovREoBAPwQfsJt12mAVbpC2F6tCjmNVyHeZ7bYLwcc3oT2Y4AMAtjLWKhAtlBIXrlHNsANgFy/u7u62/tfjgJvflp4AHrq/YBtiB1IYfuzCn+TNZ4vQX/rNGt/HO4vY7Yi9sw9jsLTOsU9JCKZDe6vTeGMNAGwpVuH+MtLj943P+rTFSp7/5X4cYOTO47xJGJ1/7/KCwjDV+Wyx9Diw5MPSI/04F34wIZdrLsIfj3QXYnJitVoICc7ijedhnLWSchgSgo/TGHyoxgOAdoz52itcyxwsPUoyQoA1ny3OB7yvBp6n5SCjtWsLrCLzXuEwZj9I35mYdYdRv9fvuX2xRVYIDfbjvJAfiqK4TuhbuImvWStCAGhZrLAY69rA2/lsIQBJn419AGyljQDky9IjwJBuYwugU2eBKQlVhxvcWLtB6tAjYchYZ4aE4ONjVZd78TULPgCgG2OvAiFhMWTLaUYdpOatM8ZYtRGAWEiA8Qi7sQ/MP2DC1h2GfhjnV9CxRhgS2mP9J4QNce7R0LtAr8Iw9xh8WPQAgO6te502hNfz2eLYz0DybPIDYGMqQGA6Psfww+8kU7bujfXLOAuEHoXqihA2hPZ7VV2GAOrboih+6rlV1udYBRfeD8e8EAMAUzP2TVgnNsikLW70u8r9OMBYaUXNWO00BD1SAQLD+8mwczKxyY31kVZYw4qB7JfGgsNBHKQe/vm65RcXqk5OYnsEAKBncVD1TQef8W15Ga8NbZJJWziHv+Z+EGCkQgDifozReXF3d7fTa4rDxHz4wDBCi5kju5zJyXy2CD/v79f8lj9qfzROcXfQQePPNoslt7EVgtkeABm6D9ddC4/HfLYI110fRv4yv1U1n7b5bHFp3gCM0jst2RkjFSCQrtBS5tBuZzJ0uUEAcmzo5TjF966z+/PzIBAJw9XfPPHCb+LuvwvBB0C+wmfAfLb4Ghfdj30mjMJFAgHIabzeIF2qQGCc9hNoh0iGdq4AKf5ctNj9PwJs4txNHrmKC+X/2+DbtwslQY2WWfvxn29jz+dTO30BaIqfGeGz4VJb2GHFc/F/CbzUH6q6NFA7YSH8HHG7NciV9uyMUlsByO+xnybQPS19yN6GNzyfq7o8XHoUAJiMuPB+v7P/xPXycOazxZdnKjnHILTR3LOhLF3z2SLM+/sl9+MAI/Opqktzlhidf7X0gvTPhO7dxH61bubgz12e63ofq0YAgIkKC9lVXR7FEOSXMCMgzqukfyncr7yMPyskKt4X3zh/MCr7Tgdj1FYAYtcEdOtz+CAxrA/+smkLJLtQACADsa3Rd3ER5ldByCBSaT36wc9G8oRYADxLBQiM221seXWoPBv+Fmd63G5wSI5iawwAYOLirKiwsH0dZ0iFIORCRWg/4qatVHbmn7lGTNrZhvcEQLdUgDBKKkBgvMIN24GWV/CoTXYXhjYHR0uPAgCTFBfhQwhyFb+/90VR/G8+W5wJQnqxabXuUF6rFE5X3CSoCgTGw3xoRkkFCIxTGByl5RU8TRssAOBRcS5ICEHOG1/zQRDSi1QCkODH+Wxh13K6bBgE4EkqQGBcQvnuu6ouLdTC8za9sX49ny0Olx4FACYtDkf/+OB7FIR0aIt2pUOziJ6oqi6/Pgg5gQGZrcQYtRKA2KUOrQiDzvfizQLwjFjyfv30Vy0RLgJAhmJb2XcrFuUFId1JqQrkzXy2OFl6lFRogwXAo9qqAAG2F27CvjPoHLay6Y31W4sbAJCnuNFo/5ENFPdByKmh2K1JKQAptMJKV9yUezXV7w8S436b0WkzAPFhA5sLvzdh1kdqNwcwFtv87tjdBwCZiu1yDmL19SrfF0XxNVQDCEJ2E+9xUmqDVWiFlTTnDsZBAMLoqACBYYQbgR/CUMZ4EwZsIe722vTG+oMFDQDIVxyOHuaCfXrkILwM1QCCkFaktiitFVaiYpu7m9yPAwDL2gxAzC2A9dxXfehTCu3YpgrELBAAyFxVl8crhqM3CUJ2l+KufK2w0qUKBIZnCDqjowIE+qPqA7qxTQBytPQIAJCduGv822cqSv8RhCw9y6NitW6Ku/IvBF5JEoAAsEQFCPRD1Qd0Z5vPn9fz2UIIAgDcL9I/Nhy96WWsDvjqOmIjKd4DvTY3Lj1xo+F57scBBiY8ZnRUgED3flL1Ad0JfbxjyLgpCxcAwB/WGI7eFBbHfxGErG2bat0x+H4+Wxwm+tpzpgoEhvXG8WdsXtzd3bX2kuazRXv/MUhfKPU+qupSdRR0bD5bhB7eP2/xt3wbd30CAPxhPluEioXvNzgarvufMZ8tQgjy/umvGqXQGm0vbrghESGcjEElMICqLl847oyJChDoxufY8spNEPRj2981w9ABgH9YYzj6Q2Gh9df5bHE5ny0Mf10t1V35LxOuYMmZ1tMwoPlsse/4MyZtByDbtCCBqQmDzg/tEoL+7DBg84MBlwDAQ3E4+rtnhqM/9LYRhFj8aajq8iLRYejBW8Pvk6MNFgzLPTajogIE2hNujt4ZdA6DUQUCALQmVnMfrDEc/aEQhPw2ny3O5rPF3tKz+Up5UfpHoVY64mZEw9BhOAIQRqXtAES7H3J1FXvD+h2A4WzbnsDwUgBgpVhlerBlt4MPRVH8L1QPqDj9Q+q78i+cx6RoXQbDERgzKipAYHefqro80PIKBrdtAPl6PlsIQQCAlcJ1frje32FH+Y9FUXzNvY1SVZdfE9+V/1prpXQk3nYNgBapAIHthZZX38UhicDAYgj5ectXIQABAJ5U1WW4Xvjhqa95wsvYRulr5hsvUg8Q3uceZCVGYAXD0P6RUVEBAtsJfYAP4q4SYDy2DeLf6usMADwnzvv7uOFw9KZQRfBLHJR+sPTsxMWWwdu0ExuTH3M8d4kSgMAwBCCMSqsBiPkHZOJzDD++OOEwOruEkqq5AIBnVXV5FueCbBuCFHFQ+q/z2eIiw0Hpp0uPpMc8kATEtmvXuR8HgNypAIHN/FTV5aF5HzBO8SZn216/H9zIAgDriJuh9ltYXH2f26D0icxmeKkFeDKmELhBat46Y4xJFwFI6uWssMr9vA/9XmH8dqkCMQsEAFhL3Hhx0NI98P2g9FyuRaZwX/VmPltosTR+2lYDZE4FCDzPvA9Iyy678bTBAgDWFirDq7oMIch5C0ftZZwP8mXqMyZiG7HUq0CKWEFsA82Ixe4Nn3M/DtC3DNs7MmJdBCDmIjAlV+Z9QHJ2CUBez2eLw6VHAQCeUNVlWAT/4fGv2MibTOaDTKW6PoRW+0uPMiY2M0L/BCCMRhcBiNkITMV52M1l3gekJf7O7tKKQhUIALCxqi7DrIGPOw5HbwrzQUI1yCTb8E6oCiS4NEtuvOLPWlu/lwAkRgUIrPYx7uIC0rTLLq+3ynUBgG3EhdaDFhdbQ1usH+ezxdeJtsWaSrhjKPr4qQKBfqmMYzRUgMA/hRuVd/HGBUjXrjegqkAAgK3E9rkHcZZgW15PsS1WvO9qY4j8GBiKPm4CEOiXqjhGQwUI/O1+2LmdO5C4uPCwS0uFI20MAIBtdRSCFBNtizWl7yUMRbeRZoSqurzQBgt65X6a0Wg9ADEvgURdG3YOk7NLmBnaGBiGDgBsLdwbV3UZWoCct3wU79tifZlCW6y4Ae3z0hPp+nmi7cqmQBUI9EcLLEajiwqQooNdLtClMOx8X3gHk7PrDY7dewDAzuJswU8dHMk3sS3W2QQqV6d23RValVn8Gx8BCECGugpALCSTip8MO4fJ2rWd3Ru79wCANlR1GRb4P3Z0MD8URRGGpCdbvVrV5ddwb7b0RLpClc4Ugqmp0e4a+iMEZjS6CkC0ESIFH6u6nFK/WaAhVnXtWpEoIAUAWhEHfn/saA5BWHD/73y2uEx4SPrpjjPcxuaNioNxifcHU2q3BmP20tlhLFSAkKNww/Eu3oAA07brTecHO/cAgLbEe5CDDocxv41D0pNrKRUXp6e2+eRtaFG29ChDEkoBZEYFCLm5jcPOlb5CHtq4wTELBABoTVWXX2II0tXszJdxEHdy1SATHIhexA01rifHw1oA9ERLacZCBQg5CTcY+/GGA8hA/H3fdYelNlgAQKt6CEGKRjVIam1/jzqskBnKzynPaJmSOG+my987AEZGBQi5uI6VH1+dccjOrru8XrthBQDaFls+HXRc8RCqQX6czxZfUqkGmWgrrCIORTcUeBy0wYJ+pDqTionpJACJFywwFucx/PBzCXlq4wZHFQgA0Lpwj1LV5WG8Z+nSm5Rmg1R1Ga7fPi09kbYQRl2aLzcKAhDohwCEUeiqAqRQUshInFd1eST8gKy10ef3fWo9tAGAdIR7lh4W/FObDXIywXUFIcgItNQmF4BEdBmAWHBmaD/FGwkgY7H13U0LR8DwSgCgM1VdhmuNjz0c4fvZIKO+V2q0wpraQvUbFQijYBg6dM8QdEahywDErAWG9LGqy9SG/QHd0QYLABi9qi7PegpBQiXCL/PZ4mLk1QhTXVd4O58tzpYepU8CEIBMCECYoo/xxmFn4WYgDD8OF6dhcKCfFkhWGzc4L8e+UxIASF+8l/m2p8qH97EaZKy7dA9jWDNFH+azhU17w1GFA93T7o9REIAwJeEG4btdw48YehyF3VBFUfxfURT/DRenRVGcLn0xkIq2dngJQACAzsUZBQc9hSCvi6L4daSL8VNvn/KjDTbDaLFNLvC4N48+Az0SgDAV4cbgoKrLrXZxxNDjOAwEjKHHL3E31L3btqpKgP7FHtJXLfzFbw1DBwD6EEOQ/R4HgYfF+C8ju9Y5XHpkekIrshy+zzHS5QEgAwIQpuA+/Njo4mVFpcfPcSDgKqo/IH1tVYFoVQAA9CLuUj/oMQR5E1tiDb4gP58t9ifc/uqhs/j90i9zQKBj3tsYg84CkHihBl3bOPyIMz0uHqn0WOVWAAKT0NYNzuHIh4UCABMSK1n7DEFC6PDf+Wwx9D1QTotm4ZhfWijsnQAEuufemcF1WQFS6KdIx67XDT/ChWQcZP57nOnxXOjRdBpvOoCEVXV52VIf7ZeZtGMAAEYi3I9UdRkWx897fEXfx5ZYQy1e5RYGhGvMCxtt+rNpFwlgK97TGFzXAYgqELrybPjRmOsRfg5/i4PMNy2hVv0B09LWLq/jpUcAADpW1eVRzyFIaIn1dT5bDDGMPMdqiNexEsSCYX/amBMIPE5lG4MTgJCi+/BjZVXGgxZXP8eLyG2p/oBpaSsAeaNFAQAwhBiCfOrxrw6byH4Nm8uWnunWY/MZp+6NEKRX2mABTNy/O/72BCC0bWX4MZ8t9oqiOIp/dgk8mlR/wPS0eYNzHN9zAAB6VdVlqHT/Emca9uXnuAHkuOtNYvH+LmchBDnTdrUXj3aVAFqR+/s5I6AChJQshR+hFDtWe/yvKIofWww/ij4u7IF+xbZ5bcwBKQxDBwCGVNVlWCD/2PNL+NBTdYIFs6J4H+ZYLj1K2wQg0C3v5wxOAEIq/go/Hsz2+HXDgebruok3FMD0tFUFYhg6ADCogUKQ+7kgXbYDHWLmyBh9EIJ0q6pL61YAEycAIQXX8QL4Vbz4+9rCbI/nGHAM09V2GywAgMHEEOTbFqtc1/EyVoJ01Q7UjuG/CUG6ZxA6dCfXeU6MSKcBiCSdFlzHORz3ba4+xIvtLl1VdXnh5MFktRmAGIYOAAwutvk8GCAE+WU+W5wsPbM7Acg/fejoOPMnbbAAJqzrCpDgZukRWN9eHOzXZ2JsRzdMWMtzQArvGQDAGAwUggQ/dlChYMfwsh87rLjJndmf0KH5bCHUZlB9BCCqQNhF19UeD32KNw7AtLVZBWIYOgAwCgOGIKFCoZXh6BbKnvSLEKQTbd4bAMu8rzMoAQj8LdwkKCuGPLR5k2MYOgAwGjEE2YvthPv0Ns4F2TUEsVD2NCFI+1SAAEyYAAT+dlLVpQsfyEPbu7y0wQIARiPe1xwMEIK8iSHILiHGwdIjPCQEaZEuENA5czMZVB8BiAVlUnBd1eWpMwV56GAOyBvtGgCAMRk4BPkyny22ynoqpwAAIABJREFUXfByTbUeIUi7zK+F7mgZzaD6CEAk6aTA7m3IjyoQAGDSBgxBXsZKkG1CEAHI+oQg7dG9BLojAGFQKkCgKM6rujT0DPLT9u+9m08AYHQSDEHeLj3CU4QgwNhpgcWgOg9A9FJk5G7t2oZstf359NLNJwAwRo0Q5Lznl7dRCLJD26zcCUF2Z1MkwET1UQFStNxnHdp0bPA55Kmjyi83ngDAKIX7nqouj0YegghAticEAcbKezuD6isAUQXCGF1VdXnmzEDWrlr+5t8ahg4AjNnIQxCLZLsJIchJyt8AMEkvnVaG1FcAYoc9Y6T1FaAKBADIzohDkKeeYz0/zmcLG/02Z90KYKJUgJCrn8ynAQQgAECuBg5BHquYNQC9HR+EIBuzPgAdms8WB44vQ1EBQo5uiqI4deaBjuaAvJ7PFodLjwIAjMyAIcjFfLZ41XzQ4ljrhCAAZK9QAUKmjgw+BxrangMSCEAAgCQMFIK8iZUgzRDE9VP7Qgjy8DgDDOGxyj/onAoQcvO5ox3fQLq6COk/uNEEAFIxYAjSrFAQgHTj7YqwCaBvAhAG00sAYtYCI3Fr8DmwQlehqFkgAEAyBgpB3oc2TbH91eulZ2nLmzUG0APAJPVVAVLExWcY0klVl1+dAeABAQgAwHAhyIcHlSB0QwjyNLvToVvmPDGYPgMQVSAM6bqqS4PPgSVxJtD10hO7e+MGEwBIzUAhiOqPfryMIYiNOssEIAAT1WcAYg4IQ9L6CnhKVyG9m0sAIDkDhSD0I4Qgv8xnC/fIQJ/MIWIwKkDIwbnB58AztMECAGgQgkzez2H+Su4HoUEFCHTrjePLUFSAMHUGnwPr6CoAeTmfLQ6XHgUASIAQZPI+zGeLL/PZws5sAQjAZKkAYepOY39/gEdVdfm1KIqbx57fkSoQACBZQpDJC7uyv5hdJwCBrnmfYSh9BiDQt5uqLk8cdWBNXVWBvLerDgBImRBk8l7nPBw9XqsbxA/dc1/MIHoLQMxgYABaXwGb6LJSURUIAJA0Icjk3Q9HP83we7crHfohAGEQKkCYqquqLi+cXWADXQb1AhAAIHlCkCx8P58tLjOrYD5YegTogrCRQfQdgFwtPQLd0PoK2EhVl6EC5Lajo/ZGv1MAYAqEIFl4WxTF1/lskUswIAABmDAVIEzRuZZrwJZUgQAAPEMIkoXQEuvX+Wwx6c2FsdLl7dITQBf2HFWG0HcAYlGaPqj+ALZlDggAwBpiCKLLw/T9GFtiTXXh8nDpEaArAhAGoQKEqQnVH1+dVWBLXQb1L+ezhRssAGBKwrXNtTM6eaFC4st8tpjihp7jpUcAmBQVIEyN6g9gaz20zxOAAACTUdXl73F+ghBk+kJLrF/ms8XFVAakxxknb5aeALqi3RyDUAHClKj+ANrQZSuHD1O5YQQAKIQgOXofB6RPYWOPDZQAGeg1ADGYmo65eAHa0OUckEIVCAAwNUKQ7IRqkP+mPBskBjh2o0PPJjxPiBFTAcJUqP4A2tJ1WG8YOgAwOY0Q5NbZzcb9bJCkNiPGiuzTpSeAPghA6N0QAUiXrUXIl+oPoC1dByBv7XoBAKZICJKlUA3y43y2+BpnaqTgrCiK17mfOIBcqABhCq5UfwBtiTfuNx0fUG2wAIBJquryixAkSyFQ+DW2xdof6wGYzxZncY4JMIzRvj8wXUMEIOaA0Dalq0DbtMECANiSECRroS3WbyFoGFvVcww/Piw9AfTplaNN31SAkLqbqi4vnEWgZV0HIG/GvDMOAGBXMQQ5diCzFYKG/40hCAkzP+azxYXwA0ZBAELvVICQOtUfQBe+9HBUVYEAAJNW1WXYcf/RWc7afRByMcSMkLjp6FLbKxgNGwHpnQoQUqf6A2hd3LHYdcsGc0AAgMkTghC9jzNCwrD041CV0eWBiVUfYcPkb6H6eukLAMjGEAFIH7tqycNnw8+BDnVdsfhaGywAIAcxBPnkZBOHpf9cFMX/xaqQozbDkBh8nBRFEdYKvl/6AmBo7oHp3b/7/guruvx9PlssPQ5bUP0BdOlLD6Xyx1phAQA5qOryfte/OQzcex///DKfLa7iBqTLqi432ogUf64O4x+trmDcXjo/9K33ACS6VoJICwQgQJfCjdePHf8d2mABANmo6vJ+t79Fah56G//8GDfN3sQqjrAp6felr/5TmCmyF6tKAGClF3d3d6se79R8triMH2ywrdD+ysIh0Kn5bNHHh+R3VV0KdAGALMQA5NKmSIBsvdu00gt2MdQQdHNA2JXFQqAP1z38HcJcACAboS123Lnfx3UWAJC5oQKQx8oXYV0CEKAPfexKEYAAAFmJIUi4Brp15gGys+eU0ycVIKToOl4wA3StjwDk5Xy2EIIAAFmp6vJrrAQRggDkRQBCr1SAkCJ9AoG+9BXYC0AAgOxUdRmutY6ceQCgKypASJEABOhF3Jl408PfJQABALJU1WVob/zR2QfIxoFTTZ8GCUC0L2JHAhCgT32E9tpgAQDZquryrCiKT34CAIC2DVUBElwvPQLPuxGgAT3rK3QVgAAA2arq8rgoinM/AQCT98oppk9DBiAWsdmG9mlA38wBAQDoQVWXRzZLAkzeG6eYPg0ZgFjIZht+boBeVXXZVwWINlgAAH/2hheCAACtUAFCagQgwBD6ugkXgAAAWYstj0MlyG3uxwJgquazxb6TS19UgJAawRkwBHNAAAB6UtXll1gJAsA0mQNCb1SAkBrBGTCEvt57tMECAPg7BPnoWABMkgCE3qgAISmxHBqgb31VgBSqQAAA/lTV5VlRFJ8cDoDJ0QKL3gwWgFjIZgt6wAKDqOrya4/vQQIQAICoqsvjoig+Ox4AwDaGrAAJbpYegcepGgKGpA0WAMAwwlD0a8ceYDL2nEr6MnQA8nXpEQAYJ22wAAAGEDtIHOoKADAZAhB6IwABgPX0WYUmAAEAaIgtSV0jAQAbEYAAwHr6rAAJbbAMhQMAaKjqMlyPfXRMAJL31imkLwIQAFhDbL3Q5+yqo6VHAAAyV9Xl/7N3P0lxXFnfgLM7eo6+FYheQAb0CkSvQPQwR8IROTdegdAKjOcZYTTKYaMVGFZgiFxAwwpesQJ/caWLVKIKqCry/32eCMLqQm3DTaiqvL97zjnLsuxj6usAAKxHAAIA69MGCwBgYFVTGIoOMHFlXpsDQi8EIACwvj4DkNfeEAIAPOrAUHSASXO/Sy8GDUDiEDMAmIo+54BkqkAAAFaL7UkPVn4SACAaugIk67mfOtP2yvUDBtZnBUhmDggAwOOqprgyFB1gsvZdOvowhgBEFQjr2rNSwJAGGIS+V+a18BcA4BGGogNMlntdeiEAAYDN9F0Fog0WAMDTjg1FB5gcAQi9EIAwKWVeK48DhiYAAQAYkVile2goOsCk2OOjFwIQpkY6DAyt70HohnsCADyjaoob89MAgIcEIEyNdBgYWt8VIDtlXgtBAACeUTXFeZZlH57+WwCMhD0+eiEAYWp2XTFgSAMMQs+0wQIAWE/VFCdZll1aLoDR23GJ6MPgAUgsU4V1SYeBMei7CkQFCADA+swDAQC+GEMFSDbASVqm641rB4xA3wHIXpnXKuAAANawMBQdgBHT7pk+jCUAUQXC2sq8VgUCDK3vQeiZKhAAgPVVTXFhHggAMJYA5PPSI/A4m4DA0IYI7p1iBADYgHkgAKOn0wGdG0sA0ncrEaZNAAIMKs6v6ruvtOc+AIDNHZkHAjBaAhA6pwKEKbIJCIxB3+H9jhaAAACbiQdXjiwbAKRJBQhTZBMQGIMhXru0wQIA2FDVFOdZlv1m3QBGxyFnOqcChKmyCQgMbYgAxJtDAIDthHkg19YOANIyigCkagoVIGxKAAIMbYhB6G+WHgEA4FlVU3zWCgtgdF65JHRtLBUgmaFkbGivzGuDkoDBVE1xMcR/u8xrATAAwBbi4ctfrB3AaOy5FHRtTAGIKhA2ZRMQGNrtAP99bbAAALZUNcVplmWX1g8A0jCmAMQcEDalfBkYmjkgAADTc6QLBcA4lHm971LQJRUgTJk2WMDQhnjtCs99+qQCAGypaoobB+oARsP9LZ1SAcLUaYMFDGmo8F4VCADAC1RNcZ5l2SdrCDA4AQidUgHC1Dm1AwxpqPBe+AsA8HJaYQEMTwssOqUChKnTBgsYTNUUFwP9t1WAAAC8UNUUnx2qA4B5G00AUjWFChC2dWzlgAHdDvCffi38BQB4Oa2wAAbn3pZOjakCJFN6ypac2AGGdDPQf1sVCABAO7TCAhiOAIROjS0AUQXCNnbKvNYPHxiKNlgAABOmFRYAzNfYAhBzQNiWN6vAUIZ67RKAAAC0RCssgMG8sfR0SQUIc/FWP3xgIEO9dpkDAgDQrmOtsABgXsYWgMBLGIYODGGoGSCZKhAAgPZUTRHe151YUoB+OdxHl8YWgAzVR5150AYL6F28UR6KAAQAoEVVU5xmWXZpTQF6JQChMypAmJMwDF0IAgzhdqD/rgAEAKB9ugsAwEyMKgCpmkIFCC+lXBkYwlBVIGEOyKulRwEA2FrVFGHG2wcrCNCbfUtNV1SAMDdhM9CJaKBvQw1Cz1SBAAB04nTAKl+A1DjYR2fGGIDotclLqQIB+vZ5wBUXgAAAtKxqis9aYQH0RgBCZ1SAMEdvyrw2PAnokwoQAICZqZri3CFNgF5ogUVnxhiAmANCG1SBAH0asgJkb+kRAADacmQlAWC6VIAwV+9UgQA9GmoI+hdmHwEAdKNqihsD0QE6pwKEzqgAYc5UgQC9iDfGQxKAAAB0JwxEv7O+AJ3ZsbR0RQUIc6YKBOjTkDfFAhAAgI4YiA4A0zW6AKRqChUgtEkVCNCXIQehKxcGAOhQ1RRnWZZdW2OAbmjtTFdUgDB3qkCAFOyUeS0EAQDolioQAJiYsQYgl0uPwPZUgQB9GLICJFMFAgDQrdixwn4FQDccYKYTKkBIgSoQoA+fB15l5cIAAN07ssYAnbB3RyfGGoCYA0LbVIEAc6cCBACgY1VT3GRZ9tE6A8A0qAAhFapAgK4N3QJrr8zrV0uPAgDQNgfsANqnqwGdGGsAMvQmEvPkTSrQpaFbYGWqQAAAuherQH6z1AAwfv8Y6Vc4hk0k5idUgZzEN6sAc3SgjSQAsI1YMb/4kcXDFU9VmN7Ej8U/3yRyz3US54HsLH0GgG089XoDWxtrAKIChK6cKakDZkwFCADwrBh2HMSP8Oc3W67ayv9fmdfhH9fx3v7LR9UUszqkUTXF5zKvT7Mse7/0SQC2sWfV6MLf/vrrr1EubJnX4/zCmIN/z+3NNzAOI3jtuquawqkZAGBJmdeHWZYdxtDj9dJf6MdllmXnoWK1aorJH3yM89duVIEAtKNqir9ZSto25gDkSvJHRy6rplAFArRuJOH9P7X6AwCyr+9NQnXocQw+xrZJfxvDkLMphyGhzbIqEIDW/GsOATnjMtYh6Jk5IHToTZnXRxYYmCltsAAgcWVeH5R5Hare/wyzEEdaoRCqUH4OX2M4ABnu0WJFxdSENlh3E/y6AcZIRwNaN+YARNpHl04m+uYa4DkCEABIVKj4iMHHH4/N5xip0P3h99BOKlRUTOleLcwCibMmAXg5e3W0TgUIqXodS8EB5kaLPwBIUGzF9OfEgo+HdmI7qRCEnMVh7VNwOpGvE2DsHOijdSpASNmxKhCgZWNof+ANIwAkJNzTxBmac5pDsRNbd/1vChUhcf7ax6VPAACDUwFCynac1AFaNobwfmdCpyUBgBeIQ85vYgupuXo/kdZYJ0uPALAp97K0TgUIqXsXBgSmvgjA7KgCAYCZi+HHxUgHnLftvjVWGJZ+OMYvMFaBfFr6BACbEIDQutEGIHGQGPTBSR1gbgQgADB/+wkeHAyzHP8bBr2PtOJVhwEAGJkxV4AE10uPQPvelHl9ZF2BGRGAAMDMVU1xVjXFQdUUf8uy7F9Zlv2WZdltItf9zf18kKXPDKhqigv7GAAv8sby0baxByCqQOjLqYHowIwIQAAgIVVTXFVNcVw1RaiK+E+WZZeJfPfvwwD42A5sLFSBAMCIjD0AMQeEvuxohQXMyGuhLgCkqWqK81AZkmXZvxOpCAkD4P8cSzVIqMzJsuxu6RMArGWkLQ6ZMBUg8N3PBqIDM6IKBAASFtsx7SfUkul9nA0yhkMgZ0uPALAuAQitUgECP1KuDMyFAAQAElc1RThUeJBQRULoHX8zgoNt7isBYCRUgMCP9sq8Pl56FGA9YzqpIgABAO5DkJQqEkJ74z+GvK+rmuImy7JPS58AYB3uZWnV2AOQm6VHoHsn+g0CW3o9ooXzPAYApOzXMq+HDH60wQLYjnmWtGrUAUg8NQF921GyDMzAGxcRAIgOE12Id2VeXw0xFyQMo09kCD1A2wQgtGrsFSCZNwwM5G2Z16neJAAzoZoNAIitoMZUpdq3vSzLhhqOfr70CADP0QKLVk0hAFEFwlDOBnqTDNAWAQgAJCwehjjxM/AtBOl7U01nAQAYmAAEHqcVFrC2kQamB0uPAAApOY/3NQwQgsS23tdLnwDgKSpAaJUABJ4WesbaQATWMcY3aSpAACBRZV6fxk1/vtsZoB2WQ3UAmxHc0yoBCDxPKyxgqgQgAJCgOM/wZ9d+pb5DEHNAAGBAAhB43mt9c4GJeuPCAUBa4sb+mcv+pN4Go1dN8TnLsk9LnwDgUbqx0CYBCKznZ0++wDNG+RwRh58CAOk41j5kLXs9BkWqQABgIKMPQOLQMBgDrbCAKRKAAEAi4v3Kseu9trdxVkrXBCAAm3EfS2umUAES3C49Av3TCgt4ylgD0jEOZwcAuqH6Y3M/x5kpndEGC2BjAhBaM5UARBUIY9H5m2NgssYaNKhcA4AEqP54kbMe2oaqAgGAAQhAYHNaYQFTYn4RAKThUPXH1nZ6CCgEIADrcx9LawQgsLmdHoflAdPxZqRfqdJhAEiDdr0vs1fmdWdrqA0WAAxDAALbCcPyjqwdMAGvXSQAmLcyr/e95rfifVzLrqgCAViPziu0RgAC2zvtoU8sMAFlXo+6PNdzFQDMnjmF7emy2v9i6REAVtlb8RhsRQAC2+ujTywwDWM/nSIAAYB50yu9PZ21wqqaIuxtXC99AgDozCQCkPgmAcao0z6xwGR02SqhDWP/+gCAl/Fa367jDitoHaIDWEPHLQlJyFQqQIK7pUdgHN6Pvf0N0LmxvzHTPxUA5m3H9W3VTodD5QUgAOtxH0srphSAXC09AuNxXua1J2ZI19hbTAlpAQA2866LKpCqKa4c8ARYi302WjGlAOTz0iMwHjsdD8sDxs2ANgCA+enqHk8VCMDztMCiFSpAoD1vy7w+tp6Qlon0JX2z9AgAAM++h+qo3fHF0iMAQCdUgEC7fjWkCZIz9vZXAABsr4tDbgIQgOe516YVKkCgfeaBQFomEXoKZwEAtvK27VkgVVPcZFl2u/QJABYJQGiFChBo32vzQCApUxkwLpgFgPm6dm07ddLBv1wVCAD0YDIBSNUUKkCYknBKqIs3ycD4TKWywukZAJgvBwa7ddhBlb8ABOBpZlnSiilVgAR3S4/AeL3vaGAeMBKxHcLORK6HAAQA5stmerfC+73Dlv8LrhkA9GBqAYgqEKbGPBCYtymFnJ6LAGC+3Ct3r9Vh6OaAADyv7RlMpOkfE/uulfUyNTvxZI/hwzBPU/rd9jwEM7VhxelN3HQD5kUA0r29Mq/3W27PHe4V3y09CsC9EIB478qLTC0ACW803i49CuMW3iifVU1x5DrB7GhzB7QubLDFqq37f75aCDHDn/de8t8s83rxf94u3FRexQNHX/5ZNYX2LDARIdgs8/puQq05p+qo5UqQKwEIAHRLBQj0412Z1xdVU5xZb5iVF21C9kwFCIxILOffjUHq/Z/3B9i8fB0/soeDJmNQchc36C7iP69UkMBoXTgw2LnDlgMQQTPA0/Y9V/JSU6wAgan6vczrq5ZLpoGBbNhyZgycCIWBxIqOhx9T+Z3cicHIt3CkzOvbeCMaPs6rpnBICcbhXADSuddttsEK/54HVXkA/MgsS15MBQj06yKc+LRRALOg/RWwUgxI7z+mFHas63Vs2fIuHvD4FIMQla4wLCdk+3HY8uHMy4cVeAB8IwDhxf72119/TWoVy7ye1hcMy67DhogQBKYttLWb4M3qv/X0h/Y9CDxS3sQK7bJOw4f3OTCMUHE+sRadU3RdNUVrrUXLvD7Jsuz90icACC6rpnD4kBeZWgUIzMFe3BwwFB2mzUk9SFSc33EQTwEfaDH3zU7cxDsu8zqEICdLfwPo2oUApHN7ZV6/ajHo1SIZADo0xQBEeShz8C7OAzl1NWF6Jjj/A3ihGHocxgMMNhef9iUIic+Vh6pBoFehFd3PlrxzB3HmShsEIACPa63ijnT93bWHwfxa5vWh5YdJmurvruAGNhBCjzKvj2NLmf+F127hx0bemEkA/YrDuW8te+dae09VNcXN0oMA3FNpzYtNMQBxE8WcnJV5Lc2G6REkwEyFtiZlXh8JPVoTWsVo+wn9OrPenWv7veDl0iMAQCtUgMCwQpJ9ETZbXAeYhtgGx2YozExo11Tmddg0/L8sy373e96q3Rl9LzAFApDu7bV8D6cNFsAjtKDmpVSAwPCEIDAtU37zZRMSFsRqj9DiKrQf+SPM6LI+nTADBHoUWyp9suada7OSXwACAB2Z4hB0mKO9eFLLTBAYvyn/ngpA4Hsl14nAoxe3TqPDIE6zLHtr6Tt10OIBTXNAAB7nPpYXmVwFSNUUKkCYq7ex9QYwUrFSy2YCTFRsc3URZ3sIP7p3HULjqilUgEDP4n3ztXXvVGsVIPY5AJ4kAOFFzACBcXkXWnG4JjBaqrRgguJQ84vY5uqNa9iLsPF6UDWFti4wnFNr36m2N+Rulx4BAF5sqgHI5dIjMB+/ho0a1xNGaeoBiFlDJCUGHzdxqLngoz93MfxQ+QEDqprizKZ6p/Za/pdrgwWwmiHovIgKEBin30ObDtcGxmMm7a/avlGHUYqtrq5i8PHaVeqV8APGRYvdDpV53eYgdG2wAKADUw1AvDEgBectv6EGXkb7Kxi5hRkffwj8BnGn7RWMzmn83aQbbVbXCo4BVtPJgBdRAQLjtRPCPiEIjIbWdDBSZV7vlnl9bsbH4I6FHzAusRrLLJDutFm17/kTYDUHm3gRFSAwbiEEOYutd4CBhM1Vm6owPuH1sczrkyzL/jeDFnVT9zHOGwDGRxVId9q8TzMDBAA6oAIExm8vVoIIQWA4x9YexqXM68N4Wva9SzO4W8+TMF6qQDrVWrV+1RQCEIBH6I7CS0wyAKmaQgUIqRGCwLC0v4KRiO2uwnvB/xpwPhonhp7D6KkCmYbr1BcA4BH2w9iaChCYjj3t36B/ZV4fxXZ0syBIZcrKvD6OVR9a0o3HrdZXMH6qQDrT9uuRMBlgNfexbG3KAcjl0iMwf3tlXttkgH7Nra2L0mEmZ6Hq49c5BZIz4X0JTIcqkPFz4A1gNfexbE0FCEzPOyEI9KPM64NYfQUMRNXH6Nmsg4mIVSDm9bRMdS0AjNuUA5CrpUcgHUIQ6MeJdYZhhA0lVR8A7Yot624ta6vaPJUsVAZYbXflo7CGKQcgemOSOiEIdChWfzhxDgMo8zpsJt34HQTohAMeAEyNAIStqQCBaROCQHdsDsAAyrw+yrLsT1Ufk3GY+gLA1KgCGTX7HADQMhUgMH1CEGiZ6g8YRnw9+93yT4oABKbpyHVrzUFb/6I4pwWAZe7P2ZoKEJgHIQi0S/UH9Ghh3sc76z45r+OgemBCqqYIz7mXrtkoqc4BgBZNNgBxMgKWCEGgBao/oF8h/IhDX/3eTddJmdf6MsP0CC/H6Sb1BQBYxftNtjXlCpDgeukRSJsQBF7u1BpCPxbCjz1LPmlhXst56osAU1M1Reiq8NGFA2AiBCBsZeoBiCoQWCYEgS3F4cs2YqEHwo/Z2fP+AyYptP28c+lG5SL1BQCANk09ADEHBFYLIch53FwC1hB/X1Ko/vDayeCEH7P1zjwQmJaqKW5Uv77Y/sS/foCp8HzLVlSAwHy9DZtLQhBY20ls4zJrZmgxNOHH7P0aq+mAiaia4sTg7Rdp+37LezWA1exvsRUVIDBve0IQeF4cfP6zpYJuCT+ScVrmtRN6MC2Cy/GwzwGwmr0ttqICBObvPgQxLAoep/UD9ONU+JGEHQcwYFqqpgjh9CeXDYARc8CGragAgTSEzaYrpzFhWZnXJzZkoXvxd+2dpU7GjkG+MDnHBqKPgoOeANCiSQcg+pjDRu5PYwpBIIq/D++tB3SrzOtDv2tJ2ivz+iz1RYCpiAPRT1ywYVVN4aAnwGr2s9jK1CtAguulR4DHhBDkT8NJ4dssgvPElsKAU3oXg0ab4Ol6FwMwYAKqpgitCi9dKwBGaMdFYRtzCEBUgcDmfheCwJdZBK8TW4abpUege2duVpJ3ZhYZTMqxywUAzMUcAhDlobCd37WlIFUxADSLADpW5rWh52QxAPOeAyYitmD64HoNShUOwAplXh8sPwpPUwECaQttKc5jKyBIQmzHc+pqQ7fizcnPlpnojepTmI6qKU5swgMAczCHAEQ7D3iZt3E4utYUzN7C3I9U2/GomqQX8XfNiX8eOnXoAiYlhJZ3LhkAI2Lvio0JQIAstie5iifjYc7OE5z7sUjVJH05Sfx3jdV24s8GMAFVU9yYBwLAyAhA2JgABLgXNiX+1J6CuYozb964wNCtGKZrfcVjflZ1CtNRNUV4//TRJevdRWLfLwB0ZvIBSDyVArTn9zi0FmbD0PNv3EzTB68hPEcVCExLqAK5ds0e5YANQH8MQWdjc6gACW6XHgFeIpzOvNCnmzmI4cfvLiZ0L/6+2QjiOe9UgcB0VE3x2TwQAGCq5hKAqAKB9r2lCRzYAAAgAElEQVSJw9HNBWGy4s+v0+jfeb2ka072sy4tN2FCqqa48nsLwAg4qMvGBCDAU/aEIExV/Lm9iPNt0DaSjsXqD4PPWZfByjAxVVOcZ1n2wXXrxVUC3yPANvasGpsSgADPMRydyRF+rKRdJF1T/cEmdry3gOmpmuLEUPRefE7gewSAXghAgHWF4eg2txg94cejvFbSGdUfbOnQwsH0VE1xZCg6AEPRpYRNCUCATbwv8/rMcHTGSvjxJK+VdElAzjbeek8Bk3UgBAFgIN4/shEBCLCpd3EuiBccRkX48SyvlXRC9QcvpAoEJqhqis9CEAAGYj+KjcwiADHUFXoXhk7dKDtkLIQfazFMk66Y48BLHFg9mCYhyHcd3BfZ4wB4nL0oNjKXCpDMcFfoneHojILwY21upGldmde7WZa9sbK8gAoQmDAhyDetnkZ2yBMA2jOnAMQbBBhGGI5+Zu0ZQgzghB9rqJpCBQhdOLaqvNCOilKYNiEIAD3bteBsQgACtOFdmddX8SQw9CKGH78LP9ZyOYGvkWlSBUgbtMGCiROCANAje09sRAACtCXMBQkhiE0MOherjn630mvzGknryrw+FEDSEhUgMAMLIchH1xMAGIs5BSCflx4B+hY2wv4o8/rEytOFMq9flXl9HqqOLPBGtL+iC2Y30BYBCMxECEGqpgjVgR9cUwA6YgYhG5lTAGJzB8bjfZnXF2Gz2jWhLbHFWpj38daibsxrJF0QgNCWPSsJ81I1RTgQ9Z8sy+5c2q3dTvTrBoBRUQECdCUk8jdaYtGG+HN0ZZNsO1VTXEzx62a84u+k9le0xiB0mJ+qKc5jhZdZZNvRwhTgEWbQsonZBCBVUzjdCuOjJRYvFn9+/rDZujWbDnRB9QdtUzUKM1Q1xU3VFAdaYgHQMgEIa5tTBUimvBZGK7TEupLQs4mFeR/vLdyLqP6gC6r7aJufKZix2BLrXw5mAAB9+8fMVvzKIBwYrdC6KIQgR7EcHh4VW6GEn5PXj/0d1iYAoVVxvpN2dABsJHZtOAj3A1mWnT5R3XsfklzFVtefF+eZbdva80Fr3oOFf3pdA5ieffe6rGtuAYg5IDBu4Sbnv2Vef8qyLAQhfmdZUub1cZZlvy59gq2Y/0EHnNSnC2aAQCKqpjiLVb7H8Tu+iR9XXd4fPHhPtPT+KFar78ePA4crAUZN+1TWNscKkLdLjwJj83ahGmTp5oM0xVPl5242W6XNBF0QgNAFN7GQkBh0jGpOYJhXEoOYb9XqsWrkMH48VZncxcByHS4AHue9I2ub2wwQp8lhOl7HAemnceObhJV5fRhvHN3ktUu7ObrgpD4ASQiHtaqmOK6aIlSH/DPLst+yLLt9+L3H8KRt9jcAHueehLXNLQC5WnoEGLufYzWIE8UJioPOz0JrtCf6QLM9AQhdEFTShV2rCoxZCDkWwpD/LFTa3rlwADBeKkCAMVANkqAYeoXg+l3qa9GR245OI5KwMq+dtKIrT7WWARiVqinOq6YI72X/HQe6A9Av9yWsbVYBSNUUKkBg2lSDJCBWfYQbxT9seHVK9QddcEofAKLYImtUs0wAEqGDBGubWwVIpvwUJu++GuRcNcj8LFR9/Jz6WvTAaUS64KQVAPRDJS8AtGCOAYgqEJiHt+FNf5nXx67n9MWqj3NVH7251v6KjqgAAYB+eC8H8ATdQ1jXHAMQc0BgPkJJ469lXl/oOz9dZV4fxRu4t6mvRY9Uf9AVAQgAAACT8Y8ZXqorm2wwO2+yLPuzzOvfsiw7qZpC0DkBZV6HjdKzeP3oz535H3RIAAIAAIyBexPWogIEmJKftcUav9juKgyD/J/wYxDnQkI6pIUdAPRDCyyApwlAWIsZIMDU3LfFutHvcXzKvD6Mz8PvU1+LAZ0k+50DAMyEeW4A0I45tsAC0hBOIf9R5vVllmVHbhCGFWe0nKr4GNxHvwt0xSwmAABgRByKZS2zqwCpmuJi6UFgzsKG+//KvD6LMyfoUWx3FeZ8/Cn8GAXVH3TpldUFgF7dWm4AeJk5tsAC0vQuBiGnYVPez0D34pyPm7j2DE/1BwDAvHhvB/A4ez+sZa4tsC6dRIZkhUHpRyEICS2ZDINuX5nXR7HSwDDk8bhT/QEAAEBC9lxs1qECBJijnTiEOwxKP1ER0o4wdL7M69Bm8Hfhx+icqv4AJk6bF4BlV0uPAAAbmWsAYg4IkD0IQswI2VJYtxh8/KG6bpSuq6ZQ/QFMnRAXYJlqdoAnlHm9//hn4au5tsACWLQT51S8K/P6Yzwt7zTVM2JgdGLGx+gdpb4AAAAz5Z4F4Gk6fvAsFSBAasJm/p+hoqHM60NXf1loGRZnqPxP+DF6vwjzgJnwXAawTAUIwNMEIDxLBQiQqtDK6U2Z16Hn+JmB6V+DjyzLjuPHztJfYGwuq6Y4dVWAmbDJB/BA1RTh0NbS4wB8E1pgnVsOnjLLCpDwJmHpQYDVXsc5If8X54QkVxUSKz5OYv/198KPSbjLskwFEzAnZoAArHa38lEAYC0qQAC+u58TchtPEJzNub2Qio9JO0i9YolB+JmjSwIQgNWuYvU6AMt2lx6BB+YcgFx6kwBsKVSF/Bw+yry+ji2yzqummMXmTBxufiT4mKyfzP1gCOHnThsOOuR5DWC1C3sbAI8SgPAsFSAAT9vLsuzX8BHDkIupVobE9l6HBptP2seqKc5SXwRgdu5UtQE8SkAMAC8w5wDEKQmgbXvxI1SG3MU2WeG55mKs1SFlXu/Hao/DWNnCdIWh50euHwO79VxCB2zuATzOjFOAx9n75VkqQAC2s3M/MyT7GjTcxpuTqxiIDLKZE+d6hLDjIH7YqJyHa0PPGYkbzyt0QAAC8IhQIRcr0fdW/w0A4ClzrwB5v/QoQDdePwhEsjiL6CZ+hOekmzYrReIsj90YdOwKPGbrztBzRsTPIV0QgAA87UIAArBa2BuZy8xWuqECBKA7bxbKMb8EsjEYuY2hSBY3fdbdULwPPF65AUqG8IOxCc9Zb10VWqa9C8DTwgy4n5/8GwDp2l3YY4Elsw1Aqqa4iBuNAGPzeqFSQ79KHnMffjgZzZi4saBtt07sATwtvB+MLXdVewPAhv5uwQBgdIQfjJWNatqm+gNgPWfWCWCl/VUPwr25ByDXS48AwLgJPxitUGHr6tAyP1MA6zmN7xMB+NGrpUdgwdwDED3TAZgS4QdT4IAJbTq3mgDPizPhTi0VwBIBCE+aewBiAwmAqRB+MBV+RmnLddzQA2A9qkAAlmmBxZNUgADA8MKJ+n3hBxOhZRFt0c8eYAMxND6yZgCwPhUgADCs61j5Ybg0U+H9FW3R/gpgQ1VThOfOD9YN4BsVIDxJBQgADOdj1RT7WsAwJbFS6dZF44UuBb8A26ma4iS8j7R8AF/sWAaeogIEAIbxoWoKLQyYKm2weCntrwBeIL6PFIIAwDNmHYA4UQvACIXBlf+JJ/dgqgQgvMRd1RQCEIAXiiHIpXUEUlfm9UHqa8Dj5l4BksXe6gAwBvfDzvW9Z+r8DPMSp1YPoDWH9j0A4HEpBCCqQAAYg4+GnTMXscrWZgvbUv0B0JL4mnwUq4wBUrXryvOYFAIQc0AAGNJ9y6sjrRmZGZvYbOOjIBigXVVTXMVKEIBUCUB4lAoQAOjOpZZXzJifa7Zh/hFAB6qmCPO5frK2APAjFSAA0L5Q9fFL1RRaXjFb8Wfb4FU2ofoDoENVU5zFtqsAqTEEnUepAAGAdt1XfRjySwq0wWJdd6o/ALoX2q6a0wUA3/0jgbVQAQJAH8Lm3nE8eQepCG2wQti344rzjFPVHwC9CSehb7w+Awl55WLzmNlXgBg4C0APQquBXeEHqYnvs8wC4Tm3MSgDoAfx9Vk7GCAle642j0mhBVam/BOAjoR2V/8OrQYE7iTMxjbP8RwJ0LOqKa4MRQeAdAIQN1wAtCmcZv4pDjm/sLKkLG6wGIbOY37zPAkwDEPRgZSUeb3vgrNKKgGIfsPAOq5t4vGMMOfjQ9UU2l3Bjwy3ZpVbPxsAwzIUHUiIOSCsJAAB+O4qnOjPsuyXuNEN974EH3HOh808eCCe8L9d+gSpO9T6CmAUDtzfAAkQgLCSAATgwXNF1RShn30onfxkbZL3Q/BhIw+eJBxk0S+xPRoAAzMUHUiEFlisJAABWKFqipuqKQ7DgGunmpMk+IANxbZwni8JPsbDBACMRAylf3E9AEiNAATgCaGtS5j3EAZe29hLwm281oIP2M6xdUvetZ8DgHGK4bSh6MBc7bqyrJJEABJOci89CLDZ88hZLKf8oH/uLIXh9/+5H24u+IDtVE1xHn+fSM9dbB154DkUYNSODUUHZkoAwkr/WPXgTIVTva/9GABPuHj8U996556UeX0abxyOPK9MWtisC8HWqaAcWhVmgfxhSWfrMlZXh4/QTuVzHIIPwASEe5oyr4/ivc+OawbA3P3tr7/+SuIil3kdXtzfLH0C4Lt/b7qJE28eQhiyt/RJxiqcUD6PVT1AB8q8Dr9f76ztpC0GHeG18UZYDDAfZV6HeYf/dUmBOama4m8uKA+lVAFyIwAB2hY30c/KvD6IFSE2/MbpOlZ7nNvAg16EKpBDJ0sn4S5WclzEf155ngSYv9C2sszr37Is+9nlBmDOUqoACTfi75c+AfDdxhUgK55rXsUg5Fh7rMGF0CPMIzizmQf9K/M6PA/+aulH5WHYcWFeB0DadMsAZuaf7v95KLUKEIBOxY2kMCPktMzr/RiGHApDeqPSA0aiaorT2CZQi8DhXD8IOzwvAvDQYdwvUbUJzMGuPWAeEoAARG0Pca2a4ipWghwLQzpzF6s8LmLo4SQzjEt43vvTNenNZXw+vDCYHIB1xKHo4R7lDwsGwByl1AIrJID/W/oEQNTXsKwYhhzEMES5+eYu70OPGDIBI6YVVmfu7sMOz4cAvJS24cBM/BIq0V1MFiUTgGRfX9DT+WaBjfUVgDwUB6jffwhEfrS4wXflRDNMk/7irREAA9CZMq/Da8xbKwxM2IeqKU5cQBal1AIruNV6BhibuKn/bWN/IRDZjx+pPG89HM57pV89zIb+4tu5XmjxJwAGoGtH8X24fRNgql65cjyUWgWI04fAo4aqAHlOmdevFsKQ/TjUa3/CG4n3QcdV3BC9DzvM74AZi+Gu/uJPM9cIgEHFdr3mdwFTdVk1xYGrx6LUKkDcRAKTEzfAfqgSyX4MRh7+Mxs47L2NwUa28DV/+acTzJCu8Ptf5vUH/cWXXMfQ41xbKwCGFl6Lyrz+xfwuAOYitQoQQ72Ax9xWTbH7yOcmayEkubf/REnobvy49zlWZzxmMcz4bOMOWIf+4l98WpjlodUfAKPj9RqYqLuqKR7b8yBRKkAAvprlBtRC9cg9FRjA0I7ic9FeQlfivrXVfejhPSkAY2ceCDBFZg6yJLUAxOlkAIABhc3/OA9k7kPRbxcCj/OlzwLAiMXX60PzQACYur8ndgWdtgMAGFisgDiIlRFzEkKP37Is+1doq1g1xbHwA4Cpii1uf3EBgSmJh63gm6QCEP3pAQDGIb4vm0MIsir08J4TgFmomuI0zq4CgElKrQVWFm+y9YMDABhYCArKvA49xv87sWvxbaaHCg8AEmAeCDAlu64Wi1JrgZWZAwIAMB4xQPhpIpcknID9T9UUr6qmOBJ+AJCC2Lry0MUGJkIAwg9SDEDMAQEAGJGqKc5GHIJcx/7n/69qikOhBwApiu0dP7j4AEyNChAAAAYXQ5B/jWQmyN3CXI/90P88nn4FgGRVTXGSZdmlnwBg5AxB5wcpzgBx8woAMEJxJki4YbkYaGZb2NQ5i2EMALAstMK6MVsVgKlQAQLw1Y11ABhebLFxEFtP9eG+2uOfVVMcCD8A4HHmgQAT8MpFYpEZIABfCUAARmIhBOmyzUb4d/8UB5ofV03hdQAA1lA1xUU8PAAwRnuuCouSC0DiDTUAACMWTpiGiowsyz62/FV+jLM9VHsAwJbC4YEeqzUBYGspVoBkIxmuCQDAM6qmOAqVGk//rWfdZln2Icuy/xf+fQ7EAEArDu2vAGNU5vW+C8O9VAMQN70AABMRKzX+FYOMTdy3udqtmuIk9i0HAFoQ20ceW0tghMwB4ZtUAxA3vwAAExKrNsJJrk9rfNWhzdW/tbkCgG7F19l1XpsB+iQA4RsVIAAATEKcCxLabfyyouXGXQw+/hnbXF24qgDQi6MtqjQBuqQFFt+kGoAAADBRVVOcxpuayxh8hPkeuzH4uHFdAaA/scXkoSUHYIz+kehVCScC3y89CgDAJMSg48DVAoDhhVaVZV5/sNcCjMSuC8E9FSAAAAAAvEjVFCexOhNgaAIQvkkyANETGgAAAKB1RyvmdAHAYFSAAAAAAPBisUXlsZUEBvbGBeBeygGIskwAAACAFlVNcZZl2SdrCsAYqAABAAAAoE2hFdatFQWGUua1OSB8kXIAYg4IAAAAQMuqpvgcQxCAoQhA+EIFCMBXr6wDAABAO6qmCAdPf7OcAAxJBQjAV/vWAQAAoD1VU4SB6NeWFBiAfR6+UAECAAAAQFe0wgKGoNMHXyQbgMRSTAAAAAA6UjXFVZZlH6wv0DMBCF+oAAEAAACgM1VTnGRZdmmFgR5pgcUXqQcgXnwBAAAAuhdaYd1ZZwD6lHoAAgAAAEDHqqa4ybLsxDoDPVEBwhepByDmgAAAAAD0oGqKU904gJ7sWGgyAQgAAAAAPdIKC4DepB6AqAABAAAA6ElshXVsvYGulXl9YJFJPQABuLdrJQAAALpXNcVZlmWfLDUAXUs9ALlaegRI1WtXHgAAoDdaYQFdc9iVtAOQqik+Lz0IAAAAQKfinsyRVQY6JAAh+QqQ4HrpEQAAAAA6VTXFuVZYAHRJAJJlqkAAAAAAhqEVFtAVQ9ARgJgDAgAAADAMrbAA6JIARAUIEJV5vW8tAAAA+hVbYV1adqBlrywoAhAVIMB3XhgBAACGoRUW0LY9K4oARAUIAAAAwKCqprjJsuzEVQCgTQIQFSAAAAAAg6ua4lQrLKBN2p2TfAASh20BZFpgAQAADE4rLKBN9noSl3wAEl0vPQKkyKkAAACAAcVWWKeuAdASAUjiBCBfqQIBAAAAGIGqKU4cVgVa4rBr4gQgX5kDAgAAADAeR64FAC8lAPlKBQiQKYsEAAAYh6opwmHV31wO4IV2LWDaBCBfqQABMmWRAAAAoxJaYd26JMALCEASJwD5SgUIAAAAwIhUTRH2a45dEwC2JQD56mbpEQAAAAAGVTXFeZZln1wFYEtvLFzaBCBfX0wFIEDmRREAAGCUQhXInUsDwKYEIN/pKQkAAAAwMvHg6onrAmyjzGtzQBImAPlOFQgAAADACFVNcZpl2bVrA2xBAJIwAch3AhAgnAo4sAoAAACjZCA6ABsRgHwnAAEAAAAYqaopLrIs++j6ABvat2DpEoB8JwABAAAAGDcD0YFNvbJi6RKAfCcAAQItsAAAAEaqaorPBqIDGxKAJEwA8p0ABAAAAGDkDEQHNqQFVsIEIFHVFAIQINi1CgAAAKNnIDoAzxKA/Oh26REgNQIQAACAkTMQHdiACpCECUB+pAoEAAAAYBpODEQH1rBjkdIlAPmRAAR4k/wKAAAATEBsZ37qWgHwGAHIjwQgAAAAANNxqqU58Jwyrw+e+SvMlADkRwIQILwo6g0JAAAwAVVTfI6tsABgiQDkRwIQIHhlFQAAAKahaoqzLMsuXS7gCbuPf4o5E4D8SAACBCpAAAAApkUVCPAUAUiiBCAL4vAsABUgAAAAE1I1xUWWZZ9cMwAWCUCW3S09AqTGqQAAAIDpOXbNgEcYgp4oAciyq6VHgNQIQAAAACYmdvb46LoBcE8Asuzz0iNAagQgAAAA03SsuwewgnbniRKALFMBArxOfgUAAAAmqGqKcLD11LUDHthbeoQkCECWqQABsjKv960CAADAJJ2qAgEgE4CspAIEyJRGAgAATJMqEGAVh13TJABZpgIECA6sAgAAwGSpAgEectg1QQKQB6qmUAECZF4UAQAApksVCLCCvZ4ECUBWc0IAUBYJAAAwbapAgEX2ehIkAFlNFQiwm/wKAAAATJgqEAAEIKuZAwK8Tn4FAAAApk8VCHDPYdcECUBWUwECZGVeG4QOAAAwYapAgAUCkAQJQFZTAQJkhmMBAADMgioQgEQJQFZTAQJkhmMBAABMX6wCOXcpIXlvUl+AFAlAVlMBAmQCEAAAgNk4cSkB0iMAWaFqChUgQKY3JAAAwDxUTXGTZdknlxPSVua1vZ7ECEAepzcksJf8CgAAAMyHYeiAACQxApDHqQIBwskAbbAAAABmoGqKiyzLbl1LgHQIQACeJgABAACYD7NAIG32eRLzj9QX4AnhVMCbxz8NJEJpJAAA0KrYg37VvUbYmHu19Oj6QjeLz/d/O1Y88KPz2AprZ+kzQApe8hzLBAlAAJ528ORnAQCAZMWWufebaYt/fhhw7A+x4V7m9f0fr2MwchFDkouqKT4v/R8SEL7vMq9DCPIuxe8fEICkRgDyuPCm4P2jnwVSoTQSAAASs1Ch8WrhnuD+cFR4bG9iK3L/9X7rdFHm9cfQDqpqipulvz1/pwIQSJZ9nsT87a+//kp9DVYq8zq8sflj1eeA5Pwz0ZsCAACYpTKv74ON3RUfrxO76h+qpkhuLkaZ1zcJXmsgyy6rptDtIyEqQB4R+mQulIoCaQs3RgIQAACYmHi48T7suG9RZd7nj97HdTpMrC3Wmc4fkCQVIIkRgAA8bz8OygMAAEYozuLYje/dD7I0KzleIoRC4SDoQUIhiAAE0tT7PCaGJQB52qWTIYBB6AAAMA4LrasWP6Y2j2Os9lIKQUKb4zKvr/38AMybAATgecojAQBgALE108FC2KGqo1t7cUD40Zy/yQXnAhBITwx6L1z6NAhAnnahAgQI5ZFlXu8ahA4AAN2Jbaz2FwIPG9PDeFfm9XnVFCm0AT7XBgtg3gQgAOsxCB0AAFqy0MpqscJDX/bxOE1hDmLVFFdlXt+qLILk7Lrk6RCAPO3CSQAgOjAIHQAAthMDj4OFD9Ud4/a6zOvjqilOE/hew97Pu6VHgTkTgCREAAKwHnNAAABgTQKPWTiOlSBzdy4AAZgvAcgTwjCcMq8f/wtASswDAgCARwg8ZilUgRwmMAvEIGRIz4Frng4BCMCayrw+CMGo9QIAgG9Dyw/jRpIDQ/N0NPdWwFVTfC7z+tLPMMA8CUCe50UQuLfvdBAAAKmKVR73gcehoeVJeJvI93lh7weS8srlTocABGB9B4n0wAUAgC8WqjwOtbVKU0JtsN4vPQrMldezhAhAnucUAHBPj0gAAGYvbHgvVHq8dsWTt59AG6wwA/ZOVRPA/AhAANa3E07AVU1xZc0AAJgLra14RioHwS4SavkFybO/kw4ByPP8IgCLDjwvAAAwdQuhx6FNX56x//SnZ0MAAmkxByQRApDnfR77Fwj0yhwQAAAmq8zrI6EHG0qlIshBN0iLACQRf099AdbgBRBYZA4IAACTEmZ6lHl9VuZ1OOD3u/CDTZV5Pfv7oDAHZOlBYM5SqW5LngqQZ1RN8bnM66f/EpASc0AAABi9Mq93syw7jtUeBpnDei6zLHtjrQDmQwCynussy/am8IUCvTAHBACAUYotro5s4sJWLvzuQDJ2Xeo0CEDWYw4IsMgcEAAARmOh2uMooXkN9Gs/hgNz56AbpEMAkggByHqunAAAFpgDAgDA4OJchhP3q/QglWHB5oAAzIwh6OtRAQIs2klhCCAAAOMU2lyVeX2TZdkfwg9oT5gDm2XZrSWFJHj9TIQKkPUogQQeOnQ6CACAPsX5HieGmkOnrvyOAcyHCpD1qAABHlIBAgBAL0L1caz4+N3GLAO5SWjhHYKFRMQZWsycAGQ9XvyAh/bKvE6lDy4AAAMI7zfLvD6Pra4EHwwppQBEpT+kQwCSAAHIGmIPSICHDpceAQCAFpR5fRg3nd9aT+iVQ7AAMyIAWd/1VL5QoDcCEAAAWlfm9XGWZf/NsmzH6jISyRwMNQgdkrLvcs+fAGR9qkCAh8wBAQCgVWVen2VZ9qtVZUyqpkitKiKlll+QMq3NEyAAWZ8SSOChndiaAAAAXiyGH++sJAzOHBBIgwAkAQKQ9akAAVZRBQIAwIvFtlfCD8boMsGrogIE0qAFVgIEIOvz4gesogIEAIAXiVXF2l4xVinuh9gDApgJAcj6vPgBq7wu89qJAQAAtlLmdWi/cWb1GLHk9kOqptACC9JgPycBApD1CUCAx6gCAQBgWyH82LF6jFiqYcDt0iPA3Hj9TYAAZE1VUwhAgMcIQAAA2FiZ12Ge3Fsrx8hdJXqB7AMBzIAAZDPSf2CVvTKvd1c8DgAAT9H6irG7rZric6JXKdXgB5ISDyMwYwKQzUj/gceoAgEAYG1x8PlrK8bIpTwLI9XgB2BWBCCbEYAAjzl65HEAAFjF+0emIOUAxCB0SIOOHjMnANmMAAR4jDZYAACsJb5vNPuDKRACAHNnL2fmBCCbEYAAT9EGCwCAdeg3zhSE+R/J7oNUTSH8AZgBAchmBCDAU7QxAABgHQ7OMAXnrhKQAIcSZk4AshkBCPAUbbAAAFiHzRamQACSZZdLjwAwKQKQDaRc+gms7dhSAQDwmDKvX2VZtvPIp2Es7rSAAhLxyoWeNwHI5m6n9gUDvdLOAACAp+w/8TkYC9UfX10tPQLMzZ4rOm8CkM2pAgGe8rrMaze1AADAlJ26el98XnoEgEkRgGxOAAI8xzB0AAAeY/4HY3dbNYXKh68EIJAAB1nnTQCyOQEI8BwBCAAAMFVnrtw3giBIgzkgMyYA2ZwABHjOTpnXZoEAAABTJAABUiMAmTEByOYEIMA6BCAAAMDUfKqawr7Hd9YC0qAF1owJQDan/2FQavsAACAASURBVCOwjndlXjtBAADAQxdLj8B4GH6+QBgEMH0CkA0ZBAZsQBUIAAAwFWH4uYAOSNGuqz5fApDt3E3xiwZ6d2zJAQB4wKE6xurElVnJHhDMnwBkxgQg2/GGFVjHXpnXXkQBAPimaorPNlQZofAzee7CrGQPCGDCBCDbMQcEWJcqEAAAHrKhyticxnAOIEVvXPX5EoBsx5tVYF3mgAAA8JA5C4yN4ecAzJIAZDtORQDrel3mtRAEAIBFWg0xJh9VfwCp08J8vgQg21EBAmxCAAIAwDdVU1yZA8KIGH7+NHtAkAYByEwJQLbjZASwiXdlXr+yYgAALFAFwhh8qprixpV4kj0ggAkTgGwhntYB2IQqEAAAFpm5wBj4OQT4at86zJMAZHvKlYFNHFktAADuxYN11xaEAV1WTWEgP8BXOnfMlABke6pAgE28MVALAIAHnL5nSGZ/AHwnAJkpAcj29IAENqUNFgAA31RNcZZl2a0VYQC3qj8AfqAF1kwJQLanAgTYlDZYAAA85BQ+Q/BzB0ASBCDbUwECbGqvzGsnCgAA+CZWgZgFQp9u488dAN/Zr5kpAcj2VIAA27ixagAAPHC89Ah0R/UHwLKdpUeYBQHI9lSAABurmsJzBwAAP4izGH6zKvRA9QcASRGAbKlqChUgwKYMuAQA4DEn3i/SA9UfAI8o8/pg9WeYMgEIQH+0vwIAYKVYKXy46nPQEtUfACRHAPIyl1P+4gEAABiP2GngJ5eEjqj+AHja7pOfZZIEIAAAADAS8YS+eSC0TfUHwPMEIDMkAHmZiyl/8QAAAIxP1RTHWZZ9dGlokeoPAJIkAAHoz5W1BgBgHVVTHAlBaInqD4D1GII+QwKQl1EBAmzis9UCAGBdMQT5YMF4oSMLCECqBCAA/XllrQEA2ETVFKF10X+yLLuzcGzhsmoKhzcB1mPfZoYEIC/gTQSwoX0LBgDApqqmOI/vJa8tHhsy+wNgfXvWan4EIAAAADByVVPcVE0RQpDfXCvW9MnBTQBSJwB5ucupfwMAAABMQ9UUx1pisaZjCwWwmTKvde+YGQEIAAAATMhCSywH8njMb6Fq6JHPsZkD6wVJMQdkZgQgL6ecFAAAgF7FllhhY/aDleeBO7M/ALYmAJkZAQhAf5RRAgDQqqopwkb3v7Msu7WyRCdVU3y2GABbsXczMwKQl1MBAqxrx0oBANC2OOg6bNh8srjJu66a4jT1RQCAewIQAAAAmLhw4r9qisMsy34yID1pBp+3b3du3xDwJL/zMyMAeaF40gZgLWVeK6UEAKAzVVOcxWqQa6ucnE/2KDrxeobfE/A4AcjMCEAA+mWYFgAAnYoD0vcNSE9KqPo5Sn0RAOAhAUg7nKwB1uUkAQAAvYgD0v9lQHoSDD4HaMcb6zgvApB2eJMBrEsAAgBAb6qmuIotsX6z6rNl8HlHyrw+mOU3BpAQAUg7rubwTQC90AILAIBexQHpYTj2v1WDzJLWVwAtKvPa4dUZEYC0QwUIsC5D0AEAGEQckK0aZF4+xCofANojAJkRAUg7vNkA1uVFFACAwSxUg/xHNcjkXcc5L3RHCyyAiROAtEMFCLCu11YKAIChVU1xrhpk8rS+AuiG7h0zIgBphwoQYG1lXnshBQBgcGaDTJrWV/1QwQ9pMr91RgQgLQhvGif/TQB98kIKAMBomA0yOVpf9UcAAmmybzMjApD2XM/lGwE6p48sAACjslAN8i/3t6N2l2XZYeqL0COboJAmnTtmRADSHlUgwLqcIgIAYJRCW6WqKcLGzy9xs51xOa6a4sY16c1eIt8nwGwJQNqj9yawLicJAAAYtaopTuP71k+u1Gh8rJriLPVFAOiBfZsZEYC0RwUIsC6niAAAGL1QaVA1xaEh6aMQ2pIdp74IfSrzWutiSNeOaz8fApD2qAAB1lbmtdMEAABMQhiSXjVFaOP6QVusQYQ1PwpzWhL83gHgRQQg7fFGBNiEOSAAAExK1RQnsS3IR1euVyH8cOiyfypAIGGqwOZDANIeb0aATagAAQBgcmJbrKPYFuvSFezcL1VTnM/8ewSAzghAWqIUFdiQkwQAAExWbIsV3tP+ZD5IZz7GYfQMwz0bpE3njpkQgLTrek7fDNApFSAAAExe1RRncT7IL+aDtOoyVtownFfWHpImAJkJAUi7VIEA69op89qLKQAAsxArFQxKb0c4XHk4h29k4vZSXwCAORCAtOtmTt8M0DlVIAAAzEZoDR0HpQtCthfCjwNttodV5rV7NUAbvJkQgLRLAAJswospAACzIwjZmvBjPLS/ApgJAUi7BCDAJpwqAgBgtgQhGxF+jIvDaoAgdCYEIO0SgACbeNPWapV5fRA+lj4BAAADexCE/JRl2a1r8gPhx/iY1wiYAzQTApB2CUCAjbQYWpx5kw4AwJjFIOSsaor7IOTSBcs+CT9Gyb0VwEwIQFpUNYUABNjUi9tglXkdTtO99iYdAICpiEFIOAz0ryzLPibaHuu3qikOhR+j1Fq1PjBdZV5rXT4DApD2KeUFNvGiCpAyr0NPyuOlTwAAwARUTXFVNcXRQnus6wSuWwh7fqqawvv4ESrz2sEy4J45IDPwj9QXoAM38SQ2wDpe2gIr3DTtxD+bAQIAwCTFKojQ1vUsbkCH97mHM7y/DgHPoQ4So+bEN3BPADIDKkDa500MsImdF54wcmoMAIBZCeFAqI6Is0JCi6zfZtBtIVR9fKiaYl/4MXoCEOCe54MZUAHSPm9kgE0dxNNuGynz+mih+iPTpxYAgLkJLbLioZ/j2Iv9KL5/3pvQtxpmnJwIPibDhifAjAhA2ucNDbCprQKQVdUfYSaIIYoAAMzRQhhyP6fhYOFjjK2yQvARhr1fLH2GMROAAPfMBJoBAUj7BCDApjae3RFv+Fadegtv1t1gAQAwa7Ga4uz+INFCILIfP4aqjr69/7pUfExPOFBmriuwYLQBSHzd23/wEV57Tpb+cuIEIO3zBgfY1OvwwrXhDdJS9UckAAEAIDkLgcg3sWXW/QbR7sKfd1panzDX4yruA4R/ngs9Jk/1BzA68fXs/rXsoOXXstkTgLQsvNkp83pW3xPQi03bYB0uPfKV8kwAAPjeMutLMPFwPeJJ/8XN7vDnV0+s2+IhoxtBx2xtXJ0PzFrv1YRlXh8shB2bVjTaE1pBANKNWyWTwIbWDkBi8v/Yc4wTSwAA8Iw4N28x1FBFTeZ+CujLQhB/sBB2rGp1vgkByAoCkG7cPLE5CbDKYxUdqxyteOyeN+wAAADbcT8F/GCLluVLHpnXYe+4JwKQbtwMOHANmKadUNkRy/Sf81RZ9k4bL84AAAApiRuUNiSBh3Y3mfk88LwO+9ErCEC6YeMR2MZB7FH8qPim/LmSyH3PQwAAABtR/QFs5IXzOuiJAKQbn+f4TQGdCy+cp8/8R56q/ri3v2rQIwAAAI8yAB1YZb/M66sO5nV0YoPuIskQgHTDDxmwjbdr/H/WmRXijTsAwP9n716S47iutYGWbrhP3hEQHkAG4REQHgHhZrYIRWRf0AhEjUBQvyIEtrJpcAQCRmAgagAXGMEvjEB/JHlKLqLwqEc+zmOtCITlBC2zMlGFzPOdvTfAdlSAAI/5JXyl4rWr+K3/WTtCH1SAADtpqvalgGPTChAAAAA2p3UNkAMByAMCkAEoMwL28GTAEQZpbTI461X4swAAALwg9PEHyIH1oAcEIMO5z/WFAYN6rgJkm19ifuEBAABsRgACkCkByHBUgQC7eNNU7cET/7ttbsrdwAMAAGzG8xOQCxtiHxCADMccEGBXT1WBbPNLbO8b+GeCGAAAgJyY/wHkwgyQBwQgw1EBAuzqqfDi7dqRpz1XSbKpsw2GsgMAACTL/A8gMwKQBwQgw1EBAuzqfVO13/zC2vGmfOcb+fD//342m50//LsAAABkRAAC5GSbzbNFEIAMRwUIsI+HN+G79HDc50Z+WfnxajabfVz7LgAAQB4EIAAZE4AMRwUIsI+Hrad2aWfVRwDS+UFZOAAAkCnzP4CsWMP5lgBkIPNFrQIE2MfDAGSXCpB95oA8/GWpFRYAAJAVMw8B8icAGdZ9zi8OGNSrB4n9LgHI7JEg40Xh//fVgz/3RissAAAgM3ZJAznadTNslgQgw1IFAuzjy26kUHnxMJDY1C47mp56CNAKCwAAyIkKECBHApAVApBhmQMC7GN5M75r9cfsmTDjOc/9by60wgIAAFIX2gW/cSEB8iYAGZYKEGAf3QyPwz2T+1fh37GN54YAdpUoF2tHAQAA0qL6A8jVcxtbiyMAAYjbSQ+lixvf2G/Y4updU7XmgUDhwq5JAIBUWSAEKIAAZFiXOb84YBTHYwYgW7Tb+qmpWjumoGzXPgcAgIS9d/GATNmstkIAAhC3Nz2UZr/dYqf2Nu2yzndorwXko2uJ9++mas9cUwAgJTZxAJkz32iFAGRA80WtAgTow6se/h2blndvE2i8CiGIoehQth+aqr30WQAAJEQAAlAIAQhAGTa9wX+7duR53Z+38Am8m81mtxvOEQIAmJoABMiaZ7P/EoAM7yr3Fwgk4f1LIcUe7ay6EEQLHKCrCvu9qdqPxZ8JACBa4bmnjyp7ABIgAAEox0vp/z5Dsj40VXu+dhQo0U+hJZbBewBAjE5cFaAAZrYGApDhmQMCxOKlMu99fzl+sPMbCLqWWNcGjAIAEXJ/ApTg2S4gJRGAAJTjpRv9PnZrdzu/7aiCMty88Cq71hL/bqpWizwAIAqh/dUbVwMogAAkEIAMTwUIEItXL+zG7qtdzW9CECjCHxu+yB+aqr3eY84QAEBfPKcApfD8FQhAAMoyRgAyCyHIc/9fQPqut3gFb7tNIU3Vnq59BwBgPJ5RAAojABnYfFGrAAFi8twNf9+l4Od2fEPWbrd8cV1LrF+aqr1oqlY5NgAwKu2vgMJYjwkEIABlebQN1kCLka/Cjm+/dCFP21SArHofBqQfrX0HACb22L0y2dD+CijJK1f7KwHIOK5KeJFAMh57qBsqpOh+4drtDRkKVa73O76ybvfl7wakAxCTsHHn31o2Zuux5yCAbFmL+UoAAlCe45F/Cb4JlSB+8UJ+LvZ8RQakAxCFcK+6/L320b1rXkJlj/ZXQGmKf86aCUBGYw4IEJNXj+x+GvoBrxuAbKc35Oe8h1dkQDoAMThfWSDv7pc/uipZUf0BUCgBCECZHj4AjLEr4IMFTshLaIP1qYcXtRyQrloMgNE1VXsSZlSt6qoUD1yNbAhAgBIVP3dxJgAZjQoQIDbvJ1pk/MXgY8jOaY/zzt7NZrNbA2gBGEtow/hUpXIflY5MLARchgEDFEoAAlCuk4leuaHokJH5ov4j7Kq86elVvQoDaM99VgAwpPB75vyZxfF3Nu9kwcYKoFTFVzLOBCCjuS7kdQJpmSoAeWU3HeQlhCBHPYYgnQ/dPZSFJwAGdB5mUT3HfWvCQhuzh+3NAEpRfAAyE4CMIywKAMTmbSj5n03wS9GCJmRmpRLkvsdX1g2j/b2p2jPVIAD0Kcym22Rh/I0wPmlTbfoCIBICkPH0uSMSoC/LB4KxA5BXHiQhP/NFfRsCzj5DkM4PoRrkcO07ALClcB/6i/NWBAEIULJuxmLxBCDjUQUCxGjKBwK9eCFD80V9PVAI0lWD/Kep2o9r3wGADYWKwottztd8UV+uHSR6Ieh640oBlE0AMh5zQIAYdZUYU4UgAhDI1EoIMoSfmqpVDQLA1kL4cfnM0PPHXD1yjDSo/gCKF2YhFU0AMh4VIECspnoweGMBE/IVQpDvB3qBb1WDALCDsw2Gnj+0VbUIcQhh1weXA8AgdAHIeFSAALF6N+EvRLuyIGPzRX0+YAgyUw0CwKbC0PNdFsQFIGnynAHw1evSz4MAZDwqQICYTdUbVxssyNwIIYhqEACe1VTt8Y5Dz2/mi/p27SgpOHWVAL4ofrOYAGQ8KkAA1r0JwwmBjI0QgsxUgwDwmPB74fyRb21i1/8dEwqBl+HnAHwhABnJfFGrAAF4nPJ0KMBIIYhqEAD+EuZAXGw59HyVACRNqj8A/qv4DWICkHHdlPRiATakDRYUYqQQZKYaBIAQflzuUQnw2UbG9DRVexBmHALwlRkga0cYkpsngHWvmqpVBQKFGDEEUQ0CULaz8LtgV6o/0uT3PsC3BCBrRxiSOSAAjxOAQEFCCPLzSK+4qwa5NW8IoBxN1Xa/Zz7s8YLv54v6Yu0oUQtVP6rLAb61z2aALAhAxqUCBOBx70K5OlCI+aLudmh+GunVdu1Pfm+q9iwsjgCQqVBZvE/4MVP9kazTPea9AJApAci4VIAAPM2wQijMfFF3i1S/jviqf+jux1SDAOQphB+/9fDiztaOkAJV5QCPKH02ogBkXCpAAJ7mgQUKNF/UpyPNBFlaVoNcqAYByEcIt/sIP7rh57drR4laCL92HXgPkLuin3sEIONSAQLwNMPQoVAjDkZf9X42m3WzQfQKB0hc2Nna18wO7a/SZPg5wNOKbjkuABnRfFGrAAF4njZYUKiJQpCuT/i/m6q9NIcIIE0h/LjsafbDneHn6QnVP6o/AJ4mAGFUd043wJPe7tubv6naj9raQJomCkE678JsECEsQELCPV9f4cfM7I9kqf4A+nQ/m82uZrPZz+HZ5JOzm7a/lX4CJnBrZwLAs07Cg+yuugDluAtSVN5BeroQpKnaWU993LfRLZ79ElrxncwXtdalABEbIPy41/4qPWHz1LvSzwOws5swsuA2/E65friOkEml+F4bTVMnABnfrV/OAM/60FVx7Dl88m138yIEgTRNGILMwufHf5qq/bXbUeozBCA+K+HH2x7/chc+85Ok+gPYxH0IOi7D2uz1Fhue9lmbIAICkPF50wC87GOoBNnFMmQWgkDCJg5BOj+EarJT/eAB4jFQ+DGzkJ4e1R/AE16s6thSDmu5Rc8AEYCMTwAC8LJu0fF1D8GFEAQSFkEI8iYMSf88m81O96xMA2BPA4YfVz7jk7TrhikgD/tUdZSm6HEMApDxuakCeFnXy/m0p514QhBIWAhBuvunix77vG/rfdc3N7TnMyAXYDpDhB8z1R/pCT35P5R+HqAgfVd1bMNabuK++/PPP0s/B6MKv6T/r6CXDLCrbjfHwbY3NU3VPvWLrdvZV/TgL0hZU7WHPQ+73dVNqAa59AMFMJ6mas8HWvC+my/qoluDpKip2ouwQQHIS5RVHc+sM6Tkn6U+w6gAGVlXVhtaOQDwvD6rQDrvugfn+aJWKg8J6h58Qq/vqUOQbufx74akA4xnwPBjpvojPeF+QPgB6bsKIccUVR0URAXIBEIbh6J7rwFsaOsqkA12Zvw6X9Sna0eBJERUCTILn1FdNcj52ncA6MXA4YfqjwQ1VXtp+Dkk5W415Oj+ObVZHZms5f5YajtfFSDTEIAAbKbvKpDOD03VXluwhDStVIKcD9QHfhvdZ9RvTdWehCDE0EWAHg0cfnTMdUpMuAcQfkC8llUd18uvTKo6cljLfb12pBACkGnc+oUNsLHTpmrPer5p6hYsb/XwhzQ9aIc1dQgyC/d1/9EWC6A/I4Qf9yFMJy1alkEckq/qKJAAhFHdOt0AG3sVHnT6blt10bXS6WYzrX0HiF4XMkQWgnR+mM1mJ03VaosFsKOmal+P9Nne9wYbBqb6AyaTa1XHNnLYzH64dqQQApBpWGwD2M4PoQqkz8/PVyEEOfLwC2laCUHOIxqGqi0WwI5GDD/utb9Kks0FMCxVHU+zlpswAcg0vGkAttdVgZz0fN7ehoffvv+9wEhCgHk8QquUbWmLBbCFEcOPzrnP5bSEjQVmqUJ/VHWUp9gKkO/+/PPPtYMMq6nag9ls9n9OM8DW/vnS3I6manf5xfbjfFHbBQiJizAEWboP1SB2rgI8YuTwo/N3bVDTEX4+rgUgsBNVHT0IIexvqb+O+aL+bu1gAQQgE9lxgQ6gdFfzRX303DnY4/P1H24EIX3d/I3ZbPZLpC/kJgQhzwa5ACWZIPz4NF/Uqn8T0lRtVwn+U+nnATagqmMgoe3u7xm8lP8t8WdCC6zp3Nm9ALC1d03VHs8X9cUAp245FN0NIiSsq+ZqqvaPSHdodYt7vzdV+ykEIT5vgKJ1917dPdjIz8Yf144QrdBB49QVgm+o6mBXh+HnpigCkOncCkAAdtItbl4OsHD4JgxWPF77DpCUrtVUU7WzMOPnVYR/9w9hbsnZfFFbiAOKFMKPy5E/pz9pfZWcj5H+LoexXC1DDlUdk/K7I2FaYE2kqdpul8v7Il88wP5+fmrRsAtHwvDhXX2vTz/kYaLFtW3dhWqQISrbAKI04eez2R8JyajlDGzibrV1VQg6fF5FJJNxBk+upeRMBch0rgUgADv7qRt2PNAN4bLCxM0mJK5rBRAWT2IOQbrqs383VXsVghDtC4CshUGyU1Toqf5Iz1npJ4BsfVPVYT4cDEsAMh3lagD76ao0nh2IvqNXA/67gZGFEORg5AG7u+gq1/5jPgiQsxB+TDWjScvBhDRVexr5723YhKqOvOQwz/lg7UgBBCDTsbsPYD9PDUS/3bMF1iz8uz/qzQ956MKElUqQ2BdTzAcBstTdW3VVvBO9tp8tOqajqdrXAisSpKojfznMcxaAMCq7+gD21w06PniwU7qvh9sh22wBIwufE4fd+zqEDDF7FT6DTswHAXIw8WfvvVZKaQjBRzcf5tTgcyKmqgMSIwCZSGjHUORrB+jRq7A77HSgk6oVFmRmvqhPwj1Y7CHI7MF8kI92EgKpCQva5xPPvzzTVjAuYQj+63CffRC+9q3ghiGo6mBVDr9Livys/e7PP3MYYJ+mpmr/sKsBoBf/XN6Mdm2xugXDHk/rj/NFbdcgZGbiPvS7+hSCELsMgeiF8COG1oNmK01gpZpjGXAchdDDXA9ipKqDF03cyrE380X9XWlXWwAyoaZqL+1yAOhFd8N6uNLn//ceT2vXNuFhmy0gAyEEOUtsQ8qylYsdzUC0wg7/i4h6pfvsHEjXjvZBwHEYvmz2JFaqOthJLgHIbDb7e2kBnxZY03LjBdCPNyutsPr+Rf4qtG44XvsOkLT5ou7mCF2HHcqpLNS8Cg9ep91DmAo1IDZhM8pFZJ+rq5+dgpAdhOu6GnAcqOYgcqo66FsuvzcOBlg3iZoKkAlllBwCxOJLK6ymaof45fZPu4MgT2Gn8nmiCzl3BqUDsUiovaCKkEesVHMcPvjPWCp54DH3KyGHqg4GM0C3ian8q7RnBwHIhJqq7XYq/1LsCQDo3314SLse4EHtbr6oD9aOAlmIqFf9rgxKByYVKit+SOwq3IdqlS4IuV77bqZC8H/wYEaH9tyk4GYZcoT7tltVHYwlowDk5/mi/rh2NGMCkAll9MYBiMnnUJ4/xEOcgeiQuaZqu0qQDwm/ys+hIsRiADCKECB3n53vEz/jN6Eq5CKHqpAnhpCr5iAV9w/aV93a5MHUQnj8nwwuhACE8WT0xgGIzf1AfacNRIcCJLqL+aFPoSJEEAIMJrRMushwFsTn8LqiD0PCusLrlYDjwBByEqOqg2QM1G57bJ/ni7qoGacCkIll8sYBKMmv80V96opD3hLqY/8cPe6BwYSF98sCFto/h9d5MeWibOgg8XBGhyHkpERVB8nLZB33ar6oj9aOZkwAMrGmav+wMwMgOX+3KwnyFxabLjK4VxOEAL3KJCTexc1KGNL7wu0TQ8hVc5AiVR1kKZN13Jv5oj5cO5oxAcjEmqq9NGwMIDmf5ov6xGWD/IUdzheZ9Ey/D/NBzte+A7ChDGYl9WlZHXK5zRD1ELC/Xgk4hppfB0NT1UFRclnHnS/q79YOZkwAMjEBCECy/unmHsoQBsleZtRq5C7MBxGEABvL8LOwb3fLMCQE57MHAYch5KROVQfFE4CkSQAysaZqu6n7PxV9EgDSVFzfTChdhrueBSHARgqa9wGo6oAnNVXbBdzvn/p+Qv6xTeVi6v7mRxoAdvKua1/gYQDK0bW+a6r2NqPNK90u5N+aqj0NrbF8ngFrCp73ASVQ1QHbuc4kAHm9diRjApDpXaoAAUjWx9DOACjEfFF/DCHIWUY7obt2Nr83VXsVKkIEIcCy5dWZeR+QhfvVkENVBxTvoKQTIAABgN2pAoECdS2jmqq9zrAdzDtBCDD7Gn4chDkW5n1Aem6WravCvcr1fFH/4TpCL3J5LwlAGE/3YNlUrTMOkC5VIFCgrmduWCDMcSCwIAQK1lTt8Ww2OzfvA6L3sKrjuqSe/jAR77EEGYIegaZqXQSAtBU1QAz4r0JaxAhCoBBN1XafZz+43hAdVR0Qga4DRLdRKINrcTVf1MVs5FQBEoersNMOgDR1A4RPXDsoT1h8yG04+kMqQiBzWl5BNFR1QNwEjwlSARKBpmovBSAAyfv7fFHfuoxQroLaxghCICNaXsFkVHVAgjLp5HM3X9TFzAFRARIHAQhA+k7DF1Co+aK+CGXx3S7qNxmfBRUhkAktr2AUqjqA2OT8rLJGBUgEmqr9mHHLBIBSdA82B3ZtAWEuyEVBG1y6IOSsC4DWvgNEScsrGIyqDshcU7V/5FA1OV/U360dzJQAJAIZDdABKN2P80V9VvpJAL5qqvY88+HoD92FipDzte8A0WiqtptbdqblFexFVQcUKqNRBv8spZJbCywA6M9pWFAA6HZVnYQHpN8KORtdKf1vobpZEAKRCdVp3fvyvWsDW1HVAZAwFSCRyGSADgCz2b+0gQFWNVV7GBZMStttfRdC4XMLRTCt0HXgvLSe37Clu9WQo/tnVR3AQ03VXmSymaCYDhYqQACgXyehpzbAF93iSei3f1lYv/1uofWXrhokDFo+E4TA+MychEddLVtXLb/8jgI2dJ1JAPJ67UimBCDxuCpoUCZAzt53C53zRX3rKgNLPscpAQAAIABJREFUYVHlsMC5ILNQ+dItvp6GHXMffUbC8EL12blB5xROVQfA4wQgAMDOuiqQj04f8FCBc0FWvQrhz4emaj+FihCLUDCApmpPQwUWlERVBzCGXD5XDteOZEoAEo9LFSAA2RCAAE/qhoM3VXtd6FyQpWUQchUqQi7X/gSwtdBu79yzJZlT1QFMyedNYgQgANC/N03VHhuGDjyl4LkgD3WLtL83VXsXgpDztT8BbCRUfXwsOFglT6o6AIahAoTRSQ8B8nJsGDrwnMLngjzUDUz/bTks3cB02JyqDzKhqgNgXMVsmPjuzz//XDvI+JqqPep2vzn1AFn5Xwt4wCaaqj0JC/92bv/XJwPT4XmqPkiUqg4gaU3V5rKgXsSahQqQeNjZAJCf47AjE+BZK3NBLkI1BN/OCTnTVhD+S9UHiVDVARC3w/AZnTUVIBHJKD0E4Kur+aI+ci6ATTVV+zosar530tbchSqZczuFKVlTtV3Fx09+CIiMqg6gGBmt4f5zvqgFIIwn7PoreQgmQI7+rn0LsC0LnM+6D5Uy2mNRlNA2+cwzIxO7Ww05QtDhsxgoSlO1l5lUYf48X9Qf145mRgusuNgdAZCf47BYAbCx7kEkPFhd6O2/5pX2WJQkVIZ1ixM/uPCM7GrZuioEHdnvEgYgPwKQuFzr4QqQnRMBCLCLbqGpqdrDEILY8f247t75XVO1d6F12JmWK+SkqdrlfYQglCGp6gAo00EJr1oAEhcPawD5edsNKvUQCewifHYcNlV7Zvf3s96ElmE/NVX7KcwJsVOZZIXw88wGOQagqgNgf7m0wBKAMLprpxwgS9pgAXuZL+rT0BLr3E7wFy3bYxmaTnK0u6JHqjoAKN5MABIdD2YAedIGC9hbN+ciDEE+1xJrI11VyC/dl6oQUqDdFXtQ1QHALoqoNP3uzz//XDvINMJun//n9ANk6X/tQAb6EO4Zz0KlA9tRFUJ0QrD5UbsrNqCqAyAC4Xf37zlci/mi/m7tYGYEIJFpqtYFAcjT9/NFfe7aAn2xW3xvn0MQcpH46yBR3YywEHwIM3mMqg6ASOUUgMxms7/nHqZrgRWfGy0NALJ0HNrWAPSiC1Wbqr3WEmtn77uvMCukC0HO7KRmDKGK6zQM7gdVHQBM6SCE7dlSARKZMNxS6TNAhkooLQXGpyVWr27CubzQIou+rQQfpyq3iqWqAyATGXXx+VfuFdECkMg0Vds9cP1Q+nkAyFT2NxbAdLTE6t2nEIT43GYvgo8i3SxDjtls1oUct6o6APKSUQDy83xRf1w7mhEtsOJjpxlAvo5CmxWA3mmJ1buuouZDU7X34Zx280KuM3uNDEjwUYT7B+2rblV1AEBcBCDx8VAFkK/jsAgCMIiwQH+oqrhXr8K5/CHMC1mGIXZz86gw3PxE8JEdVR0ArLrKZIzB4dqRzGiBFZmmarvdwb+Xfh4AMvZ3D8vAGJqqPQ6L9RZgh3ETzu+Fz3VmX99zhyH0MI8nbao6AHhRRnOcr+aL+mjtaEZUgMTHwxNA3o7CghnAoLrZFWFB9jyTh7PYdG3Gfum+mqo1PL1gYf7OifdZklR1AFC617m/fhUgEcpoiA4A6z7PF/Xx2lGAATVV2w02/Mk5HsXnMO9JGJKx0ObqNAQfqqzip6oDgF7ldH89X9TfrR3MiAqQOHW9hd+UfhIAMpV1aSkQp/mi/thU7UVYmHefOaz34eu3UBmiTVYmwlDzY9Ue0VPVAQD8RQVIhDLqIQfA4/4RBhUDjCos4J6HBXrGJQxJVJins/xS7REPVR0ATCazCuus1yhUgMTpVgACkLWj8KAOMKrQkuk4zCw4s5g7qtWZIXcrbbIs2EZI6BEdVR0AxOYyowAk6zkgApA4uZEDyNtRWHgEmMR8UZ+HqmMD0qfRtSH7oftqqvY+hCHd9bi0qDuNlfZWR0KPSanqAIDxCUAYnYcegLyZAwJMLiy0HxmQPrluof1D+JqFuSGXK4GIQeoDaar2cCXwEASO72YZcoSf92s/7wAwicOwISdLZoBEqKna7ib899LPA0DmzAEBohEWgg1Ij9NqIHKtQmR3K4HH8kuVxzjuV1tXhZ9j90AAJK+p2lwW1n+eL+qPa0czoQIkTh5qAPJnDggQjW4xMiwOfwytmYjH2/D15bqE+SHXKwvKds0/IrS0WgYehwKPydzMF/Vhoa8dAFKRdZcKAUiEul1dTdWWfhoAcmcxAIhKWEQ/XZkNYrE4Tm/C1/tl67IHochybkIxIfsjYcdBCI2Y1r22nwDA1AQg8brTggAgaxYEgCjNF/VFU7UHIQR57yolYTUU+SJsqOraZ/0RKkX+WAlHkqw4D1VKr8Pv0GXocSisi9KX8EN1EgCZu8pkjtjB2pGMmAESqbDzziA+gLz9r4UBIGZN1R6rBsnWXWi9+8dKS8br8N9nY7bWWqngmK0EG7Pwn6+FHEn6fr6oz0s/CQDkLaf12/mi/m7tYCZUgMTrVgACkL2jMHQYIEqhGuQwhCDuTfPyZqXi/NFKnwdtea/W/sBXfzwz0+rgmR2Ffp7yJfwAAKIhAImXQegA+TsUgACxC+2SjpqqPQ1D0u3EL9NzgcWjAQpF+iT8AGAbXevVVNtzhk0gz90jJaOp2q515WUOr+Wh/1k7QiwEIAD5MwcESMZ8UZ+F4PapSgCgbF34cVL6SQBgaylvCtTSOgECkHgJQADyd+gaAynpdufNF3UX3v4YhhwDdG6EHwBsq6na7nfHWycuCk+1LU2eACReEkSA/L3qyn1dZyA1qkGAFTeqWgHY0cfET9xTc9BSJABhXPNFndMbCICnqQIBkqQaBFiGH/NFbQMfAFvpZk7MZrM3s//+c4py+v33eu1IJgQgcfMgCZA/AQiQNNUgUCzhBwD7SL36IzfZrk0IQOKmCgQgf1pGAMlbqQb53iYeKMK98AOAXYWKj3cr//NU2y9Zu02AACRubiYB8qcCBMhJ9xDYDbO8c1UhW8IPAPb1sPojyQAks9+F2a5N/G3tCDHpHiDfuyIAWesGob+2iADEbqU380H4er3yoPTOBYQiLMMPO14B2Mkj1R/E4VWu10EAEjeLYQBl6BYQL11rYCor4cZhCDZWQ463Lgwg/ACgJyeP/GtSrj64yeV+OdfNmQKQuLmxBCjDkQAEGIpwA+iB8AOAvTVV292Dfnjk3/N67Ug6cmuDld3ahAAkbipAAMqQ6sA3YELdDq2V3XIPQw7hBtAX4QcAfXk4+wMGJwCJWHeD2VRt6acBoAQCEOAbL4Qb3WfGG2cMGEHX1uNE+AHAvp6p/pglPhPkOqOZJipAmMR9zkNoAPjCADgoiHADSMRNqPzQmQCAPuRa/ZHT78mUW5E9SQASv5xSRACe0O2GmS/q28e/C6Qi7Gxbztd4LOSwsQVIgfADgN68UP3xRa4DuBOTZXcKAUj8vPEBytDdaAhAIGLCDaAQwg8A+naywb8v1fZLObWJFIAwie5N9N6pB8jeUY69NiEVTdWutqBa3vgLN4DSCD8A6FVo/3qa8Vn1OzNyApD4eRMBlMEgdBjII+HGagWHVqMAX32aL+pNdugCwDZON9xMlOUA7sRk+WwkAIlfTmVUADxNAAI7EG4A9EL4AUDvtqz+SHUAt7XbyAlA4qcCBKAMh64zfKup2tUWVA/bUwk3APrx63xR59yaBIDpbFr9kayubWRTtdm8nm7u4XxRZzWfVAASufmivs7pTQTAk8wXgK833N1D0i/OBcAovp8v6nOnGoCBbFNdeLR2hCl0G86yCkD+Z+0IADCJld3uULJUS98BUnIv/ABgSE3VduHHm0JO8s3aEaIhAEnDVeknAKAQFn5BD12AoXXhx5HwA4CBfdzyX5/y83BOIwyy25gpAAGAeJgDAuafAQzpJoQfwmYABrNj9cfbtSPQAwFIGi5LPwEAhThwoUEFCMBAhB8AjGXb6o/U5fS7NbuNmQIQAIiHAITizRe1ChCA/n2aL+pDn7EADG2f2R9N1ab6TJzT79fsWnMLQNKgAgSgDFpgwVfmnwH058f5oj5xPgEYyT6/c2wKnF52Acjf1o4AAFN55cwDAD3php2fzBf1hRMKwBiaqu0GaL8r8GTn1AIru1ksKkASMF/UKkAACtFUrSoQUP0KsK/lvA/hBwBj2nf2x9HakTRoMRkxAQgAxCW7clMAYFSfDTsHYGwFV39kJ7eNmQKQdOiFDVAGFSCgAgRgVz/PF/WxYecATGDf6o9ZwhsCb9eOpC2rjZkCEACIiwoQAGBb3byPf84XdR+LTwCwlaZqD3qq/khyQ+B8UQtAIiYASYedkABlUAFC8cw/A9hKN+/j0GcnABMSwOclq3WJv60dAQCmpAIEANjUz6o+AJhSqP740NNf4WDtSDruZrPZGz+M8VEBkg67eQDKkPINH/TJ/DOAp91peQVAJPr8XZRygJBTG6yjtSMJUwECAHGxYwS+MsCXbXUzEK7Dw+dt+Oc/wn++Dg/nfe1OhCl9ns1mJwadAzC1nqs/YBACkER0/Vybqi39NAAUoana1xY14Mui9XungQfuHoQbX6qkN5h90P3Zk6ZqT2ezWfd1InAmQfch+Lhw8QCIxGnff42maru5Vtdr34jfbU+D4GOQVWcKAQgAxOdQ60NQAVKwm5VwY1nBcTtf1Hu3FQjhclcJ8rGp2pMQhOTyoErefu1+bm2QACAW3ca9cC/Vt1TnYubUAiurjUICkLRceUADAAqR4q4vNne1Gm4sqzrGXNydL+rz2Wx2Hlo3LKtCXq39QZhW9145TXQnLAB5Ox3o3inVAIRICUAAID5HKkBABUji7laCjb9aVm3Qqmp0obLkS2usUBVyrP0aEbgKFR/uBwCITqj+6L39VdB1REix3WNOFSDdNT7K5T5EAJKWaxUgAEAJut3O5p9F72aliuOvllUp71R/UBVyHKpC3q79QRiO4AOAFAxV/ZGyrAKQnAhA0mInJEAZsho4Bnu492A1uavwF+h9HkfMwus76766QZwhCDk2OJ0BCT4ASMLA1R8zz8PRyOY6CEDSou8rQBnc8MFXql+Hd79SwTHZPI6YhYqWZYssYQh9+9wFbYIPABJyPPAmpVSfh3PbICQAYRIeQgGAktwKQHpxtzqHI+Z5HLF7JAw5Dl/aZLGtT6HiQ7sMAFLz0RVb1/1Oz6yFbzbD6AUgaVEBAlAGC77wlYXBzd2szOGY5TCPI3bh3HZfH8PMkCMD1HnB/bK1mgorAFLUVO3JCFWwh2tHmEI210EAkpDuJtkwUACgIAKQb109GDpexDyOFIRrcB6+usWB4xCIHKkOIQSUZ2HIPgCkbIzqj5RnAN5pkxofAUh6bjxEAeSv201sUROKC0DuH87hWAYddounZb6oL2azWfc1e1AdcmSwf1E+heBDJRYAyRup+iN1txmdIxUgTMbDL0AZDux+hyzfAw/ncXxpWWUeR74eqQ45XKkO0S4rPzfL6y24BCAzp2O9nKZqj9wfTy6bTTsCkPRc6w0PAJQg4UGCq/M4VoeO2wXO6uyQbhbElwf8lUDEfX6a7kPFj2oPALIU7ld0pHnZbU73c03Vvs5hQ4cAJD12EQGU4WhlmDGULPY+up/Ce/XWPA52EXY3/vV5LxBJyudQ6XFR+okAIHtjzP5Y9XrtSBpyexY4zGFdQgCSHjuKAICSxN5H99pgY/q0Goh0u+5WwhA7L+PwOVR7XGhxBUAJwuaMsTdlHC7nqcG+BCDpcZMNUIZUd7xA32IvI/deZTBhgX11oLpAZBpCDwBKNnb1R8pUgERIAJIeFSAAZTh0neGL2B8iDtaOwEAEIqO5XznPl0IPAErVVO3hRJuRUn0ezi0AyWKzlwAkMd3Nd6LDQAEAdhH75g8BCJN5IRCZasEiVVdhh+OFQeYA8JfTiU6FKus4ZPGsIwBJ043dXQBAIWLfeS0AIRoPA5HZt0PVD8NXzDN1xrQMPC7D3BUAYEVTtd197gfnZCu5VYAIQJiMEmyA/Nm1C1/FvhPbYjJRWx2qPvvvYsYyDDkKD7a5/xzfhc+S7jxcCzwAYCNTzv5I8nl4vqhvde6JjwAkTbEPAwUA6EUK7T+7BeXuYWftGxCh8LN6+6BK5PVKKLIakLxK8Bpehdd3uxJ42EAGAFtQ/UGQxfqzACRNHrABgJLE3v7zwP0ZKQsBwTeVIkuhhdYyIFn9z6nek/crlWGXoTq++++3gkgA6M2U1R9fdBs0Et3EcJ/oJpJsCUDS5MYeAChJ7A8+hjSSrZV2URePvcamag9X3gMHj/SKPlr7Hz3tYQBzu/LsI+AAgBGEytAYqj8OH7k3SMF1Tp17cqh2F4CkyY0/AFCS2B8iDp9aHIbczRd17HN6AIDtnDpfrEi+2v1/1o6QAgEIAFASFSAAADCwUP0RSwDysKo0FWaPRUYAkiCl3wBAYWLfYX64dgQAANJzGtH8ilQDkNyqY7dpZxolAUi67ko/AQBAMVSAAADAgCKr/oDeCEDSpQoEACjCyhDmWL31kwgAQOJOIqr+mCVceZBbC6zkq90FIOkSgAAAAAAAfVD90Y/cWmAlX+0uAEmXAAQAKMlVzK+1qdrke+MCAFCmpmq76o83kb14bWbjIABhMgIQAAAAAGBfHyM8g6m2mc2tBVby7X4FIOkSgADk7cb1hW/EPgdEBQgAAMmJtPojWfNFnVsLrOQJQNIlAAHIW267RgAAAIhPjNUfXzRVe7B2kNE1VZv0IHQBSKLmi1oAAgCURAUIAAD0KMyxi7n6I9UA5H7tSNqSngMiAEnbXeknACBjgm74lqooAADoV7TVH4nLrQ2WAITJWBwDyJfPeFiRQC/dpMvCAQAoS6j+eBf5i3aPHQctsJiMxTEAoCQxl5K/WjsCAADxSqH6I9XKA9XrERGApE0AApCv2OcdwBSirgJJfTggAABlSKT6Y5ZwAJJbC6yk5x0KQNImTQQAShL7vU/SvXEBACjGaSIv1AYj9iYASVtuaSIAwXxRqwCBdeaAAADAHpqqPZjNZu+dw0Hltmn9YO1IQgQgaVMBApCnmOccwJRUgAAAwH5SmP2xlOrCe26b1t+sHUmIACRh80WtAgQgTz7f4XGxvzeS3hkFAEDeQvXHh4ReZNIL78RBAJI+u4QB8iMAgcfFXgEiAAEAIGYpVX+kLLuuPWFwfpIEIOmzSAaQn1vXFNYlUP0qAAEAIEoJVn980VRtcnP2dO2JiwAkfeaAAOTHzRI87e7J70xPiT4AALE6SfTKmLMXh2Q3ewlA0meRDCAz80V96ZrCk6KukAo76wAAIBpN1XYhwqkrMqrcxhYIQJiMChCAvNy4nvCs2FvECUAAAIhNF368SvSqpDp7IrdN68lW4ghA0qcCBCAvPtfhebEHIEr0AQCIhuoPepLcLJYlAUj6VIAA5EUAAs+LPQBJ9sEAAIAspVz9MUu4wtqabSQEIImbL2oLZQB5Mf8DnqcCBAAANpfq8POlVAOQ3NZsVYAwqdyG6gCU6l6wDS9SAQIAABtoqrYLP944V/Qg2SoiAUgeLJYB5EH1B7xgvqhVgAAAwGY+ZnCebDCKRJgnkxwBSB70lAPIgwAENnMX8Xl6u3YEAABGllH1R6qVBzk+3ycZRglA8qACBCAPAhDYTOxVIAAAMLUcqj9gbwKQPKgAAUjfnfkfsLGo3ytN1R6tHQQAgJHkNvvD/XU0VIAwGQtmAOlT/QGbs/kDAACedvLkdxjFfFHn+IxvBggAsLMLpw42FvvmDzvUAACYRKiWeJfZ2U9y4T1DBym+JAFIBjJNFAFK47McNqcCBAAAHpfj7I8kWy9lSAACAOzk83xRW9CFzcVeAeIBDQCA0WVa/ZGyq9JPQAwEIPnwhgJIl/ZXsIUEAkMl+gAATCHH6o+ZDUbRSDJcE4AAwPQEILC9m4jPmQc0AABG1VTtQcbVHzYYsTMBSD70jgdIk/ZXsJuY3zev1o4AAMCwcq3+SFl267UhaEuKAAQApqX6A3YT9cNEU7WqQAAAGEVYlP6Q8dk21yQeAhAmowIEIE0CEMiTMn0AAMai+gOeIAABgOl80v4Kdhb75o/kdkYBAJCeAqo/vmiqNsUNRjluWD9aOxI5AUgm5otaBQhAelR/QL4EIAAAjOG0kLOsxSw7EYAAwDTu5otaAAI7SmDzhwAEAIBBhaqIE2eZESUXRAlA8nJV+gkASMi5iwVZE4AAADC0rvrjVSFnObn760w79iTXikwAAgDTEIDA/mLe/CEAAQBgMKH6o5T2VzP319EQgDApc0AA0vB5vqhvXSvI2huXFwCAAZVU/UE83qZ2LQQgADC+M+ccehH15o+wKw8AAIa4zyyp+qNztHYkDUYWTEwAkhcVIADxu8u0DyhM4Y/Iz3pyAwIBAEjCseoPptJUbVLPOQIQABjXR+cbenMd+alUAQIAwBBKfK50bx2PpK6FACQjdhQDRO9+vqgNP4f+qAABAKAoTdWeFDpvLrnZE0GO67UCEADgUWZ/QI/mi1oFCAAApdFVgKlpgcWkbpx+gCjdC0BgEPcRn1YVIAAA9Kbg6o8vmqo9WDsILxCA5Cf2VhAApTqbL2qf0dC/2KtAAACgL6eFn8kUA5AcW2CpAGFSFgEA4mT2Bwwj5mDx3doRAADYQVO1RwnPwSAvZoAwKbuLAeLzab6ob10XGITNHwAAlMDsDy1mY5FUJY4AJD8WAQDi40YVhhP15o+wUw8AAPa9p1RdnFjlQWe+qHNsgZXUHBoBSH5UgADERfUHDMvmDwAAcmdT3VfJBSBMTwCSH4sAAPG4d6MKg4s9YFQBAgDAzpqqPVT98RctsCKRUqW7ACQz80WtAgQgHmeqP2BY3mMAAGTu1AVO3k3pJ2BKApA8eVMBTK+r/jhzHWAUdxGfZrvUAADYSVO13bDpD87eX5Iavr0ixw3ryVwLAUieVIEATO9MVR6MJuYqEH2KAQDYlZbK30pq+HbmBCBMyhwQgGndzRe1G1UYT8wBiAoQAAC2pvojK9ZqJyQAyZMdxwDTEn7AuGIOQF6tHQEAgJd5rnxEGAqfmhzXag1BZ1JSRYDpXM0X9bnzD6OKehB6og9pAABMpKna16o/nqTFLFsRgORJBQjAdOzSgfFFHYB4SAMAYEunTlhWctysnswmLwFInlSAAEzj03xRXzr3MLrY732SGRAIAMC0QvWHAORpybReWpHjZvVkWv0KQDI0X9QqQADGd+8mFaaRwL2PAAQAgE2dmiNHCkJYFz0BSL7uSj8BACP7KICGSd1EfPoFIAAAvEj1x0ZSvLfOtVtPEm2wBCD5ir0XNkBObuaL+swVhUnFHEAKQAAA2MSJ6o8XJXdvbbPktAQg+RKAAIzHDh2YXsy7qgQgAABswrMlKVEBwqQEIADj+NXgc4hCzLuq3qwdAQCAFU3Vnrhv3EgSi+6PiLll767MAGFSAhCA4XWDzz86zxCFqPvqpjIgEACAyXi23EyqLcJybIMlAGFSAhCA4Z3o5QnRiP29mOpONQAABqb6g0RpgcWkBCAAw/o8X9QXzjFEI+oKkFR2RwFALLrqybAoDCVQ/bGFpmqPkvnL/lfszyvZEoBkar6oBSAAw+laX3kYg4gkUI2lAgQAttMNg/6tqdrLpmoPnDty1VTtseqPIuTYPeLd2pEICUDydlf6CQAYiNZXEKeriK+LChAA2FAIPH4Kf7pbYLtuqvbU+SNTfra3596ajQlA8qYKBKB/Wl8Bu1ABAgCbO3vwJ7uhx7+oBiE3oZVTErvoI5PivXWWLbBS+EwWgORNAALQL62vIG6Xrg8ApC0sCL9/4kUsq0HMSyAXfpbLkWsXCQEIkxKAAPRL6ytgV3b2AcBmzl/4U101yE9N1XZBiApLkqX6Yy/e+2xMAJI3AQhAfz5pfQXRUwECAAkLlR2bDoN+O5vN/qMahISZ/bG7FGeAZNkCazabHa0diYwAJG8CEIB+3Lk5BfYVdvkBAI8IfeR3uedWDUJyws/7U63eyJBuEtMRgORNAALQD62vIAHzRa0CBADSdRbaW+1CNQip8bO6H63D4mEGCNOZL2oBCMD+fraoCvREBQgAPOKFwefbUA1C9EL1xwdXqkg3Gb5oAQiTu3MJAHZ2NV/UduZAWq5cLwBIzkuDz7ehGoTY+dnsQVO1Kc4BybGzRPTXQQCSP1UgALu571pfOXeQnJgfKuxGBYAHthx8vg3VIERH9UevvLfj8Db2v6AAJH961gPs5kQrQUjSdcR/6RR3qQHAYPYYfL6pZTXIWaK7xcmPTXZli/lZJVsCkPx5YwFs79f5or5w3iBJKkAAIB37DD7fxg/d+kiYNQKTCCHckIFfaaKfPfGILDeqx15pJwDJnwoQgO3czBe1m1JIV8ybP8ZY4AGAJPQ4+HxTXZut31WDMKFT94O9SjEAyVXUn6kCkPypAAHYXDf349j5gqRFvflDH3IA+Eufg8+3oRqE0an+IMi1zbYAhEmpAAHY3LG5H5C2+aKOffOHHacAFG/AweebUg3C2FR/9C/FEDPX9QYtsJhOAosAALH4eb6oL10NyMJ9xC9CqT4ARRth8Pk2VIMwFtUfMBEBSBliXgQAiMHn+aL+6EpANmLeACIAAaB0Yw0+35RqEAbVVO2J6o9BpPh+VQEyAQFIGVSBADztZjabnTz5XSBFMT9YCEAAKNYEg8+3oRqEodhsN4y3qf2FM265bQYIkzMHBOBxXYXcyXxR+5yEvAhAACBOUw0+39SyGuRCNQh9CNUfU867gTFE/YwjACmDChCAx52YlQRZijkAsZgCQJEiGHy+ja5K5bap2uMyrxY9Uv0xoDBTKDV3GV6KqD/bBSBlsLMZYF039Pxi7SiQg5gDkORK9QFgX5ENPt9UN7Ph36pB2JXqj1GkGIDk2gYrWgKQMtjdDPAtQ88hb1E/VFhEAaBAsQ0+34ZqEHZl1iTFiHl+kgCkDCqPCZ52AAAgAElEQVRAAP7L0HPIXALDBQ/XjgBApiIffL4p1SBsJfzcv3PWBpfifbUKkJEJQAqgvz3AX7qh58eGnkMRYu6ta+EEgJLEPvh8G6pB2JSOA+NI8b461wAk2nZkApBy3Jd+AoDidZ+DRwnsDAf6EfN7XQUIAEVIbPD5plSD8CzVHxRKAMLkVIEApTtVEQdFEXYCwIQSHXy+jWU1iPa6PKT6YzzRzp14hueUkQlAyqHdC1Cyn+eLOqfSe+BlMT9YpPigBgDbSnnw+aa61/dbU7WXIfChcOHnQPUHz8k1ADEEncnZ9QyU6tN8UduBA+Vx7wMAE8lk8Pk2ugXv66Zqc654YTOePccleORFAhAAcnY1X9RK0qFMMVe/2hUIQO5KrL7uqkF+UQ1SrnDdP5R+HkaW4oyhXCtAop1zKAApx2XpJwAozs1sNjt22aFYKkAAYAKZDj7fhmqQcqn+4EXzRZ1rABJty0MBCAA5uu/6T84XtflHUKjY3/+hNQgAZKWAweebUg1SGNUf02mqNtrKg9I0Vfs6xpcsACnEfFGrAAFKIfwAlm6cCQAYVQmDz7ehGqQcqj+mE+Wi+wvunv92sqIMowQgAOSmCz+0vgFmkc8BsVMNgKwUOPh8U6pBMhd2vWu/zDZybYMVJQFIWa5KPwFA9r4XfgArYv48SHGnGgA8p8TB59tYVoOoFMjPqcqnSWktGw8VIAAwoC788NAFrFIBAgAjMPh8Y90i+U9N1V6bW5CHUP2hxRnbyrUCxAwQJmcOCJCrn4UfwCNUgADAwAw+38nb2Wz2H9UgWVD9Mb0U76sFICMSgACQuk/zRe3BAXiMChAAGJ7B57tTDZIw1R/R8P6JhxZYTE4FCJCbLvw4cVWBx8wXdcz3PhaKAEiewee9UA2SrmP3dOzIEPQRCUAASNVn4QeQstAyBABSdubq9UY1SHqEVnFI8T2TawDybu1IBAQgBYl8FyTANm5ms5nwA9jEVcRnSQACQLKaqj0N1Qv0RzVIIpqqPTH4PxqqcHiWAASA1HThx9F8Ucfc2x9gEwIQAJIUZh9YpB+OapD4+flnH9muZ8RY5S4AKU/MuyABXiL8ALYVcwWsAASAVBl8PrxlNchZCJyIhOqP+IR5RMmYL+rrjC+HAAQAdiT8AHIjAAEgOWGh8YMrN5ofZrPZdWoLvJk7Lf0EQEoEIOUxBwRIkfAD2JUKEADol8Hn4+uqDX5XDTK9EESZfROfFN8X92tH8hBdWCsAASB23U3BifAD2FHMnx0WMABIisHnk1MNMj2zP+KU4rycnNtgRUUAUh5vLiAl96Hyw2cXsJPIPz8sIAGQDIPPo6EaZCIheHpX5IuHzZkBwuTsoAZSIfwA+hJtebmFCwASYvB5XFSDjE8AGK8UW8vmukYrAGFyFhKBFAg/gD7F/FmSYrk+AIUx+DxaqkFGovojeikGILmud0T3WSQAKYwe+kAChB9A38wBAYD9GHweN9UgwzvJ/QVCT6Jr8ysAKdNN6ScAiJbwAxiCChAA2JHB58lYVoNcqAbpV1O1ByqgopdidY5N6iMRgJTJGwyIkfADGIp7HwDYgcHnSXo/m81um6o9Lv1E9Mh7gCFku/bRVG1Um7wEIGWyuAjERvgBDCnmzxatKgCImcHnaequ2b9Vg+xP9Uc6/KxHJaprIQApk12QQEyEH8DQ3PsAwJYMPs+CapD9qf5IR2qtZXN+RhGAMDmLjEAshB/A4CL/jEmxXzEAZTD4PA+qQXYUzpcQkEFkvg6iBRaTswsSiIHwAxjTnbMNAJsx+DxLqkG2d5raX7hwB6WfAB4nACmTxUZgasIPYGy3sZ7x0GIEAKJg8HnWVINsKJwfAUhaUgxA7teO5EEFCNOaL2oVIMCUbrobE+EHMLJoAxAAiIzB5/lbVoOclH4innHqfcAIcl0XMQOEKNy4DMAEbkLlhyAWGFvMAUhqAxsByJTB50XpFvd/a6r2sqlarYNWqP5IlnvqeET1mSIAKZfFR2Bswg9gSjEHIFpQABALg8/L867bhR7mvvDVieqPJKV4T53r+sibtSMTEoCUS+sZYEzCD2BqKkAA4BkGnxetW+z/RTXIX4RBaUoxALE+OwIBSLksQgJjEX4AMVABAgBPMPicoPhqkDAXJard62xMgBuR0FIxCgKQckkYgTF8Fn4AMZgvahUgAPA0g89ZKr0aRBDImKyVjEAAUi5vMGBon+aL+lj4AUTkLtKLYcEJgMkYfM4TiqsGUf2RvgRDu5w3qEdzLQQg5Yp5FySQvi78OHEdgchEe/+j3zYAEzL4nKeUVg2i+iN97qnjIQBhWpG3gQDSJvwAYhXzDisPawCMzuBzNrSsBsk2IGiq9lj1BxPQMWMEApCyxdoGAkjXj8IPIGIxP2AIQAAYlcHnbKmrBvmpqdouCMlxflmxg98zk9TP5nxR59wCyxB0oqAKBOjT9/NFrXweiJkKEAD4L4PP2UVXMfSfnKpBwhycd2vfIEWvXTUeEoCUTQAC9KULP86dTSByKkAAwOBz+pFTNYhKKKZ0n+nZj+azQQBSNgEIsK/uF/U/hR9AIlSAAMBXKrfpQ/LVIKo/shNN26Ut5NoGK5oKQwFI2QQgwD668ONovqgvnUUgBfNFHXMFiHJ9AEZh8DkDSLkaxOwPGEiYNTU5AUjZBCDArpbhR84Du4A83UT6qixEATA4g88ZUHLVIE3VdhW479e+QcpUVcclilBUAFI2AQiwi27x8ED4ASQq2iqQWHZIAZA1g88ZWkrVIMLA/LxJ8BXpqjEwAUjB5otaAAJs6yZUfsTcRgbgOTE/YOQwRBSASBl8zoiW1SBnsW7wCNUf3g8wLBUgROHOZQA29En4ATAoFSAADMngc8b2QzfgOYRvsVH9kalEZ9HkygwQoqAKBNjEp/miPhF+ABlQAQJAcQw+Z0JdS6LfY6oGUf2RvdQ2FeXcAksAQhQEIMBLfu7Cjxf+DAAAECGDz4lETNUgnm9hHFpgEQUBCPCc7+eL2sMSkI35oo55h1WM7SEASN9Hg8+JxOTVIOH/93TtG+TEPTXfEIAgAAEecz+bzf41X9Tnj3wPAABIQOiF/4NrRWSmrAY5FQgSk8g3aO3rXQx/CQEIAhDgofsw7Pxi7TsAebiK9FVE8YAAQFYMPidWo1eDqP4oRmozQBiYAAQBCLDqJoQf184KAACkq6naE+E6CRizGkT1RxmimDvBV03VHkx9KgQghZsvagEIsCT8AEoRbZl5JINBAUhc2Omu+oNULKtBLgauBlH9QaxirVDvgwCEKNy7DFC8zyH8+KP0EwEUwWcdALkz+JwUve86lTRVe9z33z1URHlPlEEFCN8QgNCx2xvK9mm+qI+FH0BBYr738cAGwF4MPidxXUjx7wGqQT6uHSFXgq64TF7hLgBhZhckFO3H+aI+Kf0kAMWJ+d7H0EYA9qX1FTnorRokVH+8WfsGxCPaFr05EIAwUwECxfp+vqg9HAHFiXzWkQoQAHZm8DmZ6asaRPVHYczVi4oZIERBBQiUpZv784/5oj533YGCxToDTQUIADsx+JyM7VwNovoDJicAIQoqQKAcd2HYufc9ULpYPwcnf0AAIFkGn5OzXatBtHwuU2qbirTAGpAAhJkKECjGTddaRfgB8EWs9z92KAKwNYPPKciyGuTFYCO0QdISrkzaysZj8vegAITY+2AD/fgUKj8EngBfRXv/01StKhAAtqX1FSXpqkF+a6r28oX7JrM/AAEIf4m1Dzawv0/zRX0i/AD4Rsyfic89yAPANww+p2Ddz/11U7WnD0+B6o/iJXU/PV/UWbfAClWKkxGAsKQKBPL0fRd+uLYAa2K+9xGAALARg8/hSzXIL49Ug6j+KJv76bhMOpPlb2tHKJWd4ZCXrqqrq/q4cF0BHnX72MFIeGADYFMGn8NXy2qQ7j1xofoDojJpAKIChCUVIJCP+zDvQ/gB8IT5oo45AJn0AQGANBh8Dmu+VINY4yLRAOxq7Ug+tMAiCipAIA833c7h+aJ2wwfwsrtIz9GkDwgAJEPrK3icqijgLwIQliyWQvo+h8oPgSbAZmKtAlEBAsCzDD4HeF6YkUQcJt3gZQYISxZMIW2fDDsH2NptpItHb9eOAEBg8DnARrpF98uETtVlxsG2GSBMT7scSNr3wg+AnUQ7B8SONQCeYfA5ACkRgACwk27Y+b/mi/rc6QPYScyD0M0BAWCNwecAGztwqqIxaYW7AIRVV84GJOM+zPu4cMkAdhZzAAIAj9H6CmAzqQUgKbXrSooABCA9N90vcq3rAPYW8+fo0doRAIpm8DkAqWqqdrLnGwEIqySNEL9PofLjD9cKYD8+SwFIhcHnAFvTUpYv/uY0ACTj1/miPnW5AHp1M3VP2ieoAAFglcHnANuZdPD2DnLv8jFZSzIVIKxSAQLx+l74ATAIVSAARM3gc4CdJBWAFFCdLgAB4FHdsPN/zBf1+WPfBGBvse600uMdgCWtrwC2F2OVNxMQgPCX+aJWAQJxuQnzPgw7BxiOChAAomXwOUBRbjJ+sYagA/CNK+EHwCii/ZwNLU8AKJTB5wD7aap2srZLO7I5awCGoPPQld0lMLlP80V94jIAjCLmh4zUBjcC0C+DzwH20wUgt85hFMwAAeCLH4UfAKOKudJOBQhAoQw+ByhSzl1A3qwdGYkAhIfMAYFpdMPO/zVf1ErcAUY0X9QqQACIkecCgP2ltqEo6xZYobXj6AQgANO7D/M+LlwLgElcRXraVYAAFMjgc4De2FAUl0mebwQgPKQCBMZ10/VBNOwcgEd4YAMojMHnAEWzNjQAAQjAdD6Fyo+sSxwBEhDrBpDJBgUCMBmDzwH6c5TYucx9fUgFCNObL2oVIDCOX7th58IPAJ4x2aBAAMbXVO2BwecAZMwMEIBCfD9f1KcuNkA0ot0AEhbDACjDuesM0KvU7qVzb4ElACEasQ4ChdR1w87/MV/UHmwA2JQABKAATdUeG3wO0LukKqoL6BKiBRZAxm7CvA8DrQAiE3kLUAEIQOYMPgeA4QhAeIwFWujXlfADgB0JQADyd2ruE8AwmqqdpOpgDzcZ/yhMci3+tnYEZjNDmaE/n7ph584nQPSuIm09MkmfXADGEWY9/eR0AwwmtfvpnNdlX60dGYEKEB5jlzr040fhB0AyYn3QSG3HGgDbMR8QgGKE4H9UAhAeowIE9tMNO//XfFHr4wuQjlg3gKgAAciUwecAozhK7DTnvjF99ABECyweowIEdndv3gdAkmLdAPJ27QgAyTP4HIAn2JjeMwEIa+aL+o+mateOAy+6CeGHX1YRCIPOVndOP/zvs/Df+2gv88cT4fH16s3LfFFfrv0JIBaPvYej0C2S+d0CkB2DzwHGoaI6Ll1FzqhrIwIQnnJjxyFs5VP3EGOBalgrocZqcLEabEzZQuD92pEHHoTLNyEcWQ1PloHJ7XxR3679C4Ahxfz5fTj2QwIAwzH4HGBUqc3U01GkZwIQnmIRFzb363xRnzpf+wsPgwcrocayV2f331+l/NoesRoyr4UnISy568KQlWCkWwD9Q4s16F/3vlIBC8BIDD4H4Cm5r8maAUI0rg1jg418P1/UHmC2EPodH4Zfegch5Hit6uxRb8LX8vP4y07BB+HIZfjMvhWMwN7uIw1bRy8TB2AYBp8DjC61CpDcCUCIhgoQeF63SHZspsPzQsuqw5WgI8dKjqk8DEeWwcjVStXItZ9R2IoNIAAMxuBzgEmktgZhY2PPBCA8xZsNnnYXwg/vkwdWHuoOVXRM5l34+jD7NhS5XlaLmC8CT7qNNAA5WjsCQIoMPgfgWd1s2cxb847+vCUA4SkqQOBx3eDqI8PO14Xw41LwEaVlKPLD7Ou1ugvX6suXQAT+4r0AwCAMPgeYTlO1R7ojlEsAwlPsbId1n7pdW8KPJ50LP5LxJlSILKtEVgORCz/jFCzWAERbLoD0mRsIwKZucl5f6dqlj9lVRQDCowoot4Jt/Tpf1KfO2uOaqu0e6N4/+s3n3e8YuBqa3q/VQOS3pmq7m62LEIYIxCmJChAAemfwOcDkXid2CXLflDjq9RCA8Jys00bYwvfzRW3H1hOaqj0JQ86vwi/p5YL5Hw/CjduhWy11Za0r//UgfD38Zw+fL3sbvn5qqvZ+JQy5iP0vDnuKNgAZe5cUAP0w+BwgCofhuZY4CECIhhYolO4+DDvXJ/IZIRyKIiDa5lp1i4nhl+7D/xSQfOvVsjokhCGXK4GI3xNkpQtpI66ATW3XGgBfGXwOwLZuM1+bGDWQEoDwnGsLgRTsPgw7t9s2UyvXdi00CTv1DsPXwco/vyr8tL0Krc7eh1ZZn1SGkKG7SBeqDh/7vAIgXgafA0TjILFLoTVvjwQgPMfOXkp1E8IP74FChWt/+XCxMTzELsOQI6HIN5UhXQhyJjQkA7eRBiAqQADSo40uQBxSC0Bydzjm6xOA8BxpIyX6PJvNToQfPCbMMLldLdVcCUWWgUiJlXOrbbLuQp/ri6FnvsBAYi03H/UhAYD9GHwOwB5yf5Y2A4RoWLiiNJ/mi/rEVWcbT4QiRyEQOSrwwbfbOf9L99VUbRconmuRRWJivf9RAQKQCIPPAaKT2mYiAUiPBCA8RwBCSX6cL2oPKfQiDGP/q33WSiDS7QR8W9BZ/jIvZKUq5Fx1FQmItY2bsn2AdBh8DhCX0ud5xmbUdZHv/vzzz7WDsNRUrR8QSvD9fFHrz8sowo7A45VApKQbseWskI/aYxGrEFj+HuNfb76ov1s7CEBUQnvU/3NVAKLzv6lsyCvhd8mYzzYCEJ7VVG2sg0ChD/dh2LmhzUymqdquFPckhCElfd5+DkPTL9e+AxMKIeX/i/Qa/F14CBC3pmovzf4AiNI/U3r+LGBT+mjX43/WjsC3PGSTK+EHUeh+BueL+nS+qLsdHn/v2rHNZrObAq5O1x7r926RIOy4hyhEvitMGyyAiBl8DgDxEYDwEgEIOeoWlw+EH8Sm29ndzaKZL+rDgsKQdyEIuW2q9mTtuzCNWN93AhCASBl8DhC91O6l79aO5GW06yEA4SUCEHJzEyo/DGImag/CkH/MZrNfM78B6tp//RaCkOO178K4Yv0dIQABiJfB5wBxS+1eOvc12dGux9/WjsC3BCDk5NN8UdthTnJCtVL3UH0a2kWdZDxAvVs4+HdTtVdhWLoZIUzhOtIWJq/XjgAwuTCs9idXAgDiowKElwhAyIXwgyx0gUD4We4etL/PuEXWu5UZIYdr34VhxVoB4r0AEKdz1wUgeqndS+e+JjvaLFABCC8RgJCDH4Uf5KZr4zZf1OcrLbI+heH+uemCkP80VXsedlfCGGKtPFIBAhAZg88BkpHavbQ12Z4IQHhW14P+ue9DAr7v5ii4UOSsa5H1oCokx1khH7q2RE3Vflz7DpTjrWsNEA+DzwFgZ4agE5Wch+6Sr/sQfihHpxgrVSHdjcQ/Z7PZ58xeezfz5KcwKH20clnKY/YMABsy+BwgHalV6+W+KX20358CEDahCoTUdOHHkfCDkoVZIV1Lhr+H9lg5eRPmg1xoi0VphH8AcTD4HICBZb8eGyopBycAYRMCEFKyDD+uXTX42sowtMf639ls9nNmc0Leh7ZYp2vfgf1dOYcAPMNmK4DE2EAXnVEG0wtA2IQAhFTcCD/gcaE91sfQZ/PnjNobdm2xfmmqtgtCRrl5gompAAGYmMHnAMlKKQCxHtsTAQib8IYjBcIP2MAyCAlzQnIamN4Nh/6PIen0yBwQAJ5i8DkAg+q6ORRwhlWAEA0BCLFbhh9/uFKwuZWB6TkFIT+pBiFzKkAAJhQ2Wxh8DpAmz4lxMQOEaFhUJmbCD9hThkGIahD6oAIEgG+E3vFmjwGka5QF9x7lslHxKQIQ4qClEBH7NF/Uh8IP6EcXhIQdMbkMS19Wgxh0xy5i/d1i1xrAdM7C/DEAGEPuXXm0wCIqOSyEkZf/z97d5MaNpekCZl703L4rsHoBhNUrsO4K7B7GyCqA83SvwM4VpGoeQCpHHJZzBRVaQUqIBZS0grZW4IuTecLFjAjJ+mGQ5+d5AMMFypVWkHIEed7zfV8IP05dUxjXnmHpub//h2qQEILYrcmjJLwBxMIbwAy6tg8tCN869wBZ0062QgIQHkoVCCkRfsCBDYKQsCPj18zPd1gw/rlr+89d2+dW8sy8kgwAzbgBmMW50w7AxFSAjEAAwkNpMUQqhB8woeV6cR3/zf1X0zQXmZ/7sGvzOu7ghIdIdQOIII9qhAq+ru3fCbCZk8HnAMXI7X6i9ABkkup2AQgPpQKEFAg/YCahHdByvQjBwX9nPogt3GD904B0HsgcEJhR1/bhvu/npmn+0TTN/8ZKvg9mOzElg88BivLa5UzLFPd1AhAeSgUIcxN+QAKW68Xn5XpRwnyQMCB9ZUcx36ECBGYS35/Ptv72tzEQ+VfX9qGi7yxUh7hGHJjB5wDMpYb1WAEIyVABwpyEH5CYwXyQ3zK+Nm+0xOI7Un3gsPudGpx/Z9E5tCP6MVSHdG3/JVaHnKoOYUwGnwOUJ7N5etZjRyAA4aFUgDAX4QckKs4HCTtv/1/GbbG0xOI+qT5wWOClaLGq4zGLzi/in/8lVodchvf1zBY4SJPB5wDlUU2dloNvSBSA8CCh97szxQyEH5CB5XqxGrTFypWWWOyjAgQmFt+Hn7voHPp7f2ya5vdYHXIeq0O8x/NgBp8DkAAb0kcgAOExcu71Tn6EH5CZ2BbrP5umucj02oWWWJd2DLOR8AYQC3KU7Hutrx4r/Lfex+qQ/41h9wfv9dzH4HOAomXTArmSDelmgJAUVSBMRfgBmYptscIN5f9kGpyHheWwOOY9iI0k27uZc0CJntD66inexEHqvxukzj0MPgeAaQhASIqyK6Yg/IACLNeLszgkPcdqkLDg8UtYFNv5CjW6TvQ1C0Aoykitrx5rOEj9axyk/kHAWDeDzwGKl1tLTB15nkkAwmOoAOHQhB9QkAKqQX40F4SEAxA/l5TmUwI77t/G6pDNIPWzuBhOXQw+Byhbbm0wS1+PfbNzZGQCEB5DBQiHJPyAQsVqkLCAdJXhK3wTW2LpFV+vVAMQP5MUI4YMPyb2el7H7+mfcZD6Z4PUy2fwOQCURwDCY6gA4VCEH1C4OLwtLHD9PcNX+jqGIHYB10kFCBzQTK2vHutFrA7ZDFIP1SGfhONlMfgcoBq5tbosfkP6oe+pBCDA3H4TfkAdluvFl+V6ERYW/pZhS6wXcRew96v6qACBw8pxx30Ixj8OBqmfh0HqqkOyZ/A5QB1yu++oYUP6Qe+hBCA82HK9WDlbjCy0w7GYCJVZrhfnGbfEMhy9PipA4EASbX31WGER5X0YpB6rQ1YGqefH4HMAmJUABChSWPg8CTvCXV6oz6Al1m8ZvvgwHN2A1EqEYf6JvtLXO0cgI5m0vnqKN4NB6tdxkPq7/F5GdXyuA1Qks/bGNaybHbS6/T92jsD9LqaYzk/xboQfQHwPeBcrKnLbAfw+9in1XlaHK4EDjK6GYdOv4udbCM6bGPp/DnOlEg5Xq2PwOQCJM5P5mVSAAFMLff/fWTAENgZzQXKzGY6uFVH5kvzMMpifXMUAOffWV0+xGaT+rzhI/cwg9XkZfA5QLc9waTEEnaSYA8Jz3Mbd0tJr4C/iXJD/ynA4eghBri1gFc/nFoxLu6E/Pz9+jIPUv8RB6qdC9ckZfA5Qp5ye32rYQGwGCFCMD8IP4C6DuSA3d/yRVL2IlSBCkHKl+tChAoTsxHZDWsr91Ys4SP2XOEj9Mg5S97lyQAafA5CDStbRBCAkRQUIT/U/cYc3wJ3izd1xnLmQEyFI2YT3MIL4HvnRufyu13GQ+u9xkPq5QeoH4dkEoF5Hrn1SDro5RgACTOHX5Xpx5kwDDxFnBJ1kGoKExarTna+QOxUgMA4Lzo/3KlaH/KNr+69d23+O1SEWbp7B4HOA6uX2OZpbq+ikCEB4lOV6oQKEx7pYrhcWA4FHGYQgv2V45n4RghRHBQg8k9ZXo3kbq0P+FatDzmIrJx7I4HMAMlT888gh72cEIMAhhd3byvWBJwkhyHK9CO8hv2Z4BoUgBYmBXIq0XCMLWl8dzKs4SP2fcZD65zhIXXXI/Qw+B8B9dEUEIDzFhbPGA4TyvNOEF42ATMQqMiEIc0uxJZsFPHKhFerhvYjVIb/E6pAwSP2T2VR/ZfA5AFFu99E1rK0dbAOHAAQ4lNM4zBjg2YQgJCDJhw6Lm6QuzKtomuaNCzW517Hq5vdYHfLHIPWu7V9Wdh62mUMDwB8y+0ysYX1NAEJSzAHhe35arhefv/NnAB5FCMLMUr3/qX0xk4TFVkyfXKPZvdgMUm+a5n+7tl/FQepVBagGnwOwxUaiSghAgLGFoecedIGDEILADg9upOxcq7YkvYmD1H8fDFIvem6fwecAZK6GFliGoJMUFSDc5cbQc+DQhCDMRAUIPILWV9nYDFL/R9f2X+Mg9Q8FDlI3+ByAbTl91mkx/wwCEGBM7ww9B6YgBIFvSlukpABaX2XtbawO2QxSP4uDw7Nl8DkAd3AfnRYzQEjHcr1QAcI+Pxl6DkwphiBXGZ50IUiGEr7/8eBGirS+KsPrWB3yz8Eg9dMMB6kbfA5A7mrYbHywOV0CEGAM5n4AczkRglA5AQhJie9tWl+VZzNI/Zc4SD1Uh3xKfZC6wecA3CObWXq1bDg+1CYLAQhPleNiE4dx2zSNRTxgFrHtnhCEqVwkeKYt7JGM+NB65opUIVSHfBwMUg/VIe9Sqg6J34vB5wDcxSy99BwklBKA8FTmPLBxulwvrp0NYC6DEOQ2w4twlvruWdJX4LBi8qX1VZ1exeqQf8TqkFQGqRt8DgAIQHgysx4IfluuF5+dCWBuGYcgYWFmJQTJhjkgcIew+9+gaaLhICjmjIIAACAASURBVPXrOEj93ZQnJw4+f7/zBQD4t9xadqZYjT42FSAkRQUIWl8BSYl9UU8yvCpCkHykev+jfJ9ZxVZDBk2zz6s4SP0fcZD65zhI/dDBrVZsAJAfM0BIigoQTuOOa4BkxBDkbxlekRCCnKfUO529Ur3/EZ4xN62veIgXsTrkl1gdchmrQ0Z9Dwvtt+KMEgC4l1ayyRGAkBQL33W70PoKSNVyvQgLcT9leIFex0oQIUi6VIDAFq2veIbXsTrk91gdch6rQ578nhb/v592vgAA++UUgKTajndMWmCRFBUgddP6Ckjacr0Iix+/ZniVwmKQgDlRscIoRSpAmIXWV4zoRZzZ8UscpL6Kg9Qf+/5m8DkA8BcCEJ5E66Oq/bRcL65rPwlA+pbrRQhrrzK8VG/CLtido6QixUH7KkCYi8VmDuVNHKT+exykfv69QeoGnwPwBDYSpUUFCMnJcVGJ57kxUBDIzEmiC9bf875rey080pRiFYhe90zOYjMTehV/1sIg9a9xkPqHPX3bPacA8Fg5bSSqoQXWQTbWCEB4DlUg9fmk+gfISXzPyjUE+Rh6oe8cZW4+B6me1lfM7G2sDvlXrA45i5sGhMEAkLk9GxyeTQDCc5gDUperOFgYICtxbsOHTK/aL0/of85hJXn/E3fjw1Q+xV35MLdXcZD6R1cCgCdwD50eAQhJsQOyLrkuHgI0McD9e6ZnYnWIXTA8mTlYVC2GbT/Wfh4AAKa0XC9qaIF1EAIQnkMFSD1+80YL5G65XoQg9yLDlxH6oH6OLWeYX6oBiN1rHJzWVwBAYTxjpWf05xoBCM+hAqQOoW++HvRAKd41TXOT4Wt5bdExGSpAqJnWVwBAScyPqoAAhOdQAVKHU4PPgVLE97N3mb6ct3HIKzNarhcqQKiS1lcAALPLsaPBY5kBQjosilfhYrlefK79JABliUPR/yfTF/Wxa3tVefPLsYoInuvMGQQAStO1/bGLmhQBCMm5ckmKpfUVUKzlehEW8n7L9PWduUmfXYpVIH4mOJhYfaZFBABQInNACicA4blUgZTrLOE2HwBjOM00yDcUfX4pfj6+2DkCI4iB60fnEgBgdqsKLsGbnSPPJADhuSyQl+lmuV7oMw8ULbZyzLXS7ZWh6LNK8v5HZRAH4r0GACiZWXqFE4DwXAKQMml9BVQh83kghqLPJ9X7H1VBjErrKwAApta1/ahzQAQgPJcApDxh8HkNJXUAf8h8HkgYim7H0vRSvf9RAcJotL4CACqR0yaiWtbrBCAkRQBSHtUfQI3Ce99Npq/bPJDpXSb6ffk5YExaXwEANbCJKD2jPtcIQHguAUhZ/m7wOVCjzOeBvKhoJ1AS4s9LikbdKUW9urb/oPUVAAAzGTWUEoDwLBbLi3LbNI1e8kC1Yvu/nzJ9/a+7tj/bOcohXSV4dgUgPFvsueyeEACoRTb30FrWP40AhDHk2jKEvzpLeEcrwCSW68WnRBe2H+JH80AmleJnpgCEMZzHyjIAgBq8cpWTowKE5KgCyd9NXPQD4M9WWLeZngfzQKaT4hwQD288S2x99cZZBABgRmaAkBwBSP6EHwDRcr24zPh9Meza/rxzlENIsmpSAMZTaX0FANQqs0r6i50j5RGAkBwBSN5C9cd57ScBYGi5XpxlfGP5Ju7i5rBSrABpxi4XpypaXwEAkILXY34PAhDGIADJm51+APvl3Arr567tLYQfVqpzs1SA8GhaXwEAlXMPXTABCGMQgORL9QfAHZbrxXXmIfG5dkgHpQKEIsT3CRtiAICa5XQPvdo5UqAxN/QJQBiDACRfHnYB7pF5K6zX3ucPZ7leqAChFFpfAQCQmtGeawQgPFvcIUt+VH8APEzOrbB+zGygX25SDMdUgPBgXdu/a5rmrTMGAFTuqPYTkKDRrokAhLHcOJPZsSsY4AEKaIX1WSssYFt8X7AZBgAgrwAk1Va8YxOAkBxVIHlR/QHwCJm3wnphkfNgUuy/a5A1D6X1FQBAflJtxZssAQhj8Y8vL6o/AB4v51ZYb2OrGwCtrwAA/kob2fSM1spZAMJYaim/KsGt6g+AxyugFda5VlijS7ECpDH3hftofQUAsCOnqlhrsI8kAGEsKkDycVb7CQB4qtgK6yrTE6gVFtDEe0GtrwAABnLZLLZcL2pZgzUDhORIH/NwKwABeLbTjE+hVlgjWq4XSVaAjFkuTlliddB7lxUAYIc2WGl5NdZ3IwBhLCpA8vC5oqQY4CCW60UI/X/K+OxqhTWuXOfCUBmtrwAAipFrV4JZCEAYRVwMIn2GnwOMI1TT3WR6Ll+oBhxVivdAdq+xz6cxd9IBABRmtJZLE6hic/NYsw0FIIzJDsi0XcQBvgA8U6ymy7kV1nuDskeT4sOHCh/+Iv57/9FZAQC4U04BCI8gAGFMqkDSZrcvwIji/IffMj6nWmGNQwUISdP6CgCgOLWswY7yXCMAYUxmS6TrZrlefK79JAAcwIeMKyBfxe+f50nx/ufFzhFqpvUVAMD35bSJqJY12FE27AlAGJMKkHTZ9QdwALG1YM4Vdh+7tlct8DxJ3v+4rjRaXwEAPIbq+PQIQEiOCpB0CUAADmS5XnzKeCB6o0Xis6V6/+MBjsa/bwCAImmB9QgCEMakAiRNvxl+DnBwOQ9Ef9O1fc7f/6yW60Wq9z+GOFaua/sQzr6u/TwAADzQm4xOlE3ojyAAYUz+8aVJ9QfAgRUwEP3MQPRnSXEOjACkYrEF2sfazwMAAFlTAUJaEt4BWbNbw88BJpPzQPQXcVAyT5PiPZAApG42wAAAPFLX9rncQ9eyBvti58gTCEAYW64LP6Xy8AswkQIGov9ocPaTpdhqUgBSKa2vAACeLIt76OV6UU0XnjE6FQhAGJsqkLQIQACmdWYgepUEICRB6ysAAArz7E16AhDGZg5IOm60JQOYVtyJk3MrKQPRnybFAOTVzhFqYPMLAMDT5VQRf7VzhL0EIIzNgns67OIFmMFyvQgLkBcZn/tPBqI/WooByCjl4uSja/sPWl8BADxLTvfPtWxCP9k58kgCECiX4ecA88m5CuRVHOjOwyUZgGS2g41niAM7c37fAQCAgxCAMLaVM5qEqziMF4AZLNeL8Hn4a8bn/kNcUOUBEv7MVQFSj1B59qL2kwAA8EzPrjaYUC1deJ79XCoAgTLp/wwwv5x3Y7+wm/zRUhx+rwKkArH11ZvazwMAQGVqaYElACEtcccr83MdAGYWqwJ+yvg6vO/aPqcdUHNLsQpEBUjhtL4CABiV++cCCUCgPDfL9cIweoA0nDVNc5vxtbCw+nApBiAqQMqn9RUAwHheZ3Qua1n7e3alswCEQ7hwVmdl+DlAIpbrxZfMQ4Q3qkAezOwtJqX1FQBA1WppgfVsAhAojwAEICHL9eIs0fkQD2Wu1MOkuAPL4nihurZ/qUILAGB8scUoCXnuNRGAcAjmT8zn1hwWgCTlvFD5qmv7052jbLMDiylpfQUAcBi5BCA1tb8XgADfCD8AErRcL8Ji5VXG18ZO8+9L8gFEC7PydG3/rmmat7WfBwCAmsV2y7V41nB6AQiHYBF+PtpfAaTrQ8bXJlSBCEHuUdkDCDOJra+0pQMAOBwbiNJz/JzvSAACZRE+ASQqtii8yPj6fIiLr9wtxSofD3Bl0foKAICNnGdNTkYAwujMoJjNzXK9uK70tQPkIucqiheZV7FMQRUIB6P1FQDAJHLa9FXLOqAKEOAPgieAxKkCKV6Kc0Ce9bBAGrS+AgCYjPvn9JgBQpJyXtzJlQAEIA+qQMqVYgWIwKoMZ1pfAQCwpZYKEAEI8AcBCEAGYhXIrxlfK1Ugd0vxs9gOtsx1bR/muLyv/TwAAEzkKKMTXUsA8nrnyCMIQDgUi/HTMv8DIC+qQJiKqoGMaX0FADC5V055WQQgUIYUe44DcIcYWqsCKUys7klO1/aqQPL1yUM4AAB3qGYz9HOeaQQgHIoKkGk53wD5UQXCVIRVGYqtr36s/TwAAEwtow1ENXWDefIzjQAEyqACBCAzqkCKdZHgC8upjzFaXwEAzM1zTnqe/EwjAOFQLMhPKNWWGwB8lyoQpiAAyY/WVwAA88klAKmpAkQAQlqW68UXl2QyV5W8ToDiqAIpUoqbEgQgGdH6CgBgdlm0wIrPk3yHAIRDsjA/DdU2AHlTBcKhCUDyclb7CQAAgC0nO0ceSADCIakCmYa0FyBjBVSBnO4cqZsKEJ6sa/sQiL52BgEAZpXT/fPNzhH+QgDCIalMmIb5HwD5y3nY8auu7YUg/5biBhCzJDLQtX1otfCx9vMAAJCAnAKQWjZGmwFCklSATEMFCEDmlutFCLMvMn4VObfxGtVyvUhyA4hZLVnIOQgFAIBDevKmLgEIh6QCZAIGHgEUI+cQIVSBvNs5Wq/bBF95FoMca6X1FQBAUnK6d7Yu+B0CEA5JBcjh5bxbGICBAqpADEP/txQ3gagASZTWVwAAyXmR0SWpJgDp2v5Jg9AFIBySCpDDEzIBlCXnKpA3T70hLVCKn88qQNKl9RUAAByIAISDWa4XFucPT8gEUJBYBXKT8SsyDP1PKkB4kK7tP2h9BQCQnow2d9XUAutJm7oEIBzalTN8UEImgPLkXAXyvmv7o52j9VEBwnfFfys5/3sHAGB+NQUgT9rUJQDh0CzQH5YKEIDCLNeL88yrQMwC8fnMw5xn1l8aAKAmNnalRwBCkiwAAMDjnWV8zk67tq+93VKKG0De7BxhNrH1lWsCAJCuXAIQLbC+QwDCoakAOaDYKx6A8oSd4beZvqqwo/3dztGKLNcLG0C4k9ZXAACMZble1BSAPIkAhEOzAAAAj7RcL75kXgVicTfBNmYZDXIsndZXAADpM0MvPSpASJIKkMPJdWcwAA9znvF5emWxvapSdB5I6ysAgGzk1NY35xmSj/GkTUQCEA5NBcjhOLcABYulzL9m/AprH4aeYgBiF9uM4mwc1VEAAIytms1XT5k3KQDhoGILDwDgaXJug/U2zjqoVYoPIbUPp5+b1lcAAPlQtZumR2/qEoAwhVrKsABgVHGY9kXGZ/V050g9VIDwTdf270Io6IwAAHAANqDfQwDCFPTAPgznFaAOOc8CEYCkRQXIDGKZfs7/jgEAqvSUdkszqalN/qNnTQpAmIKF+sNwXgEqsFwvzjOupgzD0GsNQVSAsKH1FQBAnmpu6VsMAQhTsFAPAM+jCiQzcYh9aizCT0zrKwCALIQNZ781TfNT0zT/3TTNfy7Xix9iS+Ic1NQC69Gh1H/sHIHxCUAA4HnCMPSPmZ7DN2EYeqKBwKFdNU3zOqVvqOJrMTmtrwAAknQR1yovN7+W60XuAUJNLbAEICTJQzYAPEO4Ie/a/temad5neh5DFcinnaPlS/FB6si92WTOVN0AAMzmNgYDq/j7dUYVHYxIAMIUPGQDwPOdCUCyEx6w3iT2TetjPIGu7U8y/vcKAJCbq03IsQk8CqjqeIyaXuujn68EIBxcaLPQtb0TDQDPEHYrdW2fXEulBwrD0N8t14vPWXy340m1AoQD0voKAOBgboetq2JVx6r20x2fFXeO8ycBCFMJw4ReOdsA8CyhCuSXTE9hqAKpLQBJscReAHJ4n9z3AgA8280g6FjFsEOXGR4911AAwlSuPQgCwPMs14vzru1znSvwNuyMV4o+OwHIAcXWVz8W+wIBAA7jYtDC6lJVx5PcVjR/7lFzDQUgTOU6wR7YAJCj84wXWE9jFUstUqwAeblzhFFofQUA8F03wzkdMexQ1TGOFOcPHsqjnmkEIEzFmxkAjONMAJKHUO2SYC/eHGfI5ELrKwCAf7vYVHQMwo6aqsE5nOPHtFcWgDAVAcj4Tkp7QQB8X9gh1bX9Raa7e153bX8chvTtfKVcyQ2ur7AV2cFpfQUAVOx2OKcjBh013e+nwv39HQQgTEUAAgDjOc+4vDlUgXzYOVquFB9EjuMDKuOpqbUbAFCvq8GsjpWqjqSE6/K2ktd6vHPkHgIQpiIAAYCRZD4M/V1lAcgqwbDKHJARdW3/SWsxAKAwt8PWVWFdz2ByEmIGCOmJ7TpcmXFZvACoW+h5+j7DM/AqtAvyADWrR/XM5W6hpVvTNB/v/AMAAOm7GQQdqxh22Micn5oqcQQgJOs2052qqbLTEKBuZ5kGIE1sg1VLALKyQF6089pPAACQlYtBC6tLm5KKUtPclUetiQpAmNJlxv3KASApYbBg1/bJDdh+oHdZfJflOqn9BIxB6ysAIGE3wzkdMexQ1UGVBCBMyVCkkYW2C2EBrKgXBcBjhN3nP2d4xl50bf9uuV4U34Yp7KrTBrQ8Wl8BAAm52FR0DMIOa3D1qeqaP2ZNVADClMIP5VtnfFTmgADULdcApIlVIOZQzENF7vNpfQUATO12OKcjBh02xfKH2CGgppPx4DVRAQhTkj6P77iiHuoAbAk7u7q2/y3TDQbvurZ/WcnutAuhQzm6tv+g9RUAcGBXg1kdK1UdsONo58gdBCBMSSo9PhUgAJxnGoC8iFUgdtLPoGv7E0MvH69r+/Cg9Sm37xsASNbtsHVVCDzco/EMt/E5qwYCEJIkqR6fIaYAlQtzNLq2z/VGt5YAZKUCpBjnFT1UAgDjuhkEHasYdhhMzpguPXfsEoAwmQp70U3hwWknAEULszTeZ/gC31bSBivF16eN5iPF1lceKAGAh7gYtLC6VNUBo3vwpnABCFOrqRRrCq/Kf4kAPMBZpgFIU0kVSIptQLXRfAStrwCAO9wM53TEsENVB3PRfWcPAQhTU4o1Mj28AYhVljeZBuMnFQQgqVaA8HBaXwEAF5uKjkHYYcGZlFxmOh/yKcwAIVk+GManhQUATWyD9WOGZ+LdzpHCJNoGVAXIA2l9BQDVuR3O6YhBR4oVvVCzB2/+E4AwtZqSyKnYwQlAE3eo5xiAvOja/l0Y5r7zlbKk1gbU/cMDhBk1Wl8BQNGuBrM6Vqo6yJyf3T0EIEzNP8TxPXjoDwDlilUG4QHudYYv8l2sYClZam1AtXN6GK2vAKAMt8PWVSHw0E6cAlVVqfTQsQACEKamZHB8r8LuRDsUAIiLtT9neCKKb4OV4iaQMNjbkM67hcoklcsAkKWbQdCximGHex6olACEqVmkP4yTCnbOAvB9nzMNQF48dPdOLsLriYP5jmK7qRRbTh3Fdg9sia2vSh/ODwAluBi0sLpU1QFVedBcZAEIk0p0CGgJamgdAsB3hJ1tmbfByuqBNVRQxBDhJA4V3wQdubRMOto5wobWVwCQlpvhnI5Y1aHLCAyEALCyddeXO0f2EIAwh9SGgJbAHBAANnJug/Vh52gCtoKOzf9OaZ7HUwlA9tD6CgBmd7U1r8NgcmAfAQjJSm0IaAle6eMNQJRr2X8Sn2WxddXxoHVVyfcsApAtWl8BwKRuh3M6YtChqgN4qAe1GRaAQDnCbsUz1xOgbrHdZGgR8CrDEzHZZ1ms6ti0rNpUduR4zp5DALLrTKUyABzE1Sbk2LSxUtUBB3Fh4/lfCUCYw8o/xIM4FYAAEIW5UD9meDJGD0Dijv7jwa9S2leN4UEl47WI1T/vaz8PAPBMt1vtq64NJgcORAUIVOa1NlgAROeZBiBvQmDxlN2AW0HHUYYDyeeQ47D8g9D6CgCe5GbPrA5rEsBUHvSsJwBhDiH5/+jMH4Q2WABs2mDdZrr4fxIrWPYaDCQXdIzgqYFTgT5V2AINAB7jYlPREYMOVR2Qpqo67zzkeUYAAmXRBguAjc+ZtvN517X9ahBwDMMOFQvjO854cP4oYuurHCumAOAQbmLIsRq0sDKYHEjVd59nBCBMLuwS6NreiT8MbbAA2Mg1AHlvDsOkqp4DovUVAJW72tPC6t6d1AC5EYBAeT7EXwDU7d5dMBAd39dyrAJaXwFQg81g8tWghZWqDihTbaMHTlSAkKqLmvrRTexUAAJA2L3Xtf1vTdO8rf5kwB5aXwFQqKtNyLFpY6WqA8oWq5qPB78YEIBAeV50bX+6XC+0cwBgJQDhO07u/3LRzE0DIGe3W+2rrg0mh/J1bX88mJN4Ev93zRXNRztHtghAmMtKBchBnepnDUBsbfSzEwF/1bX9J0P1AcjIzZ5ZHWZ/QsH2VHUcWUvdSwAClXoT2jrY/QFQt/Bg3LX9lYVe7lHdQ1TcNVdTX2QA8nKxqeiIQYfneihcvD/dhByqOkYmAGEutQ3kmcOpAbgAxM8CAQj8mypZAFJwE0OO1aCFlcHkULBBVcfJoI2VZ7Xn+e6GLgEIlOt9aO+gLBagep8NeuY+NVWNan0FwEyu9rSwMpgcCranqiP87xeu+fR++Pr1a22vmUR0be+H7/B+Xa4Xp6W/SADu17X9Fzfb3OP/1RCAxIfQ33e+AADj2QwmXw1aWKnqgIJ1bX+0FXIc2XAzuf+8bwO4ChAomyoQAJr4EP7WmeAOx5W0zdT6CoAxXW1Cjk0bK1UdULZQOT1oXXWsqiMZR/H9eC8BCHO6qHHw5gzOYwoNQL0+C0C4x8u7v1SGru0/2IkHwBPdbrWvujaYHMoWqzqGIYeqjowJQKB8b2rq7Q3AXj4DuM/xPV/LXnyA/eQnAIAHuNkzq+POXcVA/mJVx/GgssNm7fyc3PfMKwBhTitvKpM5K31xA4C7hQf3ru2v7FriDqVXgJxrTQDAHhebio4YdNy5eAbkb09VR/j1yqUtnwAE6vA6tH5YrhdnrjdAtVYCEO5Q7CaJ2PrKhhuAut3EkGM1aGFlMDkUqmv7l3vaV7kfLNu9zzMCEObkhmNan7q2PzeUDaBa4aH/R5efPYqsjtD6CqBKV3taWHkGhkJ1bT9sXbUZUK6qoz73VrQLQJiTm5BpvYgtIN7V9KIB+NNyvfjctb2zwV4hLCiwx7nWVwDl2gwmXw1aWNlkCYUaVHVsQg5VHQwJQEiWm5PpvTUQHaBqFx4UuMNRXEAqgtZXAEW52oQcm8DDYHIoV6zq2FR2bAaU29TCfe5t9SwAYTahDNVO1Fmchw8TZcAAVfpsUZg7HO0/nJ+4Q1DrK4A8XQzaV13bvAfl2lPVcWxmIYcgAGFuV97cJvdKKyyAallE4C7FBCBaXwFk4WbPrA5VHVCo0I1kEHIcq+pgbHGz995uQwIQ5qYKYR6hFdbpcr04r/HFA9Qq3BB2bX/rYYM9ighAurYPGzze7nwBgDldDFpYXarqgHKFuXJbrauObHxmInfOARGAMLdLrThmc9a1vUFxAPVZWSBmj+wDkNhGweYOgPncxKBjNWhh5XkTCqWqg8QIQEiWCpD5vIjzQE7MAwGoymcBCHvc+cCQEa2vAKZztQk5NoGH50ooU6zqON769crlJjHH8Vl3hwCEudkNMq9QhnjWNM1pzScBoDLaTrBP1q0JtL4COJjb+Ny+2rSxUtUB5YpVHceDyg5dW8jeD1+/fnUVmU18Y/2nKzC7/1muF2eVnwOAanRtf23XFnv83xx378bWV9eqPwCe7Wowq2MVW1gZTA4FCgOjByHHppWV5wNydrFcL072ff8qQJibnSNp+Llr+y+GogNUIyxqvHe52XKcaYXQmfAD4NEuNkPJY9ChQhQKFDeKDNtXHanqoDYCEGYVdhl2be8ipMFQdIB6CEAoQqwm9rMMcLebQdBxGVtYqeqAAqnqoHJHd718AQgpuMq973Qhws7JVRyKLgQBKJtdnuxzktPPRtzRqHoV4N8uBi2sLlV1QJkGVR0ng8DDuhq1uzPsE4CQgux6TRdsE4Ic5dgDHICHCTs/u7a/ue8mETJw7GcYqNRNDDpWgxZWNrFBgWJVx6ayYzOgXOtPeAQBCCm41H8wKcNKECEIQLm0wWLb3qGBCbPYB9TgahNybAIPz2lQnrARdRByqOqAJ4hrmTvVjwIQUuDmLT2vhSAAxbsUgJAzs+SAwtzGz+bVpo2Vqg4oU5xhdrQ1nFxVBxyIAIQUGMCWJiEIQNl2dsZQvRwrcm8tGAAZuhrM6ljFFlaei6EwW1UdmzZWqjrgcPYOQheAkAI3eukKH8yXXdu/s/sIoCzhfb1re4vH5E4rVSB1F5uh5DHosAEBChSrOo4HlR3uT2B6AhCSJQBJ26tBJYgQBKAsFo/5izBo0+c9wJPcDIKOy9jCyrMuFCZWdRxv/XrlOkMSXu77JgQgzC7cFOrfnLzNYPR3diwBFGUlAGHL3oeGhPkZBuZwMWhhdekZCcrTtf3LQcihqgPycLzvuxSAkIobiXnyQgjyz67t/7ZcL85rPxkAhQgLNh9dTAaOzYcB+OYmBh2rQQsrVXJQmFABOwg5NgPKrVFBIQQgpOLah0s2fontsE5rPxEABbCIw7bcKkD8DANjudqEHJvAY7lefHF2oRxbVR2b0ENVB5RDBQhJu/ahk5X3se/lOw8FAPkK7+Fd24cFn9cuI9Heh4aEuQ8BHus2Bh2rTRsrVR1QnljVsQk5VHVAHV7se5UCEFJhOFx+3sS5IKceGACydikAYSC3ChABCHCfq8GsjlVsYeXZEwoyqOo4GbSxcm8LlQrvCdubtQUgpMJNaJ5exxDkRAgCkK3w/v3e5SM6yulEhPuPru13jgNVutgMJY9Bh3lGUJiw9hDvVTZVHcd37fgGqrUz01AAQioEIPkKNxu/G44OkC0LRAxpDQGk7mYQdFzGFlaeJ6EgseX2MOQ4UtUBPJUAhFS4Yc1fGI5+vFwvPtR+IgByYgc928KiQ2aLiRdmyUGxLgYtrC5VdUB5BlUdw+HkqjqAp1IBQprCQ7bFlyL8GPtvfjAcHSArFpAZOrI5BZjYcDD5poWVFrtQkFjVMQw5VHUAh7Az01AAQkputF0oQugjfxzngghBAPJwKQBhIKs5IDGs8fML+bjahBybwMNzA5QlVnUcDyo7fE4DU9l5lhGAkJJrAUgxNsPRT+3cAsiC3f4M7Tw0JM7PL6Tpds+s1WJFXQAAIABJREFUDs8GUJA9VR3H1nWAme08ywhASInde2XZhCAnHnQAkud9mqGdsvHE2TkO87sazOpYxRZWwkkoRGx1vd2+yvoNkAUBCClxg1yeMLjs967t/7ZcL85rPxkAqQpDZc3iYuA4s5MhwINpXQxaWBlMDoXp2n7YumozoFxVB5CLnXBWAEJKBCDl+iXsGFmuF2e1nwiAhF0ZREmUWwUIcBg3e1pYeWaDQgyqOjYhh6oOoEgCEFLiZrpsP4edJMv14rT2EwGQqGsByKRuEt5NmdXPgQomGMXFoIXVpcHkUJZY1bGp7NgMKH/hMgMlCvOJhps2BCCkxA12+d7HBYoPHqgAkhMWvN66LKO6ivc3q7iwuGkX8yXMyGqa5p+pfuOxctNnNZTndjCn4zLO6tBGDgqxp6rj2AYXoEJHw432AhCSEW687d6rwvtwExaHo1tYAUiHBbCnGYYcXwYLit+rbE39M/A4vqZcpFxRA3O5GszqWKnqgLLEzRRHW8PJVXUAbBGAkJpbH9hVCDtQQruKd/oIAyTD+/Hdnhpy3MnGj9FdC0Co2O2eWR1CbShEaOWy1brqSFUHwL1Ohpu5BCCk5tLQrWqEG7bLWAniAQ1gZhbk/6gg2PS//xZ2HPgzKuWqhZPMKkDsaqcWV4P3qtVzw1ggLao6AMYnACE1Hl7r8iJWgghBANJwVfiOwjlCjvuoWhiPGTaU6GLQwipUdeQUSgL3iFUdx1u/3BMAjON4+F8RgJAaD6/12YQgYTD6ee0nA2Bm1wUEILeDBcPrBEKO+6Rc+XqycwQ4lJs9LaxUdUAhYlXH8aCyQ9cLgMN6OfyvC0BIjQqQOoUQ5JfQekUIAjCrXDYibIcclzHkyG13tPue8YRr/7GUF0PRLgbvW5cGk0M5urYfhhybVlaqOgCmJwAhadog1U0IAjCv5HccL9eLH3YO5ivlRXu7U+F5bgdzOi7jrA7POlCAru1fbrWuOvK5CZCUv3Q1EICQGruf+CXOBDmt/kwATE/LlWm57xmPn13mdDWoSlup6oByqOoAyN8PX79+dRlJStf2figJfhWCAEwr7mj835RPe2EVIKnf9/xXTjvW3UMygds9szpUdUABBlUdJ4PAI/e5aAA1+/YsowKEFN3GmRDU7X1shyUEAZhI2LEc3ntT1rX9UWHDgVO+73m5cyRt7iEZ09VgVscqtrBSaQQFiFUdm8qOzYBynx8AZfn2LCMAIUWX+mcSCUEApneV+I7Ho8LaHaV833McF35z4R6Sp7oYtLAKVR05/dwDdwibJrZCjiNVHQDVEICQNP1yGXofd+ic6KUMMAnvtdO6TnjRPrcKEPiemz0trFR1QAHCHMlB66pjVR0A1QufA58bAQiJCg8jb10cBsIunVUcjm5hDuCw7KKfVsqLr8c7R9LmZ5ehi0ELq0uDyaEMqjoAeCwBCCnyYMI+QhCAaXiPnVbKA5RzqwDxs1un28Gcjss4q8NgcihArOo4HlR2CLkBeKiTzZ8TgJAiDyzcRQgCcHg+h6eV8ufZ0c6RtGllVL6rwayOlaoOKEOs6jje+vXK5QVgDAIQUuQhhvsIQQAOK/X31twGc98rDFvu2v6+PzKn3BafBCDluN0zq0M4C5nr2v7lIORQ1QHAIX3bzCUAITnh4SbhhQDSIAQBOJzU31dLHMx9m+qg1rArN6Mh0e4J8jQcTL6KLayEWZC5ru2HIcdmQLmqDgCm8u0zRwAC5EoIAnAANiLMIuXh3Ue5VFb42c3CxaCFVajqKKaaC2q1VdWxCT1UdQCQDAEIqbpw08QDCEEAKMF14gEIPNbNcE5HDDtUdUDmYlXHJuTYDChPsoIRAOJ64UoAAuROCAIwvqv4/so0Ul4Yzi0A8bM7vYtNRccg7HBPBhkbVHWcDNpYeW8FIEsCEFK1UgHCIwhBAMblvXRaKQ93zm3mip/dw7kdzukwmBzKEJ6hYsihqgOA0vyxmUsAApRCCAJArlL+3DreOZK2lNuJ5eRqMKtjpaoD8te1/XbIcaSqA4DCCUBIWnjQ+ugS8UhCEIBxpDyUuzihL23Cw7tzqwAxZ+Jxboetq8L5M5gc8jeo6hgOJ1fVAUBt/niWEYAApRGCADyf9082ctsd7Gf3bjeDoGMVww6BEWQsVnUMQw5VHQDwb39UswtASFLiOyFJnxAEgNxcpFp1E4bhZvR5aibFny4GLawuVXVA/mJVx/GgskOlJgA8gAAEKJUQBICcpD4HxAJ6mm6Gczpi2KGqAzLWtf3xnvZVr1xTAHg0FSAkL9mdkGQjhCCf46A/AB7OLvrphXP+trYXfQAl/+xebCo6BmGHTR6QqVBdt6d9ledfABjPH/OvBCBA6d50bX++XC9OXWmAB0t5UbXUUDvlXfsnuVSAhECggDaqt8M5HTHoEEpCxraqOjYDylV1AMCBhQ0HAhBStrIDhpG8D4shQhAAEqZt0XhuMlpYvBrM6lip6oC8Dao6NiGHqg4AOLyL+DdsNm1dxk19f9xbC0CAWghBAEhZyjv8c6u6uU4wALkdtq4K36PB5JC3WNWxqezYDCh/4bICwKhuh4HG4PfmoffTAhBSFn6IP7pCjCiEIKvlenHupAKQkkJaN/Gnm0HQsYphhwofyNSeqo7jOGsQAHi+m7iBafvXl7HawApAgNr8EitBhCAAeSp51/xFoq1ScmvfMmUb1YtBC6tLVR2Qt67thyHHsaoOAHi2TXuqnSqOqVq/CkBIVniAtBOSAwkhSEiSPzvBAHuZQTAP5z1dN8M5HfGBTVUHZKpr+6Ot1lVHqjoA4NG221M1mw1rKW0MEoAAtToPO7zGKqcDKEl4b7QJYRbhM+ltit9Y6HWf0Wfmc7/Pi01FxyDsEE5BpmJVx/FWZYeqDgD4vu32VN8qOHJaTxOAkLorO3E4kPDQsxKCAJCQlCsKXu4cSddDw4rb4ZyOGHS4J4BMxaqO461fr1xPALjT1Z7h4l9Km2EnACF1dttxSC8GlSB+1gCYW8oPGccZzV/Zdx6vBrM6Vqo6IG97qjpym1UEAFPYzN9YDX+vbW6dAITUXbqZ5cBeDypBLIQAMKeUqw+yqQAJu9W6tv9pU6pvMDnkK7TfG4QcmwHlqjoA4N/tqXYqOFQ1/5UAhNRZkGYKIQQ5a5rm1NkGYC4hiE949srRzpGELdeLTzl9v1C7ru1fbrWuOrIRDoDKbbenuh5s8NlX8cwdBCCkTmLJVN53bR9S8g/OOAAzukh00S+rAARIl6oOAPjD3vZUWrWOTwBC6vyDZ0o/dm0fPmjOnXUA+AsBCPAog6qOk0Hg8dpZBKACt3sGi/+xyVt71ukJQEidChCm9ksMQfzsAdXq2t5i93xWiVaA2J0N3ClWdWwqOzYDyl/c9ecBIHNX222ptKdKlwCEpCXeC5tyhaHoxz60gIoJQOaTbPVrCMZ8NkLdYkA+DDmOVHUAUKBNe6qdKg7tqfIjACEHV26qmVjYrfa5a/sTH2wAySn9fTnlCsSjuLMNqEC4Fx60rjpW1QFAIbbbUzWb+RvaU5VJAEIOLEAzhxC6nTVNc+rsAySl9BaFKQcML3eOANlT1QFAYW72taYK64vanddJAEIOLhPthU353ndtH/o3fnKtAZhCaDGVcPvPsDD6eecokI1Y1XE8qOzwnAVAbq72DBfXnoo7CUDIgTcv5vQxDkW34APAVFJt/6kCBDIRqzqOt369cv0ASNztdlsq7al4LgEIOVCextzODUUHKmOhe16pbv443jkCzKpr+5dbIceRqg4AErbdnupbBYf2VByKAIQcqABhboaiA7Wx0D2vVaILmIIxmFHYkDNoXbUZUK6qA4CUbLen+hZ22FTKXAQg5EACTAoMRQdIQw33BamG7YYiwwRUdQCQsIv4ra22fjd/g2QJQEheeANNeBgodQlD0VfL9eLcdQeYRyUPVjZ/QCViVccm5NgMKH/h+gMwg5vttlTaU1ECAQi5SHUYKPU5i0PRffgDJTtydWeVbHuA2A7SAEp4pEFVx8mgjZXnGwCmdLXdlkp7KmogACEXyuhIxYs4FN08EKBkApAZhQdQ1a+Qr3CfGN9HVXUAMKXt9lTfqjisX1AzAQi5uNb3loSYBwIwj5uKznuq1a8ng4dqqFrX9tshx5GqDgAO5Ha7LdWmbarqXLifAIRcKMUjNeaBACVLtQKkpvsBu/QgIYOqjuFwclUdAIzlZl9rKvM34PkEIORCAEKKzmII4ucTKM0rV3R2q0SrX092jkBBYlXH8dYv74kAPNemPdVOFYf2VHBYAhByYYGZFIVdf5/jAzJAEeKgXoDixaqO40Flh5a7ADzFdnuqZtMyVHsqmJ8AhFwIQEjVl67t3y3Xi8+uEFCIlEPdmsr/w8Pyx52j8xP6k52u7Y/3tK9S1QHAQ223p/pWwaE9FaRPAEIWQouhru1dLOZyMbjB2dzwKFMFmF5N77upvlYzD0hWrGAbhhxHqjoAeICrPcPFw+/XWl5D/gQg5OTGTi0OSMgB8CczHhIQdhOmuvkj7Ka325G5bVV1bAaUe1YAYJ/N/I3V8HftqaAOAhBycu2hhmfa7OpYDcMOOzoA/iLlGSC1LbqnuvnDnBgmM6jq2IQcqjoAGLrZbkulPRUwJAAhJ9cedngAIQfA86Q846G2qrxUN38cD3ZQwmhiVcemsmMzoFzbNYC6bben+jaLw3M+8BACEHLig42NzQ6Py0HY4eYHYBx296fjMtHNH35GeJau7Y8GIcemjdVrZxWgSnvbU2lJDYxFAEJOLG7XZV/IoYQV4PCSXYSssE9zqg/9RztH4A5d2w9DjmNVHQBVud0zWPyPZ3rzN4CpCEDIiQCkPLdbQ8eFHAAziu1nSEf4XPyY4PUQgLBjq6pj08ZKVQdA2a6221JpTwWkRgBCTnx45mk75NgMI7PbAyA9KS9s3+4cKZ8KEJIUqzqOtyo7VHUAlGfTnmqnikN7KiAXAhCyEXYPdG3vgqXrQsgBkL2UK0Cqqw4MFZGJ3vukOJidA4hVHcdbv1x/gDJst6dqNvM3PMsDJRGAkJsbD12zuhjcHH0LO+z8ACiGFljpSfLeJyyMa21Rlj1VHSkO4Afg4W72tabSdhqojQCE3FwLQA7ualDFIeQAqEvKrY1q3YmY6r3PkfakeYqzfjYhx2ZAuftrgPxc7Rkurj0VwBYBCLm5thttFJsbpdWwosNOToDqGVicnstE731e7hwhKV3bv9xqXXXkPhogG7fbbam0pwJ4GgEIubFA/3BCDgAeLLa/SVmtrRpS3cEZFtQ/7xxlFrGqYxNyqOoASN92e6ovg1ma2lMBjEgAQm6Ucf7VzXDo+CbscMMEwBOkPv+j1nuAVD/TVYDMYFDVcTJoY6VyCyA92+2pvoUdNiUCTEsAQm5qXNgXcgAwhdQDkFoXC1KuAOGA9lR1hP/9wjkHSMJF/CZWW7+bvwGQGAEIuSn1RuJ2e+h43Bki5ABgKkm3wKp1t2To8921/c7xBKgAGUnX9kdbIceRqg6AWd1st6XSngogXwIQshJuNhJdBHiIfSHHFwPMAJhbbKuT8ryAm50jdblNcOe/BfoniLN2jraGk6vqAJjW1XZbKu2pAMolACFHKS4CDF0MdogIOQDIQeoD0GtfjAj3E292jpIsVR0As9puT/WtikN7KoD6CEDIUQqLAMOQ41tFh5spADIlAEnbdYoBSKhmsMnjW1XH8aCyQ1gFcDi3222pNrNCfSYBsI8AhBxNFTJcDedxCDkAKJgB6Gmr/fUnIVZ1HG/9Srl1HECObva1pjJ/A4CnEoCQo3DT83ak73vT+3M1rOjQ9xOAyqS+Y732BY9UX//JoL1IMeJMnGHQcaSqA2A0m/ZUO1UcNhsCcAgCEHL02JsiIQcA3KFr+3f7v5KU2hdEan/9B9O1/bB11WZAuaoOgKfZbk/VbIJy7akAmIsAhBzt2wV5M2hX9S3sUCILAN+V+vyP6hdNwuvv2n7neAKS/9nZUNUBMIrt9lTfKjg8ewOQKgEIOQo3Wj8JOQBgFKkvYt/uHKlTOA8vaj8JDxGrOjYhx2ZAuXMH8H1Xe4aLf9FBAYCcCUDITrzx+uTKAcDzxF3xrxM/jTY6/OkywYqFWYfnD6o6TgZtrFL/eQaY02b+xmr4e+2VlgCUTQACAFCvHOZ/CED+dJ1gADJZVUXX9sOQ41hVB8COm+22VNpTAYAABACgZjnMcDAA/E9Jth4J7abGXFjr2v5oq3XVkaoOgD9st6f6NotDeyoAuJsABACgXjlUgGjL8adUd+++3DnyQKo6AP5ib3uq8P6/XC9sBgCAJxKAAABUqGv7d5ksNtvV+qdUF7+OvxdSxaqO461fr3b+IEC5bvcMFv8j2DZ/AwAOSwACAFCnHNpfNdp6fJNFBUis6jgeVHakNrcE4BCutttSaU8FAGn44evXry4FAEBlura/zmAX/sVyvcgiqJlC1/Yp3rhfxEU/VR1AyTbtqXaqOLSnAoC0qQABAKhMGFydyWJ1qlUPc7lIsKJChQeQu+32VM2mtZ/2VACQPwEIAEB9TjN5xdqG/JVdxgCPd7OvNVV4T12uF4J2ACicAAQAoD7vMnnFFqb+KpyPtztHAep2tWe4uPZUAMAfBCAAABXJqP2V1iO7VMQAtbndbkulPRUA8BgCEACAunzI5NXe7BxBAAKUZrs91bcKDu2pAIAxCEAAAOqi/VW+nBMgN9vtqb6FHcv1QqgLABycAAQAoBJd24fw40Umr9Zi/5bQy75r+53jADO6iH/1aut38zcAgCQIQAAA6nGa0SvV232/sNj4Zu9XAMZ1s92WSnsqACA3AhAAgAp0bX/UNM3bjF6pxbX97KgGxnK13ZZKeyoAoDQCEACAOuQy+yO40TrlTpeZBVnAfLbbU32r4vAeCwDUQgACAFCHDxm9Su2v7mZXNhDcbrel2lTOLdcL76EAAJEABACgcHH4+auMXqX2V3cTgEAdbva1pjJ/AwDgcQQgAADly2n4eSMAuZdzA2XYtKfaqeLQngoAYDw/fP361ekEAChUHH7+r5xe3XK9+GHnIN90be8GHtK23Z6q2bT2054KAGBaKkAAAMqW0+yPZrArmrtdNU3z+s6vAoe23Z7qWwWH9lQAAGkRgAAAFKpr+5faXxVJexw4rKs9w8XD79fL9cIcHgCAjAhAAADKFYafv8js1WkP833hHL1J/ZuEhG0qzVbD37WnAgAojwAEAKBcnzJ8ZRYgv08FCNztZrstlfZUAAD1EoAAABSoa/vQ+upVZq/sarleWNz/Pou41Gy7PdW3WRzaUwEAsE0AAgBQptyGnzeqPx7MIi8l29ueKgQeAlIAAB5LAAIAUJiu7U+apnmd4asSgDxA2OXetX3y3yfscbtnsPgfFU3mbwAAcAgCEACA8uQ4+6MRgDzKVaYhF2W72m5LpT0VAABzEoAAABQkVn+8yfAVmf/xOM4Vc9i0p9qp4vDvFwCAFAlAAADKovqjDqtMgy7Std2eqtn8u9SeCgCAXAlAAAAKkXH1RyMAeTS77Xmsm32tqcLP0nK9uHQ2AQAokQAEAKAcuVZ/hB3mn3cOch8L1my72jNcXHsqAACqJgABAChA5tUfFztH+B4Dpetyu92WSnsqAAD4PgEIAEAZzjN+Fao/Hmm5Xlx3bZ/V98y9tttTfavg0J4KAACeTgACAJC5ru1Pm6Z5lfGrsIP9aW4yv+412W5P9S3sCGFW7ScHAAAORQACAJCxru1f5jz7Iyzi2+H+ZNcCkGRs2rittn43fwMAAGYkAAEAyNuHzBfBtb96usuM577k5Ga7LZX2VAAAkAcBCABApmL1x4fMr5/2V0+nsmAcV9ttqbSnAgCAMghAAADyddY0zYuMv//b5XqhAuTpQnj0MddvfkLb7am+VXFoTwUAAGUTgAAAZKhr++Omad5nfu1UfzyPxfumud1uSxV/b5brhZ8vAAConAAEACBPZwVcN9UfzxDmT3Rtn+33/0A3+1pTmb8BAAA8hAAEACAzXdufFjL8WgDyfDeZD8HftKfaqeLQngoAAHguAQgAQEbi4PMSqj9+s8A9iuuEA5Dt9lTNpu2Z9lQAAMAUBCAAAHn5lPng8w3VH+O4nLEaaLs91bcKDu2pAACAFAhAAAAy0bX9SdM0PxZyvQQg4zhkFc3VnuHi4ffr5XpxvfOnAQAAEiMAAQDIRwmtrxrtr0YVWkl9fOJ/cDN/YzX8XXsqAACgFAIQAIAMdG0fWl+9LuRaqf4Yz11B0s12WyrtqQAAgNr88PXrVxcdACBhXdsfN03ze0HX6P+qABlPDMe+zeLQngoAAOBPAhAAgMR1bb+acdD12H5drhenfuYAAAA4tP/jDAMApKtr+w8FhR+N9lcAAABMRQUIAECiYuurUP3xopBrdLtcL17uHAUAAIADUAECAJCu84LCjya+HgAAAJiEAAQAIEFxsPXrwq6NAAQAAIDJaIEFAJCY2Prq98Kuy9VyvTjeOQoAAAAHogIEACAhXdu/LHRQ+NnOEQAAADggAQgAQFpCUPCqsGtyW2ioAwAAQMIEIAAAieja/rRpmvcFXo/Py/Xiy85RAAAAOCABCABAAuLcj1LbRGl/BQAAwOQEIAAAM4tzP86bpnlR4LW4WK4XlztHAQAA4MAEIAAA8wvhx+tCr8P5zhEAAACYwA9fv351ngEAZtK1fWgP9WOh5/9muV4c7RwFAACACagAAQCYSRx6Xmr40aj+AAAAYE4CEACAGXRt/65pml8KPve3hp8DAAAwJwEIAMDEurY/rqA64vNyvfiycxQAAAAmIgABAJhQDD9WTdO8KPy8f9o5AgAAABMSgAAATKSi8OPX5XpxvXMUAAAAJiQAAQCYQEXhR2P2BwAAACkQgAAAHFhl4cfFcr243DkKAAAAExOAAAAcUGXhR2P2BwAAAKkQgAAAHEjX9qdN0/xeUfgRqj9WO0cBAABgBgIQAIADiOHHL5WdW9UfAAAAJOM/XAoAgHF1bX/eNM37yk7rb6o/AAAASIkABIBn6dr+qGmad8v14syZpHZd279smuZz0zRvKjwVH3aOAAAAwIx++Pr1q/MPwLN0bR/CjzDo+XS5Xlw7m9QoDjsPlR+vK3z5vy7Xi9OdowAAADAjM0AAGMOnGIBcdm1vFzjVifM+VpWGH7dmfwAAAJAiFSAAjKJr+3dN0/wj/rcuVINQi1gB9WPFF/yn5XohAAEAACA5AhAARtO1fZh98Db+9/7YFW42CKWK828+V1r1sRH+nR8t14svO18BAACAmWmBBcCYTuOCaPCiaZqfu7ZfxdkIUIzY8uqy8vAj+CD8AAAAIFUqQAAY1VYrrKGfmqY5s1hKzrq2fxkHnb91IZuL5XpxsnMUAAAAEqECBIBRLdeL0BLotz3/zY9xSPq7na9ABuLP7rXw45sPO0cAAAAgISpAABhd3CV/Hdtg7WNIOtlQ9bHX35frhQAEAACApKkAAWB0sc3V6T3/3TdN0/yra/uzuLgMSera/oOqjx03TdN82jkKAAAAiVEBAsDBdG3/+QELx7dxNogFVZIRB/efxbCOv/rv2OoOAAAAkiYAAeBgYnXHZdM0rx7wd/yxq3y5XpzvfAUmEn9mQ/Dx3jnf67flemGODwAAAFkQgABwUF3bnzRN889H/B03cT7IaucrcEBd23+Kg73vml1Tu1CtdRRb3AEAAEDyBCAAHFxcWP74yL/nIlaECEI4qK7tT+NMi4dUKtVM6ysAAACyIgABYBJd24dWWK+f8HcJQjiIWJ109sSfy9r8ulwvTms/CQAAAOTlP1wvACbyLs4DeWx7oTCE+p9d24cg5NyMEJ4rBh+fDDh/sJvYGgwAAACyogIEgMl0bR9CkH888+8zLJ0nEXw82X8t14vLTL93AAAAKiYAAWBSXduHlkM/jvB33sb2RWeGMnMfMz6e5X+W68VZxt8/AAAAFROAADC5Z8wDucuvMQixS50/dG3/MrZtOhV8PNlvy/XiXabfOwAAAAhAAJhe1/ZHT5wH8j1XMQjRHqtS8WfrU5w5M/bPV01Cq7lj1VUAAADkTAACwCziPIZ/HujvDu2xPqsKqUdsc3Vqvscowr+fE/92AAAAyJ0ABIDZdG0fWhT9fOC/P1SFhIqQc7vZy9K1/XFsc6XaY1x/U0UFAABACQQgAMyqa/uw0Pp+ou/ht1gZ8lkYkqfY4updrPYYc44Mf/ppuV58ci4AAAAogQAEgFnFYdWrGRazhSGZEHpM5tflenFayWsFAACgAgIQAGYXQ5DrGdsYbcKQ1XK9uN75KpMTekzuYrlenFT2mgEAACicAASAJMR5DqsEZjlcDSpDDIGeUByMH0KPE6HHpK7i0HOVUAAAABRFAAJAMrq2D7v9f0noW7qNoYzqkAMYVHmcxF8GmU9P+AEAAECxBCAAJCXBEGToJgYilzEQUSHyCLHKJwQdm99fZfPNl0n4AQAAQNEEIAAkp2v786Zp3mdwZW43YcggFLGY/O+5LsOw41iFR1KEHwAAABRPAAJAkjIKQbZthyLXpVeKxMqOo0HYcaS6I2nCDwAAAKogAAEgWV3bXxY0DDu0z7qOwciXGI58ySUcifM6NiHHprrjpWHl2RF+AAAAUA0BCADJim2UVhUssm+qRppNMBL/92rwZy7HXrSO5/d4cGgTbjQx4Gi0riqK8AMAAICqCEAASFpFIchTbKpKHkJbqrpdNE3zTvgBAABATQQgACRPCALP8utyvTh1CgEAAKjN/3HFAUhd3LV+Elv4AA/3d+EHAAAAtVIBAkA2VILAo/xtuV6cO2UAAADUSgACQFaEIPBdt3Hex8qpAgAAoGZaYAGQFe2w4F7h38WJ8AMAAAAEIABkSAgCe/0Ww4/LfV8EAACA2miBBUC2tMOCb35arhefnA4AAAD4NwEIAFmLIUgY9PzWlaRC5n0AAADAHQRKBx9bAAADP0lEQVQgABSha/sQgrx3NanIRQw/vrjoAAAAsEsAAkAxurb/0DTNz64oFdDyCgAAAL5DAAJAUbq2P22a5qxpmheuLAW6iVUfBp0DAADAd/yf+78MAHlZrhehFdZJnI0AJfl70zTHwg8AAAB4GBUgABQpDkcPg6Ffu8JkLlR9nBp0DgAAAI8jAAGgaIajk7lQ9fHJoHMAAAB4PAEIAMUzF4QMXcWqD+2uAAAA4IkEIABUoWv746ZpzrXEInG3seLjzIUCAACA5zEEHYAqxJ30YTj6r644iQo/m0fCDwAAABiHChAAqtO1/btYDaIlFim4aJrmg3ZXAAAAMC4BCABV6tr+ZQxB3voJYCY3Mfj47AIAAADA+AQgAFRNNQgzuIlzPs6dfAAAADgcAQgA1VMNwkQEHwAAADAhAQgARF3bn8Qg5JVzwogEHwAAADADAQgAbOna/lOYzaAtFs8k+AAAAIAZCUAAYI/YFuusaZr3u1+Fe13E4GN13x8CAAAADksAAgD36Nr+KAYh5oNwn9umaT7H4OP6nj8HAAAATEQAAgAPEOeDhNZYb5wvBq5iQPZ5uV58cWIAAAAgHQIQAHiEGIR8UBFStds4LP98uV5c1n4yAAAAIFUCEAB4gtga65MZIVX5LYYen2s/EQAAAJADAQgAPEMclh4qQk6bpnnlXBbntzjbQ4srAAAAyIwABABG0rX9uxiEaI+Vr9DeaiX0AAAAgPwJQABgZLEqJAQh/7+9O7ZtGAaiAKoNvEIWMOwN4hHSpvdY7rOGRlCQBaQN5A0MAkeDQOTKjkKI7wEHsVBDth+fTHNwvtWbIvDoXW8FAAAA2yEAAYA/FG+FfMS8O+sqlC2PFHqMrR8IAAAAbJEABABWEs2QFIScYrwZso4pAo8hAo+hhU0DAABA6wQgAPBPoh2Sw5Cj67Je4pqDjvgOGh4AAADQJgEIAFQiGiLHCETeYlyb9VhqdozCDgAAAGCJAAQAKlcEI0vfrbdGcqNjjEnr+fLz2f/6EwAAAKAgAAGADTjvv06xi9wc6YqwJK93le30O4UZsR5inYOO2VsdAAAAwDMEIADQmKJRUiqDk1fJYcad5gYAAACwiq7rbh9cb3h8oIgAAAAAAElFTkSuQmCC;" vertex="1" parent="PzGdb6fwfJ1blYIkL1jN-16">
          <mxGeometry x="10" y="3.939999999999941" width="30" height="32.12" as="geometry" />
        </mxCell>
        <mxCell id="PzGdb6fwfJ1blYIkL1jN-22" value="detects the failure and sends an alert to Port IO&#39;s IDP" style="text;html=1;align=left;verticalAlign=middle;whiteSpace=wrap;rounded=0;" vertex="1" parent="PzGdb6fwfJ1blYIkL1jN-16">
          <mxGeometry x="10" y="50" width="130" height="53.94" as="geometry" />
        </mxCell>
        <mxCell id="PzGdb6fwfJ1blYIkL1jN-26" value="" style="group" vertex="1" connectable="0" parent="WIyWlLk6GJQsqaUBKTNV-1">
          <mxGeometry x="300" y="180" width="150" height="190" as="geometry" />
        </mxCell>
        <mxCell id="PzGdb6fwfJ1blYIkL1jN-23" value="" style="swimlane;whiteSpace=wrap;html=1;startSize=40;container=0;" vertex="1" parent="PzGdb6fwfJ1blYIkL1jN-26">
          <mxGeometry width="150" height="190" as="geometry" />
        </mxCell>
        <mxCell id="PzGdb6fwfJ1blYIkL1jN-9" value="" style="shape=image;verticalLabelPosition=bottom;labelBackgroundColor=default;verticalAlign=top;aspect=fixed;imageAspect=0;image=data:image/png,iVBORw0KGgoAAAANSUhEUgAACSQAAANYCAQAAAB9TLmxAAAABGdBTUEAALGPC/xhBQAAACBjSFJNAAB6JgAAgIQAAPoAAACA6AAAdTAAAOpgAAA6mAAAF3CculE8AAAAAmJLR0QA/4ePzL8AAAAJcEhZcwAAFiUAABYlAUlSJPAAAAAHdElNRQfpAQ8KDxeRQMXSAABh2klEQVR42u39P3cb2ZkvbP/cyyk0jslg/GRQdDohU/dZUP4QX4DqNxYDPyGVvH4TIfVZi8pH/ALkycX1tlMo8URCdjwBGNvEB5gnINUtdetPkdwb2FV1XbPc054hi0BVAVX12/e+9+/+OwAAAADwbd/ZBQAAAAB0IUgCAAAAoBNBEgAAAACdCJIAAAAA6ESQBAAAAEAngiQAAAAAOhEkAQAAANCJIAkAAACATgRJAAAAAHQiSAIAAACgE0ESAAAAAJ0IkgAAAADoRJAEAAAAQCe/b+8l3XyfPyT5Q753eAAAAICR+Xv+meSfT/7e4ov73X838CJu/pg/5od8nz/kT84XAAAAgCTJ3/LP/D0/5R9P/tHGC9ppkHTzx/yQH/JD/t2ZAQAAAPBF/5Wf8lN+2nWgtKMg6eb7/Jgf8j+cBwAAAACd/Wd+yn/sbtrb1oOkmz/mKH9WgwQAAADwQP+Vv+ZyF9VJWw2Sbn7In/N/O9oAAAAAj/a/89cnP233T24tSLr5MX82lQ0AAACgoP/MX5/8x/b+3FaCpJsf8xeT2QAAAAAq+K/8ZVthUvUg6eaH/CV/ckwBAAAAqvlb/rKNaW5Vg6SbP+Svee5YAgAAAFT3Jn9+8s+6f+K7epu++TH/ECMBAAAAbMXz/OPmz3X/RKWKpJs/5NKENgAAAIAt+1uO6tUlValIujnKP8RIAAAAAFv3p/zj5qjWxisESTd/zUX+zXEDAAAA2IF/y8XNX+tsuvDUNlPaAAAAABpQZYpb0Yqkm+/zkxgJAAAAYOf+lJ9uvi+90YIVSTff5ydT2gAAAAAa8a/88OTvJTdYrCJJjAQAAADQlH8rXZVUKEgSIwEAAAA0p3CUVCRIEiMBAAAANKlolFQgSBIjAQAAADSrYJT06CBJjAQAAADQtGJR0iODpJs/5D/ESAAAAABN+7f8x80fHr+Zx1YkXeZ/OBYAAAAAjfsfuXz8Rh4VJN38NX9yHAAAAAB64E83f33sJn733w/+1ZujXDgGAAAAAL0xf3L5mF9/cJB088f8XXckAAAAgB75V75/8o+H//rDp7Zpsg0AAADQL/+W/3jMrz8wSLr5s+5IAAAAAL3zp5s/P/yXHzS1zbQ2AAAAgJ56xPS2h1Uk/VWMBAAAANBL/5a/PvRXH1CRdPND/v/2OQAAAEBv/c8nPz3k1x4SJP0j/25/AwAAAPTWfz3540N+7d5T225+FCMBAAAA9Nq/3/z4kF+7d0WSeiQAAACA3ntQTdI9K5LUIwEAAAAMwINqku5ZkaQeCQAAAGAQHlCTdK+KJPVIAAAAAAPxgJqk+01t+7EnOwIAAACAb/nxvr9wj6ltN3/M/7GHAQAAAAbj/3ryj/v8+H0qkv5s7wIAAAAMyJ/v9+P3qUjSaBsAAABgSO7ZcLtzRdLNkRgJAAAAYFD+/eboPj/efWrbUc92BAAAAADfcnSfH+4eJP1gzwIAAAAMzA/3+eGOQdLN9ya2AQAAAAzOv9983/2Hu1YkHdmvAAAAAAN01P1HuwZJP9irAAAAAAP0Q/cf/d1/d/qxm//u554AAAAA4Oue/K7rT3aqSLrPXDkAAAAA+qR78tNtatv3Pd0PAAAAAHzL911/UJAEAAAAMG7fd/1BQRIAAADAuH3f9Qc7Ndu++Wf+zT4FAAAAGKR/PflDtx/sVpEkRgIAAAAYqs7JT4cgyZptAAAAAEPWNf3pUpH0B7sTAAAAYMD+0O3HBEkAAAAAY/eHbj/WJUj63t4EAAAAGLDvu/3Yd4PeCQAAAAAUI0gCAAAAoBNBEgAAAACdCJIAAAAA6ESQBAAAAEAngiQAAAAAOhEkAQAAANCJIAkAAACATgRJAAAAAHQiSAIAAACgE0ESAAAAAJ0IkgAAAADoRJAEAAAAQCeCJAAAAAA6ESQBAAAA0IkgCQAAAIBOBEkAAAAAdCJIAgAAAKATQRIAAAAAnQiSAAAAAOhEkAQAAABAJ4IkAAAAADoRJAEAAADQiSAJAAAAgE4ESQAAAAB0IkgCAAAAoBNBEgAAAACdCJIAAAAA6ESQBAAAAEAngiQAAAAAOhEkAQAAANCJIAkAAACATgRJAAAAAHQiSAIAAACgE0ESAAAAAJ0IkgAAAADoRJAEAAAAQCeCJAAAAAA6ESQBAAAA0IkgCQAAAIBOBEkAAAAAdCJIAgAAAKATQRIAAAAAnQiSAAAAAOhEkAQAAABAJ4IkAAAAADoRJAEAAADQiSAJAAAAgE4ESQAAAAB0IkgCAAAAoBNBEgAAAACdCJIAAAAA6ESQBAAAAEAngiQAAAAAOhEkAQAAANCJIAkAAACATgRJAAAAAHQiSAIAAACgE0ESAAAAAJ0IkgAAAADoRJAEAAAAQCeCJAAAAAA6ESQBAAAA0IkgCQAAAIBOBEkAAAAAdCJIAgAAAKATQRIAAAAAnQiSAAAAAOhEkAQAAABAJ4IkAAAAADoRJAEAAADQiSAJAAAAgE4ESQAAAAB0IkgCAAAAoBNBEgAAAACdCJIAAAAA6ESQBAAAAEAngiQAAAAAOhEkAQAAANCJIAkAAACATgRJAAAAAHQiSAIAAACgE0ESAAAAAJ0IkgAAAADoRJAEAAAAQCeCJAAAAAA6ESQBAAAA0IkgCQAAAIBOBEkAAAAAdCJIAgAAAKATQRIAAAAAnQiSAAAAAOhEkAQAAABAJ4IkAAAAADoRJAEAAADQiSAJAAAAgE4ESQAAAAB0IkgCAAAAoBNBEgAAAACdCJIAAAAA6ESQBAAAAEAngiQAAAAAOhEkAQAAANCJIAkAAACATgRJAAAAAHQiSAIAAACgE0ESAAAAAJ0IkgAAAADoRJAEAAAAQCeCJAAAAAA6ESQBAAAA0IkgCQAAAIBOBEkAAAAAdCJIAgAAAKATQRIAAAAAnQiSAAAAAOhEkAQAAABAJ4IkAAAAADoRJAEAAADQiSAJAAAAgE4ESQAAAAB0IkgCAAAAoBNBEgAAAACdCJIAAAAA6ESQBAAAAEAngiQAAAAAOhEkAQAAANCJIAkAAACATgRJAAAAAHQiSAIAAACgE0ESAAAAAJ0IkgAAAADoRJAEAAAAQCeCJAAAAAA6ESQBAAAA0IkgCQAAAIBOBEkAAAAAdCJIAgAAAKATQRIAAAAAnQiSAAAAAOhEkAQAAABAJ4IkAAAAADoRJAEAAADQiSAJAAAAgE4ESQAAAAB0IkgCAAAAoBNBEgAAAACdCJIAAAAA6ESQBAAAAEAngiQAAAAAOhEkAQAAANCJIAkAAACATgRJAAAAAHQiSAIAAACgE0ESAAAAAJ0IkgAAAADoRJAEAAAAQCeCJAAAAAA6ESQBAAAA0IkgCQAAAIBOBEkAAAAAdCJIAgAAAKATQRIAAAAAnQiSAAAAAOhEkAQAAABAJ4IkAAAAADoRJAEAAADQiSAJAAAAgE4ESQAAAAB0IkgCAAAAoBNBEgAAAACdCJIAAAAA6ESQBAAAAEAngiQAAAAAOhEkAQAAANCJIAkAAACATgRJAAAAAHQiSAIAAACgE0ESAAAAAJ0IkgAAAADo5Pd2Abu0yfvmX+PTTBwoAHpsnXUTr8MVFQCGQJDETr3P896/h73s//zvh5/870MHGIAGXOR1s69t+nO49CFmcg0FgLYJkuCRrnP987+/u/vfv9yw72U/TzLNfvaNxALAr6x+/rffXkMnmeY2YNq/+x8AYPcESVDVbcx0dfffJpnm6d1/AICv2eRdfgmYktv6pafZvxugAQB2QZAEW7TJu59viA9ymKeZ2SkA0NEqHwdLB9m/G55R8QsA2yNIgh35ECkd5FkOVSgBwD29y7tcJkn28jTTHOqsBABbIEiCHbsNlPbyLHNxEgA8wHWuc5XXSaY5zDSHJr4BQDWCJGjCdc5znr3MM3fzCwAPtLpr372XwxzmmUlvAFDcd3YBtOM6r/Msx7mwKwDgEa5zmZc5zDyLLO0OAChIRRI0513eZZFjtUkA8EirrHKeSWbqkwCgEBVJ0KRNXudZTrO2KwDgkTZ39UknucjG7gCARxEkQcMu8yzHSvIBoIgrcRIAPJogCRr3Ls+FSQBQzFVeZpZT11YAeBBBEvSAMAkAStrkMs8zy7naJAC4J0ES9MS7PNczCQAKus4ih2qTAOBeBEnQI5d5ljNjpwBQ0GWeZ54LOwIAOhEkQc+8zlGu7AYAKGiVl5kZrAGADgRJ0DvXOcmJW10AKOo6r4VJAPBNgiTopavM1CUBQGEbYRIAfMPv7QLop01OcpxTOwIAitrkdc5znOeZ2BlUc1x0a/PM7VJgawRJ0GPnWeYs+3YEABS1yetc5MTDOdW8K7q1QzsU2CJT26DXVplbtBgAKrjOS1dZAPgNQRL03CbPLVkMAFWs8jwnWdsRAPAzQRIMwMss7AQAqOIq85zZDQBwR5AEg3Cu7TYAVLLJ68yzsiMAIIIkGIxLURIAVLNSlwQASQRJMCCiJACoSV0SAAiSYFBESQBQk7okABAkwaCIkgCgrtc5zsZuAGC0BEkwMJc5txMAoKJ3mWVpNwAwUoIkGJxFLuwEAKhok+emuAEwUoIkGKCFVqAAUNnrnJjiBsAICZJggDZ54dYWACq7ynHWdgMAIyNIgkG6zgs7AQAqW2WuChiAkREkwUC903QbAKrbZK43IQCj8nu7AIZqkcNM7QYAqpo84lqzzvUg9sHLJHOnAgAjIUhiYKaZfOMnnn7zJ7rb5H2SZNVoR6JTY6QAVPAiJ0W3t876538uk7zr3R55mVVOnRgAjIIgiYE5zeGO/vJtqLTMJu+bCZZWOSt8qw8A5e1n/zf/tw9X1HVPehCd5yYLhxKAERAkQSGTHCY/x1ibvM8yqyx3HCm9zjPT2wDoocMks7t/X+V9VnnfeKXSZSJKAmAEBElQxSSHd6HSOldZ7jBQeqXpNgA9N/15UOR2kGbXwzRfchlREgDDJ0iCyvZznOMkV3mbqx3c+L7LhQagAAzEYQ5znGSVZd42WKF0GVESAEMnSIItmWWW5CoXudryXz7Ls4INxgFg96aZ5jibvM1yJ8M0X3YZURIAw/adXQDbNMtZ3ubFVoOd67yx4wEYoEnmWWSZsxw1NGRyac1UAAZNkARbt5+TXG01TDpvtJcEAJQwyyLLvPq5OfeuvRQlATBggiTYiclWw6SNmiQABm9+V/W718BreZmVAwLAQAmSYGcmOcnFlkZP1SQBMAa3Vb+vcrDzV3IsSgJgoARJsFP7OcvZFuqS1CQBMB7znOfNjie6bXJqEAeAQRIkwc7NcrWFkdNzOxqAETnMWd7maIevYJUXDgMAAyRIggZMcl79Vnej8ScAI7OfRd7usDLpXc4cBAAGR5AEjVjkVeW/oCYJgPHZz1ne7Kxn0utcOQQADIwgCZoxrxwlrbT9BGCUDnOeVztaze00awcAgEERJEFDakdJGm4DMFbzXOZ4B393kxM7H4BBESRBU+pGScrrARivSU5zkenW/+5KpyQABkWQBI2ZVxwv1XAbgHGb5mIHa6m9NrkcgAERJEFzTiu2BFWTBMDYneygLulFNnY8AAMhSIIGvc6k0pav3MgCMHrTnOdoq3/x2vQ2AAZDkAQNmmRRbdtLuxeA0ZtkkVfVhm0+59wVGICBECRBk2bVpre9tXMBIMk859nb4t9bNLsnAOA+BEnQqFq3m7okAcCtaS4r9iX8Nau3ATAMgiRo1H6l1ds2Vo4BgDuTrXZLOs/aLgeg9wRJ0KyTStvVowEAfrHIiy39pY3pbQAMgCAJmjWpNEYqSAKAj53k1Zb+0pWrMAC9J0iChtWpSXILCwCfmm8tSlKTBEDfCZKgYftVWoBudGgAgF/ZVpS0yoWdDUCvCZKgafMqW1WTBAC/tq0oydptAPSbIAma9qzKVlUkAcBvbSdKulaTBECvCZKgaZPMKmxVRRIAfM48p1v4K2qSAOiz39sF0LZZropvc2W38sAz5+Yr/99DOwgYgOO8z2Xlv3Gdi0qT1wGgPkESNK7Gw/mmB+/7tmrq68HFh72zn30nSgWr3GSZTd4nedf5t6aZZP/uf55mYjc24/ZILn/+t3zhuO7dfZ6eZHr36br9N7Zv/clEZMdhexZZ3+Nb72HOBEkA9JYgCRq3n71cF9/qsrnqkXXWd6HF5h4VU68/+vcPAcbTTNTGPNgm77PMKusH162t8nE8Mck0T+/+w/atss77rHJzj4fi65+/cT6uhrw9kvuZigerHq/3WWeVm6y+GPhPMs2TTHNid1X1OseVq3fVJAHQX4IkaN7TCkFSKzVJq7zPKu+LjPx+GmDsZT+HeZqpaqWOZ8QyyyyLPzht8u7uqExymMMcCpS2YJ1lsc/Vb49kspenmeZQYFv009f1eG3yLsmVIKmySRY5rnytVJMEQF8JkqB50wpdkt5XaeLd3eoutqh3k36d67vHsr27AEOg9KVj8TZXW+ibtclVrnLbQP4wz1S1VLC++1xdV/4717nOVV4nObj7dPHQI3aVt9WnUPEw0ywqx3XXudrxtRgAHkaQBM07/GQCVxm7q0i6ytstPOh+7DqXuUyyl2c5dNP+kWUutnwsbs+9y1zmZWaZiZOKWeWiQj3Zt73Lu7wWDj7oc/A25xY+aNwsxzmv+hfeuCYB0EuCJGhejUqa9zt4H1d5m6sdRljXOc95Jpnl2ehv3dc5z9utR0i/Ph+u8jJHjz4an7Yjfqz+1dYsc7HTz1XSz3BwU/Bb8L5do9Y52/kxo5vTygHtu6wKTff91tIUdc/pdmx7P2x2cj/1eeu7ZUpKONz6+x3uYgJ19pluheyeIAma1/8pWeuc56KRx6bbR95J5jke6WS3i6bqIC5zmb3M8/zBt0QXRSv22nkk6Pa52nUc+KmrXGWRWea9COSeF9vSm3u832XOTGXrlUXlPkZvsiiynVdFz6s3vZ2wuu398L7gN8lj3VZfl/Hla+FJpbu5vQptHNpwVqGucTLYvUWfCJKgB6bFH/zXW3vtF7lo8LFpk/Oc5yDPR1WbtM5Fzhusg7jO65xnlhN9rHr+ubr9bN2Gg88zb3q8dBevbZ1TIVLvTHNaKOr5vKtsVBbQG5PMCsZVH7suVp3XmrcVtjnzrUEDvrMLoH3lLxfbqGLY5DyzvGz4weldTjLLxSjOoXVO8yyvm51Os8llnuV0ixFnf4/kWQ6b/lwlyXUWmWXheH50hi/yTIzUS8c5qHpmjOMaxFDUq8Aa5idhVeWOu506OMZMkAQ98KR3r3iTs8yyaGrazedd5+Xgw6TbEOmyB69UmNTlSLYbB/76W+Dc8bxzlVnlps3U9LLq1gVJ9Mk0e5W2/LZX+6GrN1WOwVD7SdEvgiTogb5dMM4y683DbvIhTFr25vXeR39CpA8uM8+ZRsQDOJIfjufYw6RNTqp1FWE7pnlRcesrq/fRK7WqYa4H+Umo0cvo2ElIEwRJQFFXPQuRPrjO8xwP7HF3k7PMexg9bPI6RxpJfqSvIdIHl3mWxUijlJVzeRCeV6vCSNQk0S/12s8P75NQY33OSZ45CWmCIAlGqsZD3TrHOenBdLYveZf5gKafXOWol5Hereuc5MSkqHzorXPZ+/dxPsrJXReZ9/gbkV9Mqk5vEyTRr09DrWVKhje5TaNthkyQBCNVfpnzswG0kt1kMYi6pL5HereuMh99LceQ4pdNFpkPdArp551W7q3DNs0qttzeqFqjV2rVJA1tctumyiCQRtu0QpAEFLDKPK8H8l7eZd7z8eHzzAeyOtS4u8ssMx/chLBVno9mktvpAOrI+NhJxW0Ps80wQ1WvJmZY1Xk1Ptd7Gm3TDEES8GjnmQ9qFGmTlznt6Wtf53hgD+pXORphK9pNFnk+0Pd9nqPB1yVtcixGGpzDHFXbtook+qVWTdKwItUan2v1SLRDkAQ8yibHWQzwfV1m3sM45mIwtUgfu+59jdh9LXM06H5C13k+yG+NX5wO8HNIzZokk9vol1rrhg1pcludT/W8d/uB4RIkwUg9LbKVVY4G+8C0yqxXNzSbnOblYCcN9bdG7P7HcZHnI2jQvPs6xnrTA06FAgO1X7EmyeQ2+vVZqPUNOpxhoxrv5EijbRoiSIKRKnEpusjxoB94NznuTZS0GvxUmsscj6C3zirHo1nbbJXjnT4y1LodX5jUNmD1apKEj/RLrZqk4USqNa5v6pFoiSAJeKDzAde/fLDJcS9u7696FHk93LvBR0kXoziOH3++Xg5uitvFaILAcdqvtvD5ZoS94OizZ5XC+OuBhKrrCp/ovRw68WiIIAl4kNOB9zj5YJOT5gutz0ezstlqwFHSsKcmfu3sHdIxXY3ke3HMjqtteVyd4Oi7SbVQdRg1SRptM3yCJOiB9lY4GtfC1oumR4rHEund6lvnqq7GvMrXuxxnPZD3cjrCKHBsDqv1hhn6WoYMTa1pVsOoSHrToz0ODyNIglF6XEHyuGKklnslbUZ3LG6PxtAe1ocaj3V//7tuvF3GmclJo1CrJmk1mECVcTjMXpXtDmENw1WFDqIabdMaQRL0QPmHk8eMqI4vurgNL9q7xR9rFcvQoqSLUbQR//Yx7XsIs87rkR/FsZhXe5xTk0S/1Jpq1f/JbRptMwaCJOiBlh4yxxgj3R6D1voQDeHR+6GG1CvpYpSdkYZ4Pp86iKNR64FOkES/1OqS1P+KpPJRmEbbtEeQBM2r8XC1/8DfOx/xwtarvGro1Yw5Rro9Gi8G8T7O8nLER3FI5/Qy7xzC0ag1uU2QRL/UWsWw75PblhUmtmm0TXsESdC8GlOqHhYkXYx8RaLLZhb2HnuMlCTvBlABcmoy1GDO6zOHb0T2KzXcvtYliZ6xctvn1JjYNuvdXmD4BEnQvPcVtvnkAb9jYetW1m8TI9267Ply2WOdJjrEc1s90tioSYKkXsewflcklX/1swfPJIB6BEnQvBo3lvcfTd3khU4uaWN571Mx0p2XWeVpb8+kSwfwM/oZJalHGptnlbYrSKJv6nQM6/PktqsK94kabdMiQRI0r8ZI9/1HNk4rzPjuo9XOHxlPB9CGspy+dkoSI31Z/1blW6tHGp1JpYkmBgnom1oRR38nt9VotG1iGy0SJEHj6oxP3jdIOhdefLQvdjlmfCaA+MR1Uy3Qu7pwFL+qb1FSK73T2KZaQZLKX/plWqljWF/vOjcVru/qkWjT7+0CaFsLE9vWO6zCmdy92v3sf7Q3dnuzvdhZb54LzZl/o3+VchcNrdR28Kv/vmmkImKV0x5NF1NFMkbPKn2O31vkm545rvJZ2OSql3U4NSqpBEm0SZAEjasxJnPfIGn7fYEOcpin31gZZ511Vnmf1dYf41Y5y8kOzoX22p3vZT/Jk98cp+Xd6zW2/lvLncZIB9nPfg6Trz6sbvI+m7zPKu93FtRd7ehTBt1MclBlSuNSkETP1ApV3/YySNJom/EQJEHT1lVCkvtdks632P9jL88y63gb/eGBONlkmWXebvGR9zzPK61U8mWttDs/uIv49judR6vcZJn1DuK+Nq12Eo5McpjDHHaOkCc5zIepO5u8z3Inq5K9zlN9IWjYsyqfCt+U9M0kR1Wma1/m5dbvtB6rRpNw9Ui0SpAETaszheo+452bLU0wmWSW5w+caT/JLLOcZpWLLcVJm7zaenXQrtudH+RZpvceK5/+fL7dBhJXo35M2n4YOM0szx7VweI2hEo2eZtlldVovnbOXxiJpVl1Kofe27H0zrxS37+3vQtRyt+1a7RNuwRJ0LQ6QdJ9Fkw/28KD416eZ15g3Gma05zmKm+2UD1xmZOtPuLurt35JLM8K3AjcxtInGSTt7kaafP2F1sMA/cyz7zgOTrJPPNs8jYXW6tO2uRkZ/3I4Fum2avwibY+Kv1zWOWzkFwJktQj0TBBEjRsWeXCPL1HZLOuvh7RJKeFL5OzzLLMWfWH3bMt1iTtqjvSLLPiNzG/BBLnI6tOWmwtgJnluFK1xO3RW29t9cDVaDolTTLN07tJhU8+U0O2uatUWSZZNtMUfewOq3wOdEnq1znwmBqyp0Vfy4sdflvOqywFcpVNrya31WhHIUiiXYIkaFidSWXTnb+CX7yo1GvoMOdZZlH1YWt7NUmbnG793JtknuOK7+82kFjlzZYCid272tIi8UdbOC/3s8jLvMn5FuoVX99NrRuqvbv+Vd86ZpO7vSBiaEmdIGnlKNM780pryvZrcptG24zLd3YBtGpdqX6h+y3qsupD/jQXOak41nSYi5xWHcva1vLkZ1uuPpjkRa5yuoXbl2kWeZsXvWun+ZBP8zbCwKO8zWJLt52TnOQiR1v4S6cDXf1vL8e5yFUWRacgsk11Ap+1HUvv7Oegynb7NQ3+TfEtqkeiZYIkaFatyUzdb31rdic5zsWjWgB3/SvnFf/K5VZu+JdbqmT54EWuqgZ8v7afk1xtJZDYpfphyMEWQ6Rfjt0iF5UeH35xvbXIdnsOcparnG7hO5C6n4C9ClvVbps+qhN5XPVoIGFVvB2FRtu0TZAEjVpWGoeZdn7UXFerR5rk1dYma02rVk1sI+LZ5rS2Wd5uNUT65YxY5G31QGJ3anfs2stZzndU1TLNeeXKv+Q8ywGdDQd5k3OPBwPxtMI2VSTRR/NK14G3vdkD5QdfnzmtaJogCRpVawz+cOevYJLzLRfrLvKq0pYvqo+VnW1tDZ9JznK2wyk2+znP2SAnua0q9Y744DiXO44l6tcXLjIMt5GfDjjDUeNYWreNfqpzHerP5Lbykdexk4qmCZKgSefVKhi6Xug31SqizncwnWNeKUraVB4rW1eOID4+L64aqJFo41WUVrOmbJI31euButjPRdVb3tUgprftPvKjtDpXsyFV4DEez6tstS+T28qvs3ygex6NEyRBg9YVq4G6jp++rXLp3ttJjJTUi5LqTm7bzrS2SV41Uws0yVkTwUg5NVulH+SqoeqW07yqeOTOez7hZ3hnNkmtdtvDbC/P0E0r3d/1Y3Jb+YltGm3TOkESNKheY97uo+E1ApJJXu/wQapOlLSq+Hi7rNxZ59be1qcafstxzqu0sN2FdcWo8TjnjQUT84qvaNPrmqSJrkiDVePRWbtt+qlWw+0+KP0qJ4IkmidIgubUbMzbtXHfukoVxfmO1yiaV6nwqRcUbKMeaZrLBleOavNVPewY1gqFX221DXv3I1cvBLysWNtVe69cWZ9tsGpMPlGRRD+Nd+W28q9RjET7BEnQmIuKXXEmncfEa4Qjrxp4lDqusIJbraLriy20XD1qrqbll3O15mp723JVKRSe5E2zN5k1Q8BXjb7nb+2RVj9llDm+5alIop8mlSov25/cptE2YyRIgqasqq5O1P3Rs/wl8aiRB9+XxW/7ryvVSdSfyHOURdMPuIveR0l1go9J4+t+TarVHr7rYRPiyUDXIuQDa/DBL+rc6V00/q43uSy8RY226QNBEjRkleOqBbxdL/Dr4rUwe3nZyD6eVIjqatzinFevRzrqwZLq/Y6Szqocw8nOp4h2+5TVCU/61idpknOPAwP3pMI23/VuL8CtWZXJze8aX2yh/OCriW30gSAJmlE7Rjro/PhZvrFhS5Uv07wovMUaRddvKu+FPsRIt2fOUU8/z5tKDevbj5FuP2V1pnP1rSbpVG+kwXOE4WPPqmy17YbbGm0zToIkaETtGOk+4xulH9VmjRX/nxQeMSs/ua12f6SDnsRISX+jpLMqn+dFbx5bp5XOsT7VJM08DIxCjQqMvjaWhzq9fVqe3LYuHiS5ctAPgiRowkX1GOk+4xulL4ntrS5V+hG3dE1S3YflacWG7nWOVv/G/NeVGtb3aQn5WfHav6RPNUmTHsW1PEaNyYs3diu9/TwcVNjqquHJbeWrpTTaph8ESdCARV5WX9y0+2Wp9EjoUYM9Qg4L3+iUvY2oW4/Ux+a/9ZaUr6VGFHjcu1HKkyoPFH2pSTrVZHskntoF8JE6V6p2J7eVrpbSaJu+ECTBjq0zr1K78KlJnnf+2dLj/SdN7veyr2pVNAisez6c9fAWZZLXvXooXxdfwSU5aLCy79tqHLfW265+OF4mJ4xFje+m/q1PCB88q/KZaHVy27r48KtrB30hSIKdOs98K70Qju9xWX9f9C/PGo0tStckLQtuqeYZ8aKni1VPexWjlK+ZmfRsOuIvr7vG9K4+1CS1GaBTg+oB+NikyiTsVie3lQ64NNqmPwRJsDOrHGdRfUpbcr96pNJT29q9ID4vurVyQVLNUbeDHj/eznvTH2hToR6pf9MRP5hVOG5XW/nefNwnrZ+BLQ8hSIJPPa+y1TYnt5W+ZxMj0R+CJNiJdU4zz7st/bXjez2ElgyS9hp++J8V7btTKkiqEUJ80Pfmv4uedEp6U+ET3OdYYlE8BNs0vYJPoh6Jx7JqG302rXK1bvF7f1W8p6VG2/SHIAm2bp3TPKsYF/zaLuuRnjV9JEqOmZXqklTzRumk5yPn/QjCNsV7XO31PJaYVJiW+Kbpd6weaVxqHG2rttFvNWqSWpzcptE2YyZIgq1abTlESpKTe9UDlL1Mt/04VbZaqkxvqXpB0nQA41yHPZje9rb4tKtF71f/mmdaeIvXTVdsmJoAjFuda3V7k9veFt6eqwd9IkiCLdnkPPPMtxwiJXv3jA9Kt9pu2X7R11dictuq4uNxH9f8+q32Q5XS9UizQVS3jKkmSatUYOz2q9z/tTa57arwxLZJ43X88ClBElS3yUVOcpjFTsbQdzkZ6CCtK3mjU+Lo1rtJOhrIZJtJ43VV5dfcG0YAeFj826DNtquJEeUxKn+ta72dPHxLjW/C1ia3la5HmvW+/phxESRBRcucZZ7DvNzZQ8/9qxmWBf96+9FFyVdYopbrbbV3OpzmvydNt9wuHQUeD6ZfQukzcNNslCRI4vE026bv6oQibX3vl341z5t6d/AtgiQobpWLLHKcp3me1zu9Hdx1c+L2H4H3C/ZuuX70GHL51T8+OBpU+8Z2Q7HS4cZkQAFg+ZqkNldu2yveDwqgj2qE6i1Nar4qXDk4dfWgZ35vF8BjbfI+t5U8y2yaGkfcdT+ZPoQXhwWP2PtHVjjVezAe1mLk85xVi9wep3Sj7eNBlbmfFB5tvcqmwf2jwwVAkhwX7xl4u9BCK3FL+Qpk6BdBEgOz3ehk3ejj7K3ZgzoAvSv4CvrQleew4I3O6pHvuNbEtmHVIyXJSV42+bpK31YOq8z9MHuFvzGXDbbzb39dQcrbL3rlhKF8LqYVBlcvGukcWL4C2TAEfSNIYmD0Ffhgb8fT2vqiZNj1uCaQ9Sa2DaseKUnmWTTYjHZd+GHyaHBtN0sHgG+bi20mA2lqz/0MLaqHMo4rDPq8bSRI0mgb9EiCgXq980tSPy6Jk4JF0o9rt72s9A4PBvmQ02IJeOm2m8MLAJ8V/lZor922GAngg2cV7gSvGxky1mgbBEkwSKcNzCHvS9PAcq/zcTc3tSa2DfPmpMV3VXZi2xADwEnhCqJNtfj1oQRJAB9MqlSNtrDQwrpwkKTRNn0kSIIBOtKy7x7KPa4/brJVnR4bewPt2TLJUWOvaF14lHSYi8iX7gHRWk2SRwGAX9S4kr1t4H2Vvva4a6eP9EiCwZk+ak76+8Hsh64O87rYtpYPrkioVVkx3OaNz3LZ1OspewQnAw2SZpkU7W6lIomhanFNQriv8osstLFyW9mqKI226ScVSTAwk5y7/byXNiYQ1XogHu4o1yx7Tb2eq8LvbrjHraRVU03XDwZ71Ni+8Q3qMEw1BkV2PbmtdAWyRtv0kyAJBkWMdH8lg6TlDn7za6aDXk2orRG8qwG/t5bfWUs1SU8H/GkDeIghTm4rHWRptE0/CZJgQCY516PjAVqobKnTIWmY06NafHdlY6TJoCuSykbdLQVJFoEH+NR+hevZrlduKxskabRNXwmSYEDESA9T7vFvteXf+5Zhd2yZNlR9VzbOGG6MVP6sbClI8v1LOWJJhmJoK7etCnd90mibvhIkwWC88hjzQE+Kbenmgb9X52F4b/BnRDuBS9kjOOwAsOy7WzX0zkxtoxxBEkMxrzDos8vJbRptwy1BEgzCJBcDn8ZUU7m45aGNf+u0VR3+ClKt3H5tCscZw76tLH1etlKTNNGfDuAzyt+f7nJyW9kQS6Nt+kuQBAOgN1Ir2praNvxRrlaisrJRRktT9mqYDrRLku9ggM8Z0sptV4Untmm0TX8JkqD39sRIvVcnSBp+RdKkkTPfxLb7KXvUWpncZioSwOfUaCe9qyCpbD2SRtv0mSAJem6aS5ehR9p1Z5M6D8JDr2u51Ubo8n6A76k/R+19I+9KkDRea7sAvqp8TdKm8GqpXZX9qxpt02eCJOi1o5ybXf1oJffgQ2pT6jyEjCNebONdvnPk7qVsdHv94N5kZQmSxkuQBF9XY3LbLhpuXxW93mi0Tb8JkqDHTrMQIw2AVtv9fpdlJ7ZNRhBIlI7K2qhJEiQBfN4kR8W3uYuKpLIT6jTapt8ESdBTe7lQEjsQdUazx7EU+X4Dt2FlpyaOoZKsdOTSSpckAD6vfO3N9ie3lf6LVlum3wRJ0EsznZEGxNS2fr/PssdvHAHgQQ8+Qfc1jhpA+vgJgd2bZa/4Nrc9ua3s39tz1aDnfm8XQN9MssjMbnikVW5yOylpU3Rq0vIBNwY16inGEzM+Ldyh6P7KTqwaxwSpJw0fAbgvPZLg2+Z5XXiL265IKvv3njsl6DlBEvTMTF+ke1smWWf9879dN/b6arQKHk+/lt2/U622H/IuS96Qt/AY71t5zFq7pkCLygdJm1xtcWB1bWIbfEKQBD2yl4VC2G9a5rbeaJ11Nj3onlLnFY6nImnX77R0iPEkY1D2XbbwGG+qMcDX7OegeAXx2y0GSWVjpCPDD/SeIAl6YpLjnNgNv7HJ+4/+08emuzdVtqoiaVtKB0nGKB92FKyZxq7UqCkdR680xmZePEja5uS2siu2udbTf4Ik6IWjvDR2cWeddVa5ybKnwdGvbapsVZC0Lcsm9oJvBUESu1KjR5frPUM0z6LwPc/2Jreti95xarTNEAiSoHlHORn5Q9I66yyzyfsG+xs9Xp1GwWM6YyaVwrhuNs3shzHbfZckQRbAt8xyWXiL25rcdl50axptMwSCJGjaeEOk5V3l0XoQVUfbN6azZrrTddusGNYCQRLDOvtMbWOYnhcPkrY1ue1t0a2Z2MYQCJKgUZMc5/nIytvXWeV9Vnk/qjVwVLQ4fkB/1QiSTG1jmKbZK3yHt53Jbauir1qjbYZBkAQNOsh8RKMVH8Kjd6N5x5+qUdEyrhWkdrvOmYq5FuhUxe4Ik6G751kU3uLFFoIkjbbhtwRJ0JS9PM9sFJMk1lllOeL4qK5xjXVNt7puC8DHagwGaMTLUM2LB0lX2VS/6ykZJGm0zVAIkqAR0xxmPoJKklWWWY5s8hrDpRIGxk5FEnQ3yaz44M/byjU+V0U/5RptMxSCJNixSQ5zOIIqpNsAaemWGyhu95WNmiOPV/npreOanMzYzIsHSVeVgySNtuFzBEmwI7cB0uHgbxjXWWZZeDSHb/FQuy3Oa25pneo7wNkEXcyKN9yuPbmtZPCl0TbDIUiCrdrLfg7zNNMR9EFa5SJLrYg77Kfy3KZsy3u7AEatxneAoQCG7VnOC2+x5uS2i6JxsXokhkOQBJVNMs2TTLOf/dG017vK2yx1QepITQtAX60rbNNQAMN2XDxIqjm5rWQ9kkbbDIkgCYqZ3E1Te5rJ3T+fjK7TwVXemsYGbN16FKtd0uKZV55HTYZtP9PC1dj1JrdtigZJGm0zJIIkdmo/L3r4qg+/8d/HaZ3zvFWFxMiYutkKQRK7UWPlxid2KwN3nJeFt1hrcptG2/AlgiR2aj8ndkLvbfI25x6oGaUbuwBGrca1z6ptDN2zLApXr9ea3HZRcFsabTMsgiTgEdY5M5UNgFHaVLj+7dmtDN4ks1wW3WKdyW3rvCu4NfVIDMt3dgHwMMsc51kuxUgAjFKNNdtM0mQMyocqbyu8So224csEScADXGSe50XHacarxuizcA+gvhodkjxsMgaHxe9+riq8ypIT2zTaZmgEScA9XWSWl3oiFVNj9Pl97/YCQP/UuBKqSGIcSgcr5RstrIt+wk1sY2gEScA9LDPPS2uz0ZS1XQDsRI2KpKd26yOox+2PWfEtlp7cdl5wWxptMzyCJKCjVY7zXCUSzREkAbuwrhJbWLPtMdyj9Md+8SjpvPD2SgZT6pEYHkES0MEmi8z1ROrR8QKgrhr1SAd2K6NROlxZFR1YWhWsv9domyESJAHfdJVZ8XEeahrXmKyKJGAXTGyDx5gVn+5VsuG2RtvwdYIk4Ks2OcmJCpeKjFI9lp5dwC7UCJJMbGNMStckXTS6LRPbGCJBEvAVy8yqLKhKbeOpSRJyAruwrhJiq0hiTNqd3FZyDTiNthkmQRLwRYs8H/xj+l4OcjDArhQ3ozlL3/ugAjtQY5BloiKJUZkWP+NLfS5LNtp+5kAzSL+3C4DP2eR4gFUtB0meZpL97OfjSWWnO2wkfpjXFba6Gs2UOR2SgF2oMbHNVGfG5jgvi27vIsdFtlMuKN4rvjodtEGQBHzGKscDqEX6EBv9Eh19yfDCiPFUJAmSgF2oUZGkHulxlnZB7zwrHCStsv7q/V43FwXvgfVHYqgEScBvXOW0lzHSQW7Hcz/8px/2q2x1PLfT41qhDmhDne6BKpIYm0mOcln4s3lcYBvlCJIYKkES8CsXhUeHajrIk0yzn/087W0rwzpB0njqdFQkAdv3tspWBUmMz7xwkPT4yW2bgkHSrNJdHuyeIAn4ROsx0l72c9jz6Oi376n82j/XPdwPD7PbiqTDHXbXAnanRkWSTiqM0WHhu6DHT24rGROrR2K4BEnAR9qMkSaZ5mmm2R/oaO1+ldhnOYqx7WFN4XuRkxEcM+i/qyrTv9UjPZYK1X6aF1505LGT2y6KvRKNthkyQRLws7ZipEmmObwLkIZtv0pVyzjWbRtWhyQPQdAPJra1yXdoP5UOkh43uW1d8J5MPRJDJkgC7qyyaOJ1THOYaQ5HNKu8Vrvt457th4d4P6hj5yEI+mBTuKfLrT1rtjFS+5kVnSy6yuoRnyaNtqEbQRKQJFnneMcrtU1zmMMcDqbzUXeHhcfibu06YtmOXU9t00QTxkc9Uqv6uN4sSQoHSclFTh/xu+XelXsEhkyQBCTZ5GRnN2CTzHKYZyMMkD6oc6Nx/eh2k+1bD6ypuIok6IPzKlt9Zsc+2jgGUIZonkXRu9C3Dw6S1gWnzKtHYtgESUCSs530mtnLs8yMwlaLe5aDv4nZfavtp0W3Np619qC/lpWul5ryMmazohNGrx88ua1cZZRG2wzdd3YBcFVpfPXLJjnKm1zlVIyUJDmodFyHf+buWuk6OhMzoHUXVbbqkbMEVZ399byRz+mbYq9APRJDJ0iC0ds8Yib5QxzkVZZZNBUh7frm82mVre6+Xqe2Ft7hXtGtmZgBbVtXabTdWpDU16uHqs7+mhZuNv+wTmargueQIImhEyTB6L3aYhXEUS5y3uDFddc3n3XW6tkMPEq6aqJ+x7ptMCa16nd1SGLsyt4bXj9oCqpG29CdIAlGbllpdPW3jvI2C8sbf9bTStsd9uS2t028CkESjMem2sS28S43Uc7wq3CHrfQg40M+q2+bfTfQHkESjNzZVv7KbYhkdOZLppUeItqIWmppIyYre1Z7EIKWvalUB+mhEyY5Krq9+98BlZvYptE2YyBIglG7yLvqf2OaCyHSN9XpGHU94JqkNia2la4mU5EE7dpUmtg2ae6hc9XY6+lGEN93ZSd4Xt/7jChXbygaZgwESTBq9euRTnNhOlsHtfbRcGuSWnlnZWvJrq3bBs2qVY/UXu3CjYPNDswKL19x32DIxDa4D0ESjNhV5SbT01zkuAf7oYVRzFqNVlup2ylts7XeXt9SupbMmDq0aZ3Xlbb8vFf7oV2+Pfuv7L3Q/Wqyy01s02ibcRAkwYi9qbr1Wc7VInVWq0vSZqA1SRcNvZayI6jvfRigSbUqePcavFL2c2qbes7+Kzv4uLlXlGRiG9yPIAlGa121P9JRznqzCk0bN5+HlbZ71sS7K+1NQ6+lbJckY+rQonornLZYj9TPSKaf8Rcf289B0e29rfSzX6PRNmMhSILROq+47aMserQn2qgBqXXjcT3AaOKi8qTM+ylbTfCuoXcGfFDrmjZptHqhf43/xUjDUPbz0L0iaVnsvkI9EmPxe7uAXVoWH4l7U62uY3jqTQ7qV4zUinpn7lnV0HBY5+7DjlzZzilXRjOhMWfVYopZo7W76951ebHm5TA8y6JgRdym8xXVxDa4LxVJMFL1mjAf9C5GaqNiZ79an4x3A6tJWjZWtfO0+PsDWrKuGMa32mi7f7GM/nLDMCk8lNJ1wtpVob+n0TbjIUiCkar1sDqptq5NPSUjtcfcfNcbxRpWn6TW3s2kcLvtYbZHh/46rTjw0uqSFP0LkkTwQ1E2XL3q+FOlPuPqkRgPQRKMVK2H1UVvWmz/ouSUhcfcfNeb0DSkmqSLBrsIlZ2WeK3XBzTkrOJ3zkmz77p/30K+N4diWnRwptvKbRptw/0JkmCU1pWaFR/08BLazrjrfsWx6eF0rWqxuqr05La2ekDBmK0qVtnuNdzVsW8VSeuerjTH55StSeoSEpWa2KYeiTERJMEo1apP6WNc0dIo5rziuxxGOHHW1HptH5R+GDS5DdqwyYuKWy9Zj1T6W6hv9T3qkYZk2yu3mdgGDyFIglGqc8t11MsWgy016KxZz7UYwHjtutH156aFJ3Sa3AZtOK0YXe81/tDZr28hHZKGpGzD7c03B9JKDd5otM24CJJglOqEJ/0ciWnp9nM/B9W2vRlAy+3TZsOw0tUAb3p/rKD/zopNePmcdvsj3erXKmiCpGHZbk2SiW3wEIIkGKUarUNb7vbwNW2Nuta8DTnv+a32eYNttj8oXUt2pd8H7NhF1TVIW69H6ldF0kYV58DMitb5fv2KWup6q9E2YyNIghGqc8P1rKf7oq0H9nnVVe/arej5tnXTFVWlQ9SNPkmwU6u8rLr90vVIT4u/wj4NPKhHGp6yQevbB/7/dveKoX2CJBihmypb7edITHvF+zVvRa5z2tuz9qTpEKz8inv9n4gI/bXKcdXtl69HmlTYB/0ZeBAkDU/ZT+DVA/9/9yFIYmwESTBCdSqS+jmx7aq5V3Rc+f222a76W06bn7hQ+vy/bvDchHFY5bhyiNKPFU770yVJBefwlB2e+fL0tVIT2zTaZnwESTBCNSqSDnq3F261N465X7m2a9HDXhIXuWz+NZYfi9RwG3ahfox0UGHg5WmF19mXMHtdcW09dqfssNrbe/7f70s9EuMjSIIRWlfYZj9HYtos3T+uvv11g+/6y5aVe5WUMc1e4S2+M10Dtq5+jJQq32g1uuv15RtI9eYwPSvccLvm2aPRNmMkSIIREiR9cNHkqzqsXN+1abzf0KdWzS+S/UH5dvP6JMF2bSNGOi7eUe3WXoW90Y9Bhzav5DzWpGg48/kpbKUmtqlHYox+bxcAJfQzSGq1r8JJnlfd/irHOa+6PlzJV9qX0GtevP/Uu1wM7vZ0U7jvSj97s9Gm5RZC9km1aHy/wgSvZQ++gdY9nK5NN/Oi09rffuZsNrENHk6QBBTRxyBp1WxfhcMc5F3l996HKKlPMdLt5LbSZ9TZ4G5P3+R10X2uFoFSLrYyifa02vfufoWrxlUPvoFMbBuuw6JX1c+dzWXOHo22GSdT24DRarmZcf3pXO2HNP2KkZIaY5LXA5veti4aIxkFppzFVmKkg4rnbI1H2asefAdblmDISn5eltXOb1cixkmQBIzUpulxzMMtrIPXdlDTvxipzs3kec9ao3/daeHtaW9KCZscF5+Y+jmTLCpuvU5NRKsTwD9YWrFt0EpeVX9711fm7NZom7ESJAEj9bbxmGIbLaZXOWq0u8RFD2OkZL9C/LcpHr7sznnhqTdT0wkoYJlZ5anEH5xUPWPrbHsbAdtjmNw6bPtFQ5pfB0dlhhPVIzFWgiRgpOpMGSr3OHK4lTGu6xw3WJl1lpc9jJGSOjeU75p/lOtmXfwz5/adx1vk+Za+bQ5yXHX7dRrPr5puZb0u2oyZFpVdue3T/2ZiGzyGIAkoom+rpvShHH47lSibnDTVh2eT48J9dLZpXmEJ7uRsEKsSnRZ/XHf7zuOsKqy1+CV1p7Xd2quy1ZZ7EA0jZOdr5gXb0386ua1MNZtG24yXIAko4qZnr7cPLYz382JLf+l1jhvpxHO1tUkmtdQINzYVQphtOy9+XI+aX3WQlm1ylvkWI9qTLTxu1vkL7Tbc3pjYNgolr6pvPzp7TGyDxxEkAUX0q2Ji2ZOw4nmlEebferfFkfkv2eQkJ70PTJ5X+ny96vn3Q/lqDLfvPNxVjrZa+TirPK3tVp3JbZtma5Le9P56QRclv+t/CY802obHEiTBCD2tsM1+rSy16MnrnGxlQepbmyxyvMNA8DyzptfR637Mjqps97LHY++bCrV1e5Uemhm+dY5zstXJzXtbuuY8rbTd8yYDm7WJbSMxzbTYtjZZ3v2beiR4LEESjFCNCSGrHo0MXvSofmq21dGud5nndAeh4DLzLAYztlxrvb2XP98A981phYf2kx7uB3ZvndM823pF6ustTcOcVtpumzVJZ+qRRqNkPd/V3TktSILHEiTBCD2pstW+PORuelOPdGux5U4wl5nnbIth0jLHeT6IZtIf7FeqSUpOermfFhUqzSZu37m3dRZ5toNVvl5VC3h+bb/aZOjz5qqOl9Zr+43hBmvPCm7r7Uf/fKwDjbYZNUESjFCdm9q3PXn3tUcxS299svXga5PXebaVyqSLzPO85821P6dWtcxmp5MPH3qMa0w/Oe7ZXmDXbiuRdjEV6miroWetyW2b5hao6NeA0Ha8H+w7Kzll/DqrmNgGJQiSYIRqrezSB8vqjxLlb+Vm1SpcvuYyz3Kci0qx2zqLHObloCqRPv6E1TpifYuSVlW6fE0qtTRnmJY53UklUpJMtxx41OscdtlU1fHZQK4d00G8i20oWZN0UWhim8pYxk6QBCNUJ0jqw0K8m5z28oi93NHt5ru8zCynRZd/Xuc88zxrtH1rKfU6+PQpSlpVqhw63vJ0T/pqc1f1eLmjv7+39Rqomi3oT5v5zl5tdcW9msp+kw2vuvcXs4LTNpeF7lbFSIydIAlG6aDKVtsPkk63ulJPOZOtd0r6xSaXOclhjnP+qBHpTa6yyCzPshhoHdLH9itWkfUlSlrluMqDp3okuljmNLOdVj1OttZk+xfTin/xOq+aOLI1VoEcin6tn3s/5WKbVaE6QVOsGbvf2wUwRk+rjFy9y7LpJbnPery8/DSnVSYJ3efo3p4zB3ma/UzztNMDyyo3WWaV9z2N8B7upGgd16c2Oc5Z05+1ejGSeiS+fe5d5G0D3zjnO6kknVWsv7rMYQNVGH0dENrOuT/c5s/zxurQNNoGQRKMUq3b27OdNDPt5qLnxfDzRlapefdRCHk7+v3bQGOddZLVViZCvMhVk/U5+zmueMZt8jyvGi6srxcjqUfiy66ybCJCSra5VtunDqteJxZ5uuO+PoseDwj9Vuk1dJeZDfbTvZ+DpibvmdgGgiQYpVq1DO9y0ejFdbW1ep56peWLrBqLTFZ3R313pjlpqgXsx57nouoj7css87LJ6pyLLKqFiKfqkfiNda6yzLKhvmu7i3mfVb3WbXKcqx1+Bi8aHqx6iGnhWOxtT/tAdjNvKEjSaBv0SIKR2i/YtvBTiyZbKK+2OJe9Zo+Cc2u8/OZ8a9ekenh52WS3pPO8rPYtMHXzzkdWucjpXee1KzFSkmRSqQfiB5tq1YbfdrHjCd7tux50B8J5Q8MIrkQgSILRqlWT1GIbzNUOb3zL2mXT7Ra9aDxYm1WfZrDKcVMj9JucVA33hjzaTlfrXOUsxznMPC9z2VzHnF1POn1Wefu7uqIOMUZ6WmEvDVk7E/c02gZBEoxWvVvNd41ViVwNJkZKkmnORUk/74uT5l9j/YlYmyxy3MhaPascVe1fctR4g3FqnufLnGeR4xzmWU7yOu8a/V7ffe+y+g/bqx185ywGWY1U/vpwMaD7nd9qpUOeRtuQ6JEEozXLpNrtxnlDE1CGN4Y5zbmi6iSTnPXgVe5XrtC59S7P8iLPdxoxbvKmcjv7iWktI7LJ+yTLu/+01GL361pogb+fWfWG1KvMtzjVepPTQbXY/kX5iqRN3vRgiOWhppk2MXnPPRgkgiQYsZqLBL9MCxfaTV7tYJ2z+q2fp3nlkTqLnowIHuftVh6DX+c8pzv71C23sCS3aZ1Ds/65quU2NkpWucm21nusoZWVFGdbiF02med0KxN8tvHtsis1vtPOdzyoUNe8gZp3jbbhliAJRutZ1ZDlZdY7HhVb5XSwbSfnycijpBcfTd9o/SgvMt/Kg/EmL3OWk63f4q5zuoWobDbgZa376XXlCrT+aSVGun3Y3sZ3ziJvK0f6m5wNbJ22Xyu/pP0mp72o1334ub371wAkeiTBiM2qrdx263VOdziufJb5wFcveTXic/fok5Cy9eqF/S3e+F7nZWY539o+Wec0z7YQI02aXp8PJnnT1OPltmLXd5lXDC0ucjTwGKnG5LbkasB7bdLAkIJG23BLkAQjVvu2d1eLky8zH8FY+TwXI53qc9C7UGG21RvP6ywy20I93lWOK9c1/sK0Nlo2yXljjeC3Vw+8yevMKqwVdpFZXg52Stsv6tRzLQa8etuuA1uNtuEDQRKMWP31L1aZ52yrFSPrnOb5TmuRttcWdpwruE17GRKebq0t7a1NLjPPLIsqn4VVFpnlZGvn+rFpbTRsmqstf76/bT8HW/xrZSshNzkfSYiUpFoA+XKwVUm1q+m/xcQ2+ECQBCM2ydEW/srrHG1pbOx2ms3liI7gNBfNPcDUfsd9Dc/OdvC6r3N+FyddFXrEW2aRWeY53+JD3jSnozrH6ZejRr+Ttt2j8DqLHD5ydbVNLnKSwyxGEiIlybTa2bPISW/b1n/dsx3+bY224ReabcOonWwldrneQhPgq7zp0RLR5eznPC9G885rx0g1Q7n9nG2hBvDzn7/znOd24eTD7D9gBHydVd5nuZPzbDLgtrH032mz/VIOK7Rx/rbLXGaSwxzm8F7fp8ssd/QN08KRqrXG3lVmORlgR5/jHVZbiZHgF4IkGLX9HG2pguc2TJpnXnx2+SoXedvU+OV6qzPoJznPYvANSZPkKC8/EyOVnLpVt67gMK92utbeKqu7T/te9vM0k+zfnamHvzp/bxdlX+Z2OfbdPtyd6UdBoyY5a6wz0qdOdhRdb3J1F40cZP/uf/Lzt82t5c//XGZd+Pq917N6pnpBUrLJIm+q3Hnt0v5OQtJbGm3DLwRJMHIvi016+bbrvM7rTDPPrMhNzVWWRSOkUrcm663fsp3mcKdr5G3D0RdabN/06D3Ms2xi6uV1rnsy9v+q6Qd1xuwgrxufZnu4w8ftW+928vcXOwrQHmpWefmID3det3ViXz9n10kvIqf5js5sjbbhY4IkGLlJjrfcvHiVRRbZy2EO8/QBk4lqTbOZZLHTmfePM8tFTnbaZLyuVwMpKF8ko+ri9ThHphHQqHantH3spGeRSgnHvQuf9zPdwrV7ldVd5fJBkqefBEqr3CRZZZPkxda7az3Esyx2MnTmigQfEyTB6J3kagcBxHUu7x6oPy5+f/rZqUs3d/+sO81mkf1CJfHrnRzH/VwMdIpb6xNI7udlVgMO/Eo6qjxODw8zzaInixzsviZp2/Z6EYP82nyr33Xvkt6fFZPMdjAko9E2fEqQBGSx04vjuyZuaV5klmS/x0FSkpxmltOBrXfzrQkky4J/axtx1STnORYlfdN0p/2k4Ev6UbHxQZ/rbB+i9emGnzcTmt/bfAdBkhgJPvWdXQBM82Lke+Cgl6OYn3OYy0E1g3zR6NLajzHJeU/qGXZnOsDjzhDOy4ueXSv2R3V1f9HTb9b9HPhw3dNh9rb+NzXahk8JkoAkJ6N+sJ0W7hK122qTSU5zMYjb0v49tHU/RqKkrx95MRLtfWpf5KKHn9vnO3jg3o0+DwiNr5dV//aZRtvwa4IkIElyNtoHt0kWhd/77tcRm+Y8r3p9RLs/tJWc2vZ0i+9PlPS1s1eMRFtmvY21JyOZNrW35WVDSp9fY4n7Su6z7TKxDX5NkAQkSfZzNsr3/ekD/ZMi29w08c7mucqLnj6QH+3ooW2y1b8lSvocMRKt2cubnPW4GuFwBFNyJj3tjvSLYVbf1rS/1ShJo234LUEScOcwr0b4rk8/eZgv82DfSiPlSU56GCYd5E0W93hoW/fq3X16fM5zNMLP3NePvhiJtj6lp7nq/aqRp4MPrfuyjt6XzdUkPWCfDfNvQV8IkoCfzUf3WPtq8DcH/QqTDvIm5/d8aCu5Rt22HxcnWYiSPnIkRqIhk7zI1UCqeYY9ef3V1qc51aAm6b5mWzyrNdqG3xIkAR8Z12NtvRiprcXdP4RJbY93PiRE6nM90i+fuTFWAn7OC0tg05CjXOVkMPHL/oA/XacDGRCaW7vtAftsOzTahs8RJAGfGE+UVLMaaffttn/tNkx61eiN6lEuHhAiJWWDpF0FbfO8GX0dziSvjMfTzNl4lLfFF2HYtVlOB3m0jgZUKyJKv69tHXsT2+BzBEnAr4wjSvp8jPSk0NZbrZOZ5zxvc9xQbdJeTrN8RH+Lknt6dyOOh71cVrzkWXDuRp0m3E5nWwyy/uB4gNf2o0GFL/t54SN4zz22jSunRtvweYIk4DcWA58NPsmbL9wWlLolaXnC1X5Oc5WLHO04TtrLcS5yleNHjfsPI0hK9nMx2h4MB7m0fh0N2MvpoKaz/dbQhomOB1fDc2J6273PgfrESPB5v7cLgN86zTQvB/retrHsevude6ZZJFnlIsutd3Sa5jDzBlfI23UNwmkOc5rNQD93X37Xmpiyewd5PoiGzd+ySHI5kPcyzMUyXmc2uqvAYzzbwr2qaxR8niAJ+Kx5nuZ4gLcz062sC9WXFtDTnCZZZ5lllkXXP/ucvRzmMIdFA5uhVCTdmuUqp7ka3Kfuy+df/xftpu8mmed4RK10hxElTQbTYvu37+x8kPde9fbXUeXzWaNt+BJBEvAF01zlRd4N6j0db6ndaFurtn3LfuaZJ1lnlfdZZlX4JvYgTzMtHCDV2NMt3CxOcparkdQlHQ96EhF9MMt8FHVIn+p/lLSNuuLdmWZh6YF7mFc+m01sgy8RJAFfNMl5zvJ6MO9m8c1HhqeF/lY/Y4D97N/toU3eZ5WbLLN5UFQzzSRPM8lh9qvGM2UDu6dpwyxXeTWY6SdfOkPUIrHbM3Ce+WiDzEWe5Ly3r/4grwd+5GZ5NdjmAuUdZq9iPbVG2/BlgiTgq07yLKc9q7D5nINO6/CUuzld9foxeZLDHH7ybm5+/uetddbJr2Kiw4/+uR3rwu+6nf2/yDyLAXzuPv/ujo23szPTzDMb/WSV/vZBfDGKb495noywY97D99britsGvkSQBHzDNBc5y3mPb2kmOdl6s8SbgZ0DyXYjom7eF9xWa2vlHOYiF1kM7lHiKCc6TrATsxyKkH42z9O8qN4Zr6y9LBq8DtU6W/VK6n4u1wuSNNqGL/vOLgC+7SQXve0kcZSre9wKlKpKWTpptqDkXm7x8XKeq7wY0CSOg7zpVBkIJe3lOGd5n7NRNdX+tmkue3VdP8rl1mOkXVaFTnNhAnAn+9XOY4224WtUJAGd7Ocsy5z1rPn2QU7ueeM5LfQO+7JuW78NrdX2b01ykud50+uKwId+FuFxaqwTOSz9ae6/q1qk3dYW7+ciix53s9qeWaXVTk1sg68RJAGdHea8R2HSXk52eBMgSNrGPi75+NNuyNH/MEmIxDZNc1htncjhmeUqp5Uew8sYd1e108xy2rMpiNs3rzINXKNt+DpBEnAvt2HSedO3nck0xw+8AXhaKCbrV+VWP5WdPtjKmm2fdxsmvc1Z7x4oZjkWIrEF00zzNFNn271NcpZls2HFUV6OdnW9W4e56nmfym2YVVjpVIwEXydIAu7tMIdZ5zwXTd7YPO7BtdwN69p4eGUlg6S9HjyqTDLPPFe5aDzG/fj16klDTXvZz2H2sy8+eqTDXOWiuaBaa/4PhjLFuZ7nFYIkjbbh6wRJwIPs5zSnuchVQw+1e5ln/sjbznI3rYKk2koGSW3XI31sllnWucqbpmuTDjI3mksF00zyNJMc5olGxIXNM28mTJpkJkT61R4RJn39m2FauDW6RtvwLYIk4BHmmWedq7zd8VSuSWaZFxmTLnfjsDRGXtW66ONOvx5J93Oc46xykbfNxUnTzC2xTgF72U/u4qL97KflPmbDcRsmXez0ir6X55mPfDrb501ykpOdH592z91F4e0BXydIYqf286L4Ftn+UTzOcTZ5m2Wutj5WNs1h5gVjgKfFzkkPPXWV7ZDUx6M1zWlOs8pFljtdpPqX19OvCGle9Ki3/r7bPsM/fnVPRQg7/2TMs8rFDiavlxoSKndn2eLn5sMA3kUT3/vtKHusNNqGb/vdf3/zR27+kv+vHQV0s8oyy7yvXidxuy7PM48co3VSdFLlsudn0jrLXGW5k0kPt4us+yzC0Fzl7ZaGhyaZ5Vlmdvm93A7gLYveb73o7Qp5i5wX3NpxTp1gjNf/78lfuvyYiiSgqGmmOU6yyfsss8q66JjZQfaty0OSshVJ096HIPt3PYlWWeZ94QeLL7kNkCyyDkM1yyy5C6lrVb9Mc5iZa/qDTO6+99dZ5X2WBSZ8T3r8fX5RdGsabcO3CZKAKiY5/PnWcJWbn/+Te8ztv+2R8TST7GffhAc+UnaUfDgPMdO7aZ6bu8eKdfFeGgd3a2T5PMI43F7Lb79TllkV+e6dZJpD3yOF7Gf/52quZTZ5n9uhli7B0of29bct7Pur7D2BRtvQhSAJqG6a3z6qr7P+4s/vu4TzDW+Lbm14o+EfB7nrrH8Ocjf3rivYy36eZJonmfpkwmj98p2yyfuscpNlcq+g+iC5W21PfFTPYfKbKYK3g3i/Nqx1D8vWI+mPBF0IkoCd8EjKY1wV3dqwp1XcVhB97HbE+tN/++0n02cU+K2PY+rk42+RX084/vBTgqPdGlJg9HnrovcEGm1DN4IkAHqmbBF7/zsk3dfHUxi0twUe45fvE52O2A31SLALgiSAZqwKT9lKng4yKDCxDQBINNqG3RAkATTkdeHt7Q0wSNrksuj21OQAQD9dFV2nVKNt6Oo7uwCgFeUnWV0X7ibUgrJjj/1eqQYAxszENtgNQRJAQ8pXx7wZ3D4q+47ESADQTxptw64IkgAa8qz4Ft9lPag9VLaI3cQ2AOgr9UiwK4IkgIbUiDXOBrWHSldYPevlXgAANNqGXREkATSlfJR0OaCapGXeFd7bk57uCQAYtwuNtmFnBEkATVGTtM13YmIbAPSTiW2wO4IkgKY8q1AjM5SapNL1SCa2AUA/rYreE2i0DfcjSAJoykRN0hctCm/vyMQ2AOilsj0TxUhwP4IkgMbUqJK5zLL3++Uiqx7saQCgtnUui25Po224H0ESQGNm2auw1UXv9sOnNsXfwZ4OSQDQS6dFt6bRNtyXIAmgOTUKrFc57/U+eZVND/YyAFDbVeGeie4I4L4ESQDNqXNDc9bjltvLwiXs9fYyAFDTJq+Kbk+jbbg/QRJAc/arTLra5KSn+6PGK58pYweAHjrLddHtiZHg/gRJAA2q0/Rx1dPV206LT2vTVhMA+mhZfKq+OwK4P0ESQIMOM62y3de56t2+OKvwmqc5dJIBQM+si9coa7QNDyFIAmhSrfGx06x6tR+u8rpHexcAqGWTE0tvQBMESQBNmmevynY3VSaK1bIqvMDvrT23jQDQO6+KD4ZptA0PI0gCaFSt1tirHPckSqr1SvvadBwAxuvUCq7QDEESQKNq1SQlq7zowfuvFSOpRwKAvqkRI5nqDg8lSAJoVr3KmXfNT3CrVzelHgkA+qVOjHSk0TY8kCAJoFn1apKSy6YnuNWLkdQjAUC/1ImRkud2LTyQIAmgYS8rbrvdXkkXmVd7ZS+bfMcAwOdsMq8UIx1kavfCAwmSABo2y0HFra8yK77+yWNtclox7DnIzEkFAD2xrHinYqo7PJwgCaBpdStoNpnnvKF3u8pxpXHHbexNAKCUTRZ5Xq1C+SCHdjE8mCAJoGnT6iuKLHKcdRPv9SzzqhVSx4rYAaAXljmqOtS1sIvhEQRJAI07qdhy+9a7BuqSlpnlddW/sKeIHQB6YJ2TPM91xb9gvTZ4HEESQOMmW5iQtcki8yx39A5XOa58w5gkLzNxMgFA09Y5zbNcVf0bE1Pd4ZF+bxcAtG6WWeVbqiRZ5XkOstjyGN0yF1W7In28DwGAdm3rnuDE0BI8kiAJoAcWmVVrN/mxd3mWg5xsqQHlRS7ybit/aaIXAgA0a5WLvK1em3yrfvdJGD5BEkAPTLLYWoefd3mevTzPvOJ43SoXudhKNHZrYewRAJqzzjLLLLcUId0ytASPJ0gC6IVZjrfYEPs6iywyyyzPCkcwV1lubczxg2PT2gCgok3e3+OnV7nJJu+z2uKQ0gcvrOAKBQiSAHriNMustvoXr3KVl5lmlsM8fVSgtM4q77Pc0kS2T01z6uQBgIre53kvXufUCq5QhCAJoDfOMt/B2N0qq7xOMs00+zlMOnZQWiZZ7mzE8YNJzpw4AICOiVCMIAmgN/ZztsMRv1VWSV7f/bfpXYXS/s+rvK2z/vnfrtOKsy2vQgcAtOnEtDYoRJAE0COHOW1kNO3DJLt3TbyaLznd0vpzAEDbjqzWBsV8ZxcA9MlxjuyEjtwyAgBJMs1LOwGKESQB9MwiB3ZCBzOdEACA3HZHmtgNUIwgCaB3Xpvj/01TMRIAkCQ5c+cERQmSAHpnknM3RF81zbmRRwAgySsdE6EwQRJAD4mSvkaMBADcepG5nQCFCZIAekmU9CViJADg1lFO7AQoTpAE0FOipM8RIwEAt450TIQqBEkAvSVK+rWZGAkASCJGgnoESQA9Nsl5juyGO0c5EyMBABEjQU2/twsA+mySRZ7k3I7IaY7tBAAgyXFO7QSoRpAE0HunmWaRzYj3wCRnlvYFAJIkr6zUBlWZ2gYwAPOcZ2+0736aCzESAJDbwSUxEtQlSAIYhGkuMxvlOz/ORfadAABA9nI+0vsh2CZBEsBATHKW05E1m57kjR4IAECS5CCX1rOFLRAkAQzIcc5HdAM1y5UpbQBAkuRFzq3eClshSAIYlGku8mIEt1F7eZMzt4sAQG7vC07sBtgSQRLA4JzkIgcDfn+TvMilWiQAIEkyc18AW/V7uwBgePZznqu8yvUA39tRTjTXBgCSJJMstNeGLRMkAQzULLOc5yybAb2ng5wYcQQA7hznxER32DpBEsCAHWeeNzkfRJgkRAIAfnGQl9Zog50QJAEM2iQned77MGmWYyESAHBnLyeZ2w2wI4IkgMG7DZMu8qaHPZMmmedYTyQA4I4QCXZNkAQwCpMc5zhXuchVb17zNMd5pvMBAHBHiAQtECQBjMgss6xzkYvGa5P28kwdEgDwkYPMhUjQBEESwMjs5yQnWeUibxuMk/byLHOtMwGAn00yy3N3B9AMQRLAKE1zmtOscpFlVk28ooM8y6GbRADgI7PM1CFBYwRJACM2zWmSdZZZZrmj+qSDHObQmmwAwCdmmemVCE0SJAGM3v5dz4F1llnlfd5t4W9OM83TTAVIAMAnpjnMYWZ2BDRLkATAnf2fS8dXeZ91ltkUnfZ2kCeZ5mn2TWADAD6xdzfAZIgJ2idIAuA3ph9FPeuss8n7JKvcJFl3mAI3vStEP0zyJNO7fwMAuLWX/SRPM8nTTNwnQK8IkgD4qv3sJ18pMF9no8IIAEbsMO/tBBgRQRIAj7JvFwAAwGh8ZxcAAAAA0IUgCQAAAIBOBEkAAAAAdCJIAgAAAKATQRIAAAAAnQiSAAAAAOhEkAQAAABAJ4IkAAAAADoRJAEAAADQiSAJAAAAgE4ESQAAAAB0IkgCAAAAoBNBEgAAAACdCJIAAAAA6ESQBAAAAEAngiQAAAAAOhEkAQAAANCJIAkAAACATgRJAAAAAHQiSAIAAACgE0ESAAAAAJ0IkgAAAADoRJAEAAAAQCeCJAAAAAA6ESQBAAAA0IkgCQAAAIBOBEkAAAAAdCJIAgAAAKATQRIAAAAAnQiSAAAAAOhEkAQAAABAJ4IkAAAAADoRJAEAAADQiSAJAAAAgE4ESQAAAAB0IkgCAAAAoBNBEgAAAACdCJIAAAAA6ESQBAAAAEAngiQAAAAAOhEkAQAAANCJIAkAAACATgRJAAAAAHQiSAIAAACgE0ESAAAAAJ0IkgAAAADoRJAEAAAAQCeCJAAAAAA6ESQBAAAA0IkgCQAAAIBOBEkAAAAAdCJIAgAAAKATQRIAAAAAnQiSAAAAAOhEkAQAAABAJ4IkAAAAADoRJAEAAADQiSAJAAAAgE4ESQAAAAB0IkgCAAAAoBNBEgAAAACdCJIAAAAA6ESQBAAAAEAngiQAAAAAOhEkAQAAANCJIAkAAACATgRJAAAAAHQiSAIAAACgE0ESAAAAAJ0IkgAAAADoRJAEAAAAQCeCJAAAAAA6ESQBAAAA0IkgCQAAAIBOBEkAAAAAdCJIAgAAAKATQRIAAAAAnQiSAAAAAOhEkAQAAABAJ4IkAAAAADoRJAEAAADQiSAJAAAAgE4ESQAAAAB0IkgCAAAAoBNBEgAAAACdCJIAAAAA6ESQBAAAAEAngiQAAAAAOhEkAQAAANCJIAkAAACATgRJAAAAAHQiSAIAAACgE0ESAAAAAJ0IkgAAAADoRJAEAAAAQCeCJAAAAAA6ESQBAAAA0IkgCQAAAIBOBEkAAAAAdCJIAgAAAKATQRIAAAAAnQiSAAAAAOhEkAQAAABAJ4IkAAAAADoRJAEAAADQiSAJAAAAgE4ESQAAAAB0IkgCAAAAoBNBEgAAAACdCJIAAAAA6ESQBAAAAEAngiQAAAAAOhEkAQAAANCJIAkAAACATgRJAAAAAHQiSAIAAACgE0ESAAAAAJ0IkgAAAADoRJAEAAAAQCeCJAAAAAA6ESQBAAAA0IkgCQAAAIBOBEkAAAAAdCJIAgAAAKATQRIAAAAAnQiSAAAAAOhEkAQAAABAJ4IkAAAAADoRJAEAAADQiSAJAAAAgE4ESQAAAAB0IkgCAAAAoBNBEgAAAACdCJIAAAAA6ESQBAAAAEAngiQAAAAAOhEkAQAAANCJIAkAAACATgRJAAAAAHQiSAIAAACgE0ESAAAAAJ0IkgAAAADoRJAEAAAAQCeCJAAAAAA6ESQBAAAA0IkgCQAAAIBOBEkAAAAAdCJIAgAAAKATQRIAAAAAnQiSAAAAAOhEkAQAAABAJ4IkAAAAADoRJAEAAADQiSAJAAAAgE4ESQAAAAB0IkgCAAAAoBNBEgAAAACdCJIAAAAA6ESQBAAAAEAngiQAAAAAOhEkAQAAANCJIAkAAACATgRJAAAAAHQiSAIAAACgE0ESAAAAAJ0IkgAAAADoRJAEAAAAQCeCJAAAAAA6ESQBAAAA0IkgCQAAAIBOBEkAAAAAdCJIAgAAAKATQRIAAAAAnQiSAAAAAOhEkAQAAABAJ4IkAAAAADoRJAEAAADQiSAJAAAAgE4ESQAAAAB0IkgCAAAAoJMuQdLf7SYAAACAAft7tx/rEiT9094EAAAAGLB/dvsxQRIAAADA2P2z24/97r87/NDNf/d5TwAAAADwNU9+1+3nujXb/pcdCgAAADBQnZOfbkHS3+1RAAAAgIH6e9cfFCQBAAAAjNvfu/6gIAkAAABg3P7e9QcFSQAAAADj9veuP/i7bguyWbcNAAAAYJi6rtnWtSIp+ZudCgAAADBA90h9ugZJP9mrAAAAAAP0U/cf7RokXdqrAAAAAAN02f1Hf9e1+dHNP/Lv9iwAAADAoPzXkz92/+HvOv/kT/YsAAAAwMD8dJ8f7h4kXdqzAAAAAANzeZ8f7jy1zeQ2AAAAgIG518S2+1QkqUkCAAAAGJbL+/34fSqS/pj/Y/8CAAAADMb/9eQf9/nxe1QkPflH/mb/AgAAAAzE3+4XI91valvyH/YwAAAAwED89b6/cI+pbYmG2wAAAAADcc9G28l9K5KSv9jLAAAAAAPwl/v/yj0rktQkAQAAAAzAA+qR7l+RpCYJAAAAoP/+8pBfundFkpokAAAAgJ57UD3SQyqSkh/tbQAAAIAe+/Fhv/aAIOnJT/nf9jcAAABAT/3vJz897BcfMLUtuflj/p5/s9cBAAAAeudf+f7JPx72qw+Z2pYn/9ByGwAAAKCX/vLQGOmBFUlJcvNT/mTPAwAAAPTK35788PBffniQZHobAAAAQL88Ylpb8sCpbUny5B9WbwMAAADolR8fEyM9IkhKnlzmf9n/AAAAAD3xv55cPm4DD57adkunJAAAAIBeeFR3pFvfPfL3j/KfjgMAAABA4/4zR4/fyCODpCf/zI/5l2MBAAAA0LB/5ccn/3z8Zh5bkZQnf88PoiQAAACAZv0rPzz5e4kNfff4TYiSAAAAAJpVLEYqEiSJkgAAAAAaVTBGKhQkiZIAAAAAGlQ0RioWJImSAAAAABpTOEYqGCTdRUn/6RgBAAAANOA/S8dIye/+u+jmbv6Qy/zJkQIAAADYqb/l6Mk/S2/0u7Kbe/LPJz/kfzlWAAAAADv0v578UD5GKl6RdOvmKP+Rf3PMAAAAALbuX/nxyWWdTVcJkkxxAwAAANiJKlPaPviuzmaf/PPJD/l/rOIGAAAAsDX/yv+nzpS2DypVJN26+UP+mueOIgAAAEB1b/LnmiFSUq0i6daTfz75Mf8zf3MkAQAAACr6W/7nkx9rx0iVK5I+uPkxf8m/O6YAAAAAxf1X/vLkP7bzp7YSJCXJzY/5c/6HYwsAAABQzH/mr9sKkZItBklJcvND/pz/2zEGAAAAeLT/nb8++Wm7f3KrQVKS3PwxR/mziW4AAAAAD/Rf+Wsun/xj+39460HSrZvv82N+MNUNAAAA4B7+Mz/lP578fVd/fkdB0q2bP+aH/JAf1CcBAAAAfMV/5af8lJ92UYX0sZ0GSR/c/DF/zA/5Pn/In5wZAAAAAEmSv+Wf+Xt+yj92HSB90ESQ9Kmb7/OHJH/I984XAAAAYGT+nn8m+efupq99TYNBEgAAAAAt+s4uAAAAAKALQRIAAAAAnQiSAAAAAOhEkAQAAABAJ4IkAAAAADoRJAEAAADQiSAJAAAAgE4ESQAAAAB0IkgCAAAAoBNBEgAAAACdCJIAAAAA6ESQBAAAAEAngiQAAAAAOvl/ASZ4amxSM9fmAAAAJXRFWHRkYXRlOmNyZWF0ZQAyMDI1LTAxLTE1VDEwOjE1OjIzKzAwOjAwpG3vLQAAACV0RVh0ZGF0ZTptb2RpZnkAMjAyNS0wMS0xNVQxMDoxNToyMyswMDowMNUwV5EAAAAASUVORK5CYII=;" vertex="1" parent="PzGdb6fwfJ1blYIkL1jN-23">
          <mxGeometry x="30.170000000000016" y="2.693043478260862" width="74.05869565217392" height="27.09565217391304" as="geometry" />
        </mxCell>
        <mxCell id="PzGdb6fwfJ1blYIkL1jN-25" value="determines severity, priority, and escalation rules" style="text;html=1;align=left;verticalAlign=middle;whiteSpace=wrap;rounded=0;container=0;" vertex="1" parent="PzGdb6fwfJ1blYIkL1jN-26">
          <mxGeometry x="10" y="29.788695652173914" width="140" height="74.34782608695652" as="geometry" />
        </mxCell>
        <mxCell id="PzGdb6fwfJ1blYIkL1jN-27" value="" style="endArrow=classic;html=1;rounded=0;" edge="1" parent="WIyWlLk6GJQsqaUBKTNV-1">
          <mxGeometry width="50" height="50" relative="1" as="geometry">
            <mxPoint x="580" y="244.5" as="sourcePoint" />
            <mxPoint x="450" y="244.5" as="targetPoint" />
          </mxGeometry>
        </mxCell>
        <mxCell id="PzGdb6fwfJ1blYIkL1jN-28" value="alert re-routed" style="text;html=1;align=center;verticalAlign=middle;whiteSpace=wrap;rounded=0;" vertex="1" parent="WIyWlLk6GJQsqaUBKTNV-1">
          <mxGeometry x="480" y="210" width="80" height="30" as="geometry" />
        </mxCell>
        <mxCell id="PzGdb6fwfJ1blYIkL1jN-37" style="edgeStyle=orthogonalEdgeStyle;rounded=0;orthogonalLoop=1;jettySize=auto;html=1;" edge="1" parent="WIyWlLk6GJQsqaUBKTNV-1" source="PzGdb6fwfJ1blYIkL1jN-29">
          <mxGeometry relative="1" as="geometry">
            <mxPoint x="640" y="310" as="targetPoint" />
          </mxGeometry>
        </mxCell>
        <mxCell id="PzGdb6fwfJ1blYIkL1jN-29" value="Urgent?" style="rhombus;whiteSpace=wrap;html=1;" vertex="1" parent="WIyWlLk6GJQsqaUBKTNV-1">
          <mxGeometry x="475" y="270" width="80" height="80" as="geometry" />
        </mxCell>
        <mxCell id="PzGdb6fwfJ1blYIkL1jN-36" style="edgeStyle=orthogonalEdgeStyle;rounded=0;orthogonalLoop=1;jettySize=auto;html=1;entryX=0;entryY=0.5;entryDx=0;entryDy=0;" edge="1" parent="WIyWlLk6GJQsqaUBKTNV-1" source="PzGdb6fwfJ1blYIkL1jN-23" target="PzGdb6fwfJ1blYIkL1jN-29">
          <mxGeometry relative="1" as="geometry" />
        </mxCell>
      </root>
    </mxGraphModel>
  </diagram>
</mxfile>
